<svg width="276" height="97" viewBox="0 0 276 97" fill="none" xmlns="http://www.w3.org/2000/svg">
<path d="M104.422 25.4506C104.422 24.1409 104.467 22.8758 104.556 21.6553C104.645 20.4349 104.988 19.4377 105.583 18.6638C106.416 17.7113 107.682 16.8778 109.378 16.1634C111.105 15.4192 113.367 15.0472 116.165 15.0472C118.278 15.0472 120.228 15.4639 122.014 16.2974C123.83 17.1308 125.393 18.2768 126.702 19.7354C128.012 21.1642 129.039 22.8609 129.783 24.8255C130.527 26.7603 130.899 28.8589 130.899 31.1211C130.899 33.2643 130.572 35.2587 129.917 37.1042C129.262 38.9497 128.31 40.5571 127.06 41.9264C125.809 43.2956 124.262 44.3672 122.416 45.1412C120.6 45.9151 118.517 46.3021 116.165 46.3021C113.04 46.3021 110.465 45.7216 108.441 44.5607C106.416 43.3998 104.705 41.5841 103.306 39.1134L104.869 37.9079C105.94 39.9915 107.354 41.5841 109.11 42.6854C110.867 43.757 112.772 44.2928 114.826 44.2928C116.552 44.2928 118.025 43.9505 119.246 43.2659C120.496 42.5515 121.508 41.6138 122.282 40.4529C123.056 39.2623 123.636 37.9079 124.023 36.3898C124.41 34.8419 124.619 33.2345 124.648 31.5676H110.807V29.5584H124.604C124.515 27.1473 124.187 25.1529 123.622 23.5753C123.086 21.9679 122.371 20.6879 121.478 19.7354C120.615 18.7531 119.603 18.0685 118.442 17.6815C117.311 17.2648 116.105 17.0564 114.826 17.0564C112.355 17.0564 110.361 17.7857 108.842 19.2443C107.354 20.673 106.327 22.7418 105.762 25.4506H104.422ZM149.013 35.8093H141.869V45.4091H136.065V30.2281C136.065 28.8886 135.871 27.817 135.484 27.0133C135.127 26.1799 134.279 25.7631 132.939 25.7631H132.493V24.4236H137.851C138.625 24.4236 139.265 24.5278 139.771 24.7362C140.307 24.9148 140.723 25.2273 141.021 25.6738C141.348 26.1203 141.572 26.7157 141.691 27.4598C141.81 28.204 141.869 29.1268 141.869 30.2281V33.8001H149.013V24.4236H154.818V39.6046C154.818 40.9441 154.996 42.0306 155.354 42.864C155.741 43.6677 156.604 44.0696 157.943 44.0696H158.39V45.4091H153.032C152.258 45.4091 151.603 45.3198 151.067 45.1412C150.561 44.9626 150.144 44.65 149.817 44.2035C149.519 43.757 149.311 43.1617 149.192 42.4175C149.073 41.6734 149.013 40.7357 149.013 39.6046V35.8093ZM170.942 43.8463C172.49 43.8463 173.74 43.4891 174.693 42.7747C175.675 42.0603 176.553 41.1822 177.327 40.1404L178.711 41.1673C178.384 41.6734 177.982 42.2092 177.506 42.7747C177.059 43.3105 176.493 43.8165 175.809 44.2928C175.154 44.7393 174.365 45.1114 173.442 45.4091C172.549 45.7067 171.493 45.8556 170.272 45.8556C168.695 45.8556 167.266 45.5877 165.986 45.0519C164.736 44.4863 163.664 43.7124 162.771 42.7301C161.878 41.7478 161.193 40.6018 160.717 39.292C160.241 37.9525 160.003 36.494 160.003 34.9163C160.003 33.1304 160.256 31.5527 160.762 30.1835C161.268 28.8142 161.952 27.6831 162.816 26.7901C163.709 25.8673 164.751 25.1678 165.941 24.6915C167.132 24.2153 168.427 23.9771 169.826 23.9771C171.225 23.9771 172.52 24.2004 173.71 24.6469C174.901 25.0636 175.928 25.6589 176.791 26.4329C177.684 27.2068 178.384 28.1445 178.89 29.2458C179.396 30.3472 179.649 31.5676 179.649 32.9071C179.649 33.2345 179.634 33.5768 179.604 33.934C179.604 34.2615 179.589 34.5591 179.559 34.827C179.53 35.1545 179.5 35.4521 179.47 35.72H166.031C166.031 38.6669 166.477 40.7655 167.37 42.0157C168.293 43.2361 169.483 43.8463 170.942 43.8463ZM173.621 33.7108C173.621 32.2225 173.517 30.9872 173.308 30.0049C173.13 29.0226 172.877 28.2338 172.549 27.6384C172.222 27.0431 171.82 26.6264 171.344 26.3882C170.897 26.1203 170.391 25.9864 169.826 25.9864C169.32 25.9864 168.829 26.1203 168.352 26.3882C167.906 26.6264 167.504 27.0431 167.147 27.6384C166.819 28.2338 166.551 29.0226 166.343 30.0049C166.135 30.9872 166.031 32.2225 166.031 33.7108H173.621ZM195.356 23.9771C196.904 23.9771 198.258 24.2599 199.419 24.8255C200.61 25.391 201.592 26.165 202.366 27.1473C203.17 28.1296 203.765 29.2905 204.152 30.63C204.539 31.9695 204.733 33.3983 204.733 34.9163C204.733 36.4344 204.539 37.8632 204.152 39.2027C203.765 40.5422 203.17 41.7031 202.366 42.6854C201.562 43.6677 200.55 44.4416 199.33 45.0072C198.139 45.5728 196.74 45.8556 195.133 45.8556C194.389 45.8556 193.734 45.7811 193.168 45.6323C192.603 45.5132 192.111 45.3644 191.695 45.1858C191.218 45.0072 190.802 44.784 190.445 44.5161V53.8925H184.64V30.2281C184.64 29.5732 184.595 28.9779 184.506 28.4421C184.447 27.8766 184.313 27.4003 184.104 27.0133C183.896 26.5966 183.583 26.284 183.167 26.0757C182.75 25.8673 182.214 25.7631 181.559 25.7631H181.113V24.4236H185.533C186.545 24.4236 187.334 24.5576 187.9 24.8255C188.495 25.0934 188.956 25.5845 189.284 26.2989C189.552 26.0608 189.864 25.8078 190.221 25.5399C190.608 25.272 191.04 25.019 191.516 24.7808C192.022 24.5427 192.588 24.3492 193.213 24.2004C193.868 24.0516 194.582 23.9771 195.356 23.9771ZM194.463 25.9864C193.332 25.9864 192.424 26.1947 191.739 26.6115C191.055 27.0282 190.519 27.4301 190.132 27.817C190.162 28.0254 190.206 28.2338 190.266 28.4421C190.325 28.6505 190.37 28.8737 190.4 29.1119C190.43 29.35 190.445 29.6328 190.445 29.9602V42.5068C190.772 42.7747 191.129 42.998 191.516 43.1766C191.844 43.3552 192.231 43.5189 192.677 43.6677C193.153 43.7868 193.674 43.8463 194.24 43.8463C195.073 43.8463 195.773 43.6231 196.338 43.1766C196.904 42.7301 197.365 42.105 197.722 41.3013C198.08 40.4976 198.333 39.5599 198.482 38.4883C198.63 37.387 198.705 36.1963 198.705 34.9163C198.705 33.6364 198.63 32.4606 198.482 31.389C198.333 30.2876 198.08 29.3351 197.722 28.5314C197.395 27.7277 196.963 27.1026 196.428 26.6561C195.892 26.2096 195.237 25.9864 194.463 25.9864ZM209.619 30.2281C209.619 28.8886 209.425 27.817 209.038 27.0133C208.681 26.1799 207.833 25.7631 206.493 25.7631H206.27V24.4236H221.674C222.329 24.4236 222.88 24.5278 223.326 24.7362C223.773 24.9445 224.115 25.2124 224.353 25.5399C224.591 25.8673 224.755 26.2543 224.844 26.7008C224.963 27.1175 225.023 27.5491 225.023 27.9956V31.1211H223.683C223.683 29.4244 223.311 28.2189 222.567 27.5045C221.823 26.7901 220.781 26.4329 219.441 26.4329H215.423V45.4091H209.619V30.2281ZM229.507 30.2281C229.507 28.8886 229.313 27.817 228.926 27.0133C228.569 26.1799 227.721 25.7631 226.381 25.7631H225.935V24.4236H231.293C232.067 24.4236 232.707 24.5278 233.213 24.7362C233.749 24.9148 234.165 25.2273 234.463 25.6738C234.79 26.1203 235.014 26.7157 235.133 27.4598C235.252 28.204 235.311 29.1268 235.311 30.2281V39.8278L243.348 24.4236H248.706V45.4091H242.902V30.0049L234.865 45.4091H229.507V30.2281ZM263.679 34.9163C264.245 34.9163 264.721 34.8568 265.108 34.7377C265.495 34.6187 265.688 34.574 265.688 34.6038V26.5222C265.688 26.5519 265.495 26.5073 265.108 26.3882C264.721 26.2692 264.245 26.2096 263.679 26.2096C263.113 26.2096 262.578 26.284 262.072 26.4329C261.566 26.5817 261.119 26.8198 260.732 27.1473C260.345 27.4747 260.033 27.9063 259.794 28.4421C259.556 28.9779 259.437 29.6477 259.437 30.4514C259.437 32.029 259.854 33.175 260.687 33.8894C261.551 34.574 262.548 34.9163 263.679 34.9163ZM271.493 45.4091H265.688V36.747H263.724L261.045 42.0603C260.717 42.745 260.36 43.3403 259.973 43.8463C259.616 44.3226 259.199 44.7393 258.723 45.0965C258.247 45.4239 257.696 45.6621 257.071 45.8109C256.475 45.9895 255.776 46.0788 254.972 46.0788C254.407 46.0788 253.856 46.0342 253.32 45.9449C252.814 45.8556 252.397 45.7514 252.07 45.6323V44.4714C252.874 44.3523 253.588 43.9803 254.213 43.3552C254.838 42.7003 255.389 41.971 255.865 41.1673L258.544 36.5237C256.967 36.2856 255.716 35.6605 254.794 34.6484C253.871 33.6066 253.41 32.3564 253.41 30.8979C253.41 29.737 253.648 28.7398 254.124 27.9063C254.6 27.0729 255.27 26.4031 256.133 25.8971C257.026 25.391 258.068 25.019 259.259 24.7808C260.479 24.5427 261.804 24.4236 263.233 24.4236H274.841V25.7631H274.618C273.279 25.7631 272.415 26.1799 272.029 27.0133C271.671 27.817 271.493 28.8886 271.493 30.2281V45.4091ZM107.277 67.4236H113.081V77.4698L118.038 70.8617C118.901 69.7305 119.794 68.8822 120.716 68.3166C121.639 67.7213 122.889 67.4236 124.467 67.4236H125.36V68.5845C124.467 68.5845 123.648 68.7631 122.904 69.1203C122.16 69.4478 121.49 70.0133 120.895 70.817L116.966 76.0857L122.502 83.9441C123.247 84.9859 123.961 85.7747 124.646 86.3105C125.36 86.8463 126.03 87.1886 126.655 87.3375V88.4091C126.417 88.5281 125.985 88.6323 125.36 88.7216C124.735 88.8109 124.14 88.8556 123.574 88.8556C122.324 88.8556 121.163 88.5728 120.091 88.0072C119.02 87.4119 117.963 86.3552 116.921 84.8371L113.081 79.3451V88.4091H107.277V79.3451L103.437 84.8371C102.395 86.3552 101.338 87.4119 100.267 88.0072C99.1953 88.5728 98.0344 88.8556 96.7842 88.8556C96.2186 88.8556 95.6233 88.8109 94.9982 88.7216C94.3731 88.6323 93.9415 88.5281 93.7033 88.4091V87.3375C94.3284 87.1886 94.9833 86.8463 95.6679 86.3105C96.3823 85.7747 97.1116 84.9859 97.8558 83.9441L103.392 76.0857L99.4632 70.817C98.8678 70.0133 98.1981 69.4478 97.4539 69.1203C96.7098 68.7631 95.8912 68.5845 94.9982 68.5845V67.4236H95.8912C97.4688 67.4236 98.719 67.7213 99.6418 68.3166C100.565 68.8822 101.458 69.7305 102.321 70.8617L107.277 77.4698V67.4236ZM130.237 73.2281C130.237 71.8886 130.044 70.817 129.657 70.0133C129.3 69.1799 128.451 68.7631 127.112 68.7631H126.665V67.4236H132.023C132.797 67.4236 133.437 67.5278 133.943 67.7362C134.479 67.9148 134.896 68.2273 135.194 68.6738C135.521 69.1203 135.744 69.7157 135.863 70.4598C135.982 71.204 136.042 72.1268 136.042 73.2281V82.8278L144.079 67.4236H149.437V88.4091H143.632V73.0049L135.595 88.4091H130.237V73.2281ZM157.489 76.5768H159.721C161.507 76.5768 162.728 76.2792 163.383 75.6839C164.067 75.0885 164.41 74.1211 164.41 72.7816C164.41 72.1267 164.29 71.5612 164.052 71.0849C163.844 70.5789 163.546 70.177 163.159 69.8794C162.802 69.5817 162.37 69.3585 161.864 69.2096C161.388 69.0608 160.897 68.9864 160.391 68.9864C159.052 68.9864 157.92 69.4478 156.998 70.3705C156.075 71.2635 155.569 72.4393 155.48 73.8979H154.14C154.14 72.6477 154.185 71.591 154.274 70.7277C154.363 69.8347 154.691 69.1054 155.256 68.5399C155.822 67.9743 156.67 67.5725 157.801 67.3343C158.932 67.0962 160.168 66.9771 161.507 66.9771C164.186 66.9771 166.344 67.4534 167.981 68.4059C169.619 69.3287 170.437 70.7873 170.437 72.7816C170.437 74.1211 169.946 75.2225 168.964 76.0857C167.981 76.9192 166.687 77.455 165.079 77.6931C166.925 77.9312 168.383 78.5117 169.455 79.4344C170.556 80.3572 171.107 81.4883 171.107 82.8278C171.107 83.8994 170.884 84.8222 170.437 85.5961C169.991 86.3403 169.351 86.9654 168.517 87.4714C167.714 87.9477 166.731 88.29 165.57 88.4984C164.439 88.7365 163.159 88.8556 161.731 88.8556C159.617 88.8556 157.906 88.5132 156.596 87.8286C155.286 87.144 154.244 86.2956 153.47 85.2836L154.81 84.1673C155.018 84.4352 155.286 84.7329 155.613 85.0603C155.941 85.358 156.328 85.6408 156.774 85.9087C157.221 86.1766 157.742 86.3998 158.337 86.5784C158.932 86.757 159.617 86.8463 160.391 86.8463C161.731 86.8463 162.847 86.5486 163.74 85.9533C164.633 85.3282 165.079 84.2864 165.079 82.8278C165.079 81.4288 164.707 80.3721 163.963 79.6577C163.219 78.9433 161.805 78.5861 159.721 78.5861H157.489V76.5768ZM189.144 78.8093H182V88.4091H176.195V73.2281C176.195 71.8886 176.002 70.817 175.615 70.0133C175.258 69.1799 174.409 68.7631 173.07 68.7631H172.623V67.4236H177.981C178.755 67.4236 179.395 67.5278 179.901 67.7362C180.437 67.9148 180.854 68.2273 181.151 68.6738C181.479 69.1203 181.702 69.7157 181.821 70.4598C181.94 71.204 182 72.1268 182 73.2281V76.8001H189.144V67.4236H194.948V82.6046C194.948 83.9441 195.127 85.0306 195.484 85.864C195.871 86.6677 196.734 87.0696 198.074 87.0696H198.52V88.4091H193.162C192.388 88.4091 191.733 88.3198 191.198 88.1412C190.692 87.9626 190.275 87.65 189.947 87.2035C189.65 86.757 189.441 86.1617 189.322 85.4175C189.203 84.6734 189.144 83.7357 189.144 82.6046V78.8093ZM202.009 73.2281C202.009 71.8886 201.815 70.817 201.428 70.0133C201.071 69.1799 200.223 68.7631 198.883 68.7631H198.437V67.4236H203.794C204.568 67.4236 205.208 67.5278 205.714 67.7362C206.25 67.9148 206.667 68.2273 206.965 68.6738C207.292 69.1203 207.515 69.7157 207.634 70.4598C207.753 71.204 207.813 72.1268 207.813 73.2281V82.8278L215.85 67.4236H221.208V88.4091H215.403V73.0049L207.366 88.4091H202.009V73.2281Z" fill="#7C7C7C"/>
<g clip-path="url(#clip0_99_112)">
<path fill-rule="evenodd" clip-rule="evenodd" d="M7.82312 62.15C7.82312 65.1905 8.40783 70.1021 9.57725 72.9087C9.81114 73.3764 9.92808 73.9611 10.045 74.4289C10.2789 75.0136 10.5128 75.2475 10.7467 75.8322C11.0975 76.7678 13.0855 80.276 13.6702 81.0946C14.9566 82.8488 16.126 84.2521 17.4124 85.6554C17.7632 86.0062 18.114 86.2401 18.4649 86.5909C19.6343 87.7603 22.6748 90.2161 24.312 90.9178L26.183 91.9702C26.4169 92.0872 26.7677 92.2041 27.0016 92.3211L28.288 93.0227C30.6268 94.0752 33.9012 95.0107 36.357 95.2446C37.6434 95.3616 38.9297 95.5954 40.333 95.4785C40.333 95.0107 39.3975 92.438 39.1636 91.8533C37.8773 88.462 35.8892 86.1231 33.6673 83.5504C32.7318 82.4979 30.0421 80.1591 28.7558 79.2235L23.7273 74.8967L21.6223 72.4409C21.0376 71.6223 20.3359 70.5698 19.8682 69.6343C19.1665 68.114 18.8157 65.5413 16.5938 66.126C15.8921 66.243 15.5413 66.7107 15.4244 67.4124C14.2549 71.1545 21.2715 77.0016 21.2715 79.9252C20.6868 79.8083 19.6343 78.8727 19.1665 78.405C17.5293 77.0016 15.6582 74.5459 14.7227 72.5578C13.9041 70.6868 13.4363 69.9851 12.8516 67.6463C12.15 64.138 12.2669 61.5653 12.2669 57.9401C12.2669 53.2624 10.045 54.081 9.22643 55.6012C8.52477 56.3029 8.29089 57.3554 8.057 58.2909C7.82312 59.1095 7.82312 61.2145 7.82312 62.15Z" fill="#E6A443"/>
<path fill-rule="evenodd" clip-rule="evenodd" d="M82.6662 55.7182C82.5492 55.2504 82.4323 54.6657 82.1984 54.3149L82.0815 54.081C82.0815 54.081 82.0815 54.081 82.0815 53.9641C81.8476 53.4963 81.6137 52.9116 81.1459 52.6777C80.4443 52.2099 80.0935 51.976 79.3918 52.6777C78.4563 53.6132 78.6901 57.3554 78.924 58.9926C79.2749 62.15 78.8071 64.3719 78.2224 67.0616C78.1054 67.5293 77.9885 67.8802 77.7546 68.3479C77.053 70.8037 75.6497 73.2595 74.0125 75.2475C73.5447 75.8322 71.2059 78.5219 70.3873 78.5219C70.2703 77.1186 72.843 73.3765 73.5447 72.4409C74.3633 71.2715 74.2464 71.1546 74.5972 70.5698L75.5327 68.6988C77.2868 64.0211 73.7786 64.0211 72.843 64.8397C71.9075 65.7752 71.7906 68.6988 69.8026 71.0376C69.1009 71.9732 68.3992 72.7917 67.6976 73.6103L62.786 78.0541C60.6811 79.6913 57.7575 82.8488 56.1203 85.1876C55.6526 85.8893 55.5356 86.2401 55.1848 86.5909C54.9509 86.8248 54.4831 87.6434 54.3662 88.1112C53.1968 90.6839 53.4306 89.6314 52.3782 93.0227C52.2612 93.4905 51.9104 94.1922 51.9104 94.7769C53.1968 94.8938 53.8984 94.6599 55.3017 94.543C55.8864 94.543 58.5761 93.7244 59.5116 93.4905C60.798 93.1397 62.0844 92.555 63.2538 92.0872C65.4757 91.1517 69.3348 88.9298 70.972 87.4095C73.0769 85.5384 75.4158 83.3165 76.936 80.9777C78.3393 78.8727 79.8596 76.417 80.6782 74.0781C80.7951 73.6103 81.029 73.1426 81.1459 72.7917L81.7306 70.8037C82.1984 69.7513 82.7831 66.7108 82.7831 65.6583C83.2509 62.3839 83.6017 59.1095 82.6662 55.7182Z" fill="#E6A443"/>
<path fill-rule="evenodd" clip-rule="evenodd" d="M31.3285 39.6972C32.8487 40.8666 33.7843 40.9835 35.8892 42.9715C36.2401 43.3224 36.8248 43.7901 37.1756 44.141C37.7603 44.7257 40.45 47.7662 40.6839 48.5848C40.8008 49.0525 40.0992 49.7542 39.7483 50.105C36.357 54.4319 36.1231 56.3029 34.8368 60.9806C34.4859 62.3839 34.4859 64.255 34.4859 65.8922C34.4859 69.4005 34.8368 69.9852 35.5384 72.7918C35.7723 73.7273 37.5264 77.4695 37.9942 78.1711C39.9822 81.4455 43.9582 88.2281 44.8938 92.0872C45.2446 93.4905 45.7124 93.9583 45.8293 96.2972C46.414 95.4786 46.2971 92.672 46.2971 91.7364C46.1801 89.2806 45.8293 87.5265 45.2446 85.3046C44.8938 83.7843 44.426 82.6149 44.1921 81.5624C43.9582 80.7438 42.438 77.4695 41.9702 76.5339C41.7363 75.9492 41.5025 75.5984 41.2686 74.8967C41.1516 74.6629 41.0347 74.1951 41.0347 73.9612C40.0992 70.9207 40.45 72.0901 39.9822 68.8157C39.3975 64.7228 40.2161 59.6943 41.6194 56.0691C42.3211 54.3149 42.7888 53.8472 43.2566 52.7947C44.1921 50.8067 47.1157 47.4153 48.7529 46.012C50.6239 44.4918 50.507 44.3748 52.9628 42.9715C54.0153 42.3868 55.1847 41.6852 56.1202 41.3343C55.8863 40.9835 56.4711 41.1005 55.5355 41.1005L52.1442 41.8021C50.1562 42.3868 49.1037 42.9715 47.3496 43.7901C46.8818 44.024 46.531 44.3748 46.0632 44.6087C42.5549 46.7137 44.1921 46.9476 42.0872 45.1934C41.6194 44.7257 41.2686 44.4918 40.8008 44.141C37.9942 41.9191 36.357 41.2174 33.0826 40.048C32.7318 39.931 31.6793 39.4633 31.3285 39.6972Z" fill="#E6A443"/>
<path fill-rule="evenodd" clip-rule="evenodd" d="M48.4021 49.8711C47.9344 49.988 47.9344 50.105 47.7005 50.4558C47.4666 50.6897 47.3496 50.8066 47.1158 51.1575C45.9463 52.7947 45.5955 53.2624 45.9463 54.5488C47.5835 59.6942 47.5835 64.138 46.2972 69.2835C46.1802 69.7513 45.9463 70.5699 45.7125 71.1546L45.0108 72.9087C44.1922 75.0137 43.4906 75.2475 44.0753 76.3C44.3092 76.6508 44.3092 76.7678 44.4261 77.1186L45.5955 79.4575C46.0633 79.4575 45.7125 79.4575 46.0633 79.2236L47.4666 77.4694C48.2852 76.3 50.1563 73.2595 50.624 71.8562L51.7935 67.9971C52.0273 67.4124 52.0273 66.4769 52.1443 65.7752C52.3782 64.3719 52.2612 62.5008 52.2612 60.9806C52.2612 59.4604 51.7935 58.057 51.4426 56.7707C50.741 53.9641 50.1563 52.7947 48.8699 50.5727C48.753 50.2219 48.753 50.105 48.4021 49.8711Z" fill="#E6A443"/>
<path fill-rule="evenodd" clip-rule="evenodd" d="M53.5476 31.745C55.5356 31.745 56.822 31.2772 58.2253 30.3417C59.3947 29.5231 60.798 27.4182 61.2658 26.0149C62.2013 23.4421 63.0199 19.8169 62.5521 17.0103C61.2658 16.8934 58.2253 18.2967 56.9389 18.8814C54.717 20.0508 54.2492 20.4016 52.4951 21.9219C51.0918 23.0913 50.2732 25.3132 50.1562 27.1843C50.1562 28.2368 50.8579 31.2772 51.5596 31.5111C52.0273 31.745 53.0798 31.745 53.5476 31.745Z" fill="#6C9945"/>
<path fill-rule="evenodd" clip-rule="evenodd" d="M55.1847 58.7587C57.1728 60.3959 60.9149 61.2145 63.2537 59.8112C64.1893 59.3434 64.774 58.9926 65.4756 58.4079C66.9959 57.0046 69.1008 54.3149 70.0364 52.3269C70.2703 51.976 70.3872 51.3913 70.5042 51.0405C70.6211 50.6897 70.9719 49.988 70.9719 49.6372C70.5042 49.2864 68.6331 49.2864 68.0484 49.2864C66.9959 49.2864 65.9434 49.2864 64.8909 49.2864C62.5521 49.4033 59.5116 50.2219 57.7575 51.7422C55.8864 53.3794 54.9508 55.8351 55.1847 58.7587Z" fill="#6C9945"/>
<path fill-rule="evenodd" clip-rule="evenodd" d="M64.5401 25.3132C64.5401 26.4826 64.4231 26.4826 65.3587 26.9504C67.4636 28.1198 70.3872 28.7045 72.4921 27.5351C74.9479 26.2487 76.5851 24.6115 78.1054 22.1558C78.3392 21.8049 78.5731 21.4541 78.807 21.1033C79.0409 20.7525 79.1578 20.1677 79.3917 19.8169C79.7426 19.2322 80.4442 17.9458 80.5611 17.2442C79.6256 16.6595 76.2343 16.8934 74.9479 16.8934C69.8025 17.1273 64.5401 19.3492 64.5401 25.3132Z" fill="#6C9945"/>
<path fill-rule="evenodd" clip-rule="evenodd" d="M36.357 15.607C37.0587 14.6715 38.1111 11.7479 37.7603 10.1107C37.2926 8.00578 36.9417 6.83636 35.4215 5.31611C34.369 4.14669 32.9657 3.21115 31.4454 2.27561C30.7438 1.80784 27.2355 0.0537109 26.5339 0.0537109C26.0661 0.872306 26.183 4.84834 26.4169 6.01776C26.5339 6.9533 26.6508 8.00578 26.8847 8.82437C27.2355 9.87685 27.4694 10.2277 27.8202 11.1632C29.2235 14.5545 32.6149 15.9578 36.357 15.607Z" fill="#6C9945"/>
<path fill-rule="evenodd" clip-rule="evenodd" d="M25.5983 18.5305C25.5983 19.3491 25.5983 20.2846 25.5983 21.2202L26.0661 23.4421C26.7678 26.4826 27.7033 28.3537 30.0421 29.9908C31.3285 30.9264 32.7318 31.1603 34.6029 31.1603C36.1231 31.1603 35.7723 31.2772 36.7079 29.1722C37.6434 27.0673 37.2926 24.6115 36.2401 22.6235C34.8368 20.1677 32.0302 18.4136 29.5744 17.1272L26.7678 15.9578C25.4814 15.3731 25.5983 15.9578 25.5983 18.5305Z" fill="#6C9945"/>
<path fill-rule="evenodd" clip-rule="evenodd" d="M52.3781 17.2442C55.7695 17.2442 58.2252 15.607 59.6286 12.5665C60.9149 9.8768 61.6166 6.25159 61.4996 2.50944C60.5641 2.3925 56.705 3.91275 55.7695 4.38052C52.4951 6.13465 49.1038 8.35655 49.1038 12.6834C49.1038 13.6189 49.3376 15.2561 49.6885 15.9578C50.0393 16.6594 49.8054 16.8933 50.5071 17.0103C51.0918 17.2442 51.6765 17.2442 52.3781 17.2442Z" fill="#6C9945"/>
<path fill-rule="evenodd" clip-rule="evenodd" d="M58.1083 39.5801C58.1083 40.5156 58.1083 40.5156 58.8099 40.8665C59.1608 40.9834 59.0438 40.9834 59.3946 41.1004C60.9149 42.1528 63.6046 42.2698 65.3587 41.802C65.5926 41.6851 66.8789 41.1004 67.1128 40.8665C70.0364 38.9954 72.9599 34.5516 73.8955 31.2772L73.6616 31.1603C72.726 30.8094 70.0364 30.8094 68.9839 30.8094C63.0198 30.8094 58.1083 33.1483 58.1083 39.5801Z" fill="#6C9945"/>
<path fill-rule="evenodd" clip-rule="evenodd" d="M16.2431 29.6401C15.1906 30.1079 13.9042 29.0554 14.7228 30.9265C15.0736 31.745 15.4245 32.5636 15.7753 33.2653C17.4125 35.955 17.5294 36.6566 20.2191 38.8785C20.5699 39.1124 20.6869 39.3463 21.1546 39.5802L21.5055 39.6971L22.0902 39.931C22.324 40.0479 22.0902 39.931 22.324 40.0479C22.5579 40.1649 23.1426 40.3988 23.4935 40.5157C23.9612 40.6327 24.6629 40.6327 25.2476 40.6327C27.2356 40.6327 27.7034 40.2818 29.3406 39.5802C29.5745 39.4632 30.1592 39.1124 30.2761 38.8785C30.3931 38.4108 30.1592 36.3058 30.0422 35.838C29.6914 34.0839 28.6389 32.6806 27.4695 31.862C26.0662 30.8095 24.7798 30.3417 22.7918 29.874C21.6224 29.6401 17.4125 29.1723 16.2431 29.6401Z" fill="#6C9945"/>
<path fill-rule="evenodd" clip-rule="evenodd" d="M7.94006 15.9578C7.94006 17.1273 10.6297 21.688 11.6822 22.8574C14.0211 25.4301 15.5413 26.8335 19.2835 26.8335C20.102 26.8335 21.1545 26.4826 21.8562 26.2487C22.3239 26.1318 22.4409 25.8979 22.7917 25.664C23.3764 25.4301 23.3764 25.3132 23.8442 25.0793C23.9611 19.7 21.8562 17.3611 16.9446 15.9578C15.0735 15.607 9.22643 15.3731 7.94006 15.9578Z" fill="#6C9945"/>
<path fill-rule="evenodd" clip-rule="evenodd" d="M21.8563 49.2863C20.5699 49.2863 19.5174 49.1694 18.2311 49.4033C17.7633 49.5202 16.9447 49.4033 16.5939 49.5202C16.4769 49.5202 15.8922 49.4033 16.4769 50.6896C18.348 55.0165 22.0902 61.0975 27.5864 60.6297C28.405 60.5128 31.7964 59.6942 32.0302 58.6417C32.3811 56.7706 31.4455 54.4318 30.7439 53.3793C29.9253 52.0929 28.6389 51.1574 27.1187 50.4557C26.7678 50.3388 26.3001 50.2219 25.9492 50.1049C25.0137 49.6371 23.0257 49.2863 21.8563 49.2863Z" fill="#6C9945"/>
<path fill-rule="evenodd" clip-rule="evenodd" d="M43.3736 9.87683C42.9059 10.1107 42.2042 11.3971 41.8534 11.8648C40.4501 13.619 40.2162 14.5545 39.3976 16.4256C38.6959 18.0628 38.1112 20.6355 38.579 22.5066C38.9298 23.9099 39.2806 24.9624 40.3331 26.0149C40.9178 26.7165 42.672 28.2367 43.4906 28.1198C43.8414 28.1198 45.3616 27.0673 45.7125 26.7165C49.6885 22.9744 48.4021 18.1797 46.1802 13.8529C45.5955 13.0343 43.9583 10.2277 43.3736 9.87683Z" fill="#6C9945"/>
<path fill-rule="evenodd" clip-rule="evenodd" d="M87.6946 36.7735C84.7711 36.4227 81.1459 36.0719 78.3393 37.0074C76.936 37.4752 76.819 37.3582 75.1818 38.4107C74.7141 38.7615 73.8955 39.4632 73.5446 39.814C72.6091 40.9834 72.0244 42.3868 71.9075 44.2578C71.7905 45.7781 71.6736 45.895 72.7261 46.4797C78.807 49.7541 83.1339 45.6611 85.9405 40.8665L87.6946 37.3582L87.8116 37.1244L87.6946 36.7735Z" fill="#6C9945"/>
<path fill-rule="evenodd" clip-rule="evenodd" d="M16.1261 44.7256C16.243 41.2173 15.3075 38.9954 13.3194 37.4752C12.3839 36.7735 11.3314 36.1888 9.92812 35.838C7.3554 35.2533 6.06903 35.1364 3.49631 35.1364L0.806636 35.3702C0.338867 35.4872 0.338867 35.4872 0.338867 35.9549C0.455809 36.8905 2.44383 40.3987 3.02854 41.2173C3.73019 42.1529 4.08102 42.5037 4.78267 43.4392C6.77069 45.7781 10.162 47.0645 13.3194 46.012C14.4889 45.6611 15.3075 45.3103 16.1261 44.7256Z" fill="#6C9945"/>
<path fill-rule="evenodd" clip-rule="evenodd" d="M43.2567 31.8619C42.7889 31.9789 42.672 31.8619 42.2042 32.0958C36.474 34.5516 38.3451 43.3223 45.2447 42.5037C46.1802 42.3867 47.9344 41.4512 48.636 40.5156C49.5716 39.2293 49.8054 38.0599 49.6885 36.0718C49.3377 33.6161 46.2972 31.0433 43.2567 31.8619Z" fill="#E6A443"/>
</g>
<defs>
<clipPath id="clip0_99_112">
<rect width="87.4727" height="96.3603" fill="white" transform="translate(0.338867 0.0537109)"/>
</clipPath>
</defs>
</svg>
