<svg width="24" height="24" viewBox="0 0 24 24" fill="none" xmlns="http://www.w3.org/2000/svg">
<path d="M19.3846 24H4.61538C3.39131 24 2.21737 23.5137 1.35181 22.6482C0.486262 21.7826 0 20.6087 0 19.3846V6.46151C0 5.23744 0.486262 4.0635 1.35181 3.19795C2.21737 2.33239 3.39131 1.84613 4.61538 1.84613H19.3846C20.6087 1.84613 21.7826 2.33239 22.6482 3.19795C23.5137 4.0635 24 5.23744 24 6.46151V19.3846C24 20.6087 23.5137 21.7826 22.6482 22.6482C21.7826 23.5137 20.6087 24 19.3846 24ZM4.61538 3.69228C3.88094 3.69228 3.17657 3.98404 2.65724 4.50337C2.13791 5.0227 1.84615 5.72707 1.84615 6.46151V19.3846C1.84615 20.119 2.13791 20.8234 2.65724 21.3427C3.17657 21.8621 3.88094 22.1538 4.61538 22.1538H19.3846C20.1191 22.1538 20.8234 21.8621 21.3428 21.3427C21.8621 20.8234 22.1538 20.119 22.1538 19.3846V6.46151C22.1538 5.72707 21.8621 5.0227 21.3428 4.50337C20.8234 3.98404 20.1191 3.69228 19.3846 3.69228H4.61538Z" fill="#655D51"/>
<path d="M19.3849 20.3077H15.6926C15.4478 20.3077 15.213 20.2104 15.0399 20.0373C14.8668 19.8642 14.7695 19.6294 14.7695 19.3846V15.6923C14.7695 15.4475 14.8668 15.2127 15.0399 15.0396C15.213 14.8665 15.4478 14.7692 15.6926 14.7692H19.3849C19.6297 14.7692 19.8645 14.8665 20.0376 15.0396C20.2107 15.2127 20.308 15.4475 20.308 15.6923V19.3846C20.308 19.6294 20.2107 19.8642 20.0376 20.0373C19.8645 20.2104 19.6297 20.3077 19.3849 20.3077ZM16.6157 18.4615H18.4618V16.6154H16.6157V18.4615Z" fill="#655D51"/>
<path d="M23.0769 9.2308H0.923077C0.678262 9.2308 0.443473 9.13354 0.270363 8.96043C0.0972524 8.78732 0 8.55254 0 8.30772C0 8.06291 0.0972524 7.82812 0.270363 7.65501C0.443473 7.4819 0.678262 7.38464 0.923077 7.38464H23.0769C23.3217 7.38464 23.5565 7.4819 23.7296 7.65501C23.9027 7.82812 24 8.06291 24 8.30772C24 8.55254 23.9027 8.78732 23.7296 8.96043C23.5565 9.13354 23.3217 9.2308 23.0769 9.2308Z" fill="#655D51"/>
<path d="M7.38499 5.53846C7.14018 5.53846 6.90539 5.44121 6.73228 5.2681C6.55917 5.09499 6.46191 4.8602 6.46191 4.61538V0.923077C6.46191 0.678262 6.55917 0.443473 6.73228 0.270363C6.90539 0.0972524 7.14018 0 7.38499 0C7.62981 0 7.86459 0.0972524 8.0377 0.270363C8.21082 0.443473 8.30807 0.678262 8.30807 0.923077V4.61538C8.30807 4.8602 8.21082 5.09499 8.0377 5.2681C7.86459 5.44121 7.62981 5.53846 7.38499 5.53846Z" fill="#655D51"/>
<path d="M16.6155 5.53846C16.3706 5.53846 16.1359 5.44121 15.9627 5.2681C15.7896 5.09499 15.6924 4.8602 15.6924 4.61538V0.923077C15.6924 0.678262 15.7896 0.443473 15.9627 0.270363C16.1359 0.0972524 16.3706 0 16.6155 0C16.8603 0 17.0951 0.0972524 17.2682 0.270363C17.4413 0.443473 17.5385 0.678262 17.5385 0.923077V4.61538C17.5385 4.8602 17.4413 5.09499 17.2682 5.2681C17.0951 5.44121 16.8603 5.53846 16.6155 5.53846Z" fill="#655D51"/>
</svg>
