<svg width="27" height="27" viewBox="0 0 27 27" fill="none" xmlns="http://www.w3.org/2000/svg">
<path d="M12.975 27C9.775 27 6.58125 27 3.38125 27C1.34375 27 0 25.65 0 23.6063C0 19.5438 0 15.4813 0 11.4188C0 11.1188 -9.54606e-08 10.8125 0.0062499 10.5125C0.0062499 10.1375 0.18125 9.86254 0.46875 9.63754C3.75 7.09379 7.0375 4.55004 10.3125 1.99379C10.975 1.47504 11.6687 1.08129 12.5188 0.97504C13.5625 0.85004 14.5125 1.08754 15.3438 1.71879C17.6938 3.51254 20.0312 5.32504 22.375 7.13129C23.4 7.91879 24.4125 8.71879 25.4438 9.49379C25.8563 9.80629 26.0063 10.1688 26 10.6938C25.9813 13.1625 26.0063 15.6313 26.0125 18.1C26.0188 19.9563 26.0125 21.8063 26.0125 23.6625C26.0125 25.6188 24.6438 26.9875 22.6938 26.9875C19.45 27 16.2125 27 12.975 27ZM24.0063 12.4938C23.8813 12.5813 23.8063 12.6375 23.7313 12.6875C20.9813 14.8188 18.2375 16.9563 15.4937 19.0875C13.9312 20.3 12.0813 20.3063 10.5188 19.1C7.76875 16.975 5.0125 14.85 2.25625 12.725C2.1875 12.6688 2.1125 12.625 2 12.55C2 12.7 2 12.8 2 12.9C2 16.475 2 20.0438 2 23.6188C2 24.5438 2.45 24.9938 3.38125 24.9938C9.80625 24.9938 16.2375 24.9938 22.6625 24.9938C23.5438 24.9938 24.0063 24.525 24.0063 23.6438C24.0063 20.3125 24.0063 16.975 24.0063 13.6438C24.0063 13.2813 24.0063 12.9188 24.0063 12.4938ZM2.65 10.4875C2.71875 10.55 2.74375 10.5813 2.78125 10.6063C5.8 12.9313 8.81875 15.2625 11.8375 17.5813C12.5687 18.1438 13.4625 18.125 14.2062 17.55C17.1812 15.2563 20.1562 12.9563 23.1313 10.6625C23.2 10.6063 23.2687 10.5438 23.3438 10.4813C23.2812 10.425 23.2437 10.3938 23.2062 10.3625C20.1937 8.04379 17.1875 5.71879 14.175 3.40629C13.4312 2.83754 12.55 2.86879 11.7812 3.45629C9.2125 5.43129 6.65 7.40629 4.0875 9.38129C3.6125 9.74379 3.14375 10.1063 2.65 10.4875Z" fill="#E7BA77"/>
</svg>
