<svg width="40" height="26" viewBox="0 0 40 26" fill="none" xmlns="http://www.w3.org/2000/svg">
<path d="M28 18.0001L33.0301 13.1061L28 8" stroke="#E7BA77" stroke-width="2"/>
<path fill-rule="evenodd" clip-rule="evenodd" d="M37.9999 13C37.9999 19.0751 33.0751 24 26.9999 24C22.5624 24 18.7386 21.3724 16.9996 17.5882H14.8328C16.6874 22.5038 21.4353 26 26.9999 26C34.1796 26 39.9999 20.1797 39.9999 13C39.9999 5.8203 34.1796 0 26.9999 0C21.4353 0 16.6874 3.49619 14.8328 8.41177H16.9996C18.7386 4.62759 22.5624 2 26.9999 2C33.0751 2 37.9999 6.92487 37.9999 13Z" fill="#F4BF6E"/>
<path d="M32 12H0V14H32V12Z" fill="#E7BA77"/>
</svg>
