<svg width="22" height="26" viewBox="0 0 22 26" fill="none" xmlns="http://www.w3.org/2000/svg">
<path d="M11 26.0001C10.8684 26.0009 10.7379 25.9756 10.6161 25.9259C10.4942 25.8761 10.3834 25.8028 10.29 25.7101L3.21998 18.7101C2.19924 17.6961 1.38915 16.4902 0.836352 15.1618C0.283554 13.8335 -0.0010376 12.4089 -0.0010376 10.9701C-0.0010376 9.53131 0.283554 8.10673 0.836352 6.77837C1.38915 5.45001 2.19924 4.24411 3.21998 3.2301C5.29201 1.18308 8.08731 0.0351562 11 0.0351562C13.9126 0.0351562 16.7079 1.18308 18.78 3.2301C19.8007 4.24411 20.6108 5.45001 21.1636 6.77837C21.7164 8.10673 22.001 9.53131 22.001 10.9701C22.001 12.4089 21.7164 13.8335 21.1636 15.1618C20.6108 16.4902 19.8007 17.6961 18.78 18.7101L11.71 25.7101C11.6165 25.8028 11.5057 25.8761 11.3839 25.9259C11.262 25.9756 11.1316 26.0009 11 26.0001ZM11 2.0001C8.61324 1.99424 6.32191 2.93667 4.62998 4.6201C3.7967 5.44818 3.1354 6.43288 2.68413 7.51752C2.23287 8.60216 2.00056 9.76533 2.00056 10.9401C2.00056 12.1149 2.23287 13.278 2.68413 14.3627C3.1354 15.4473 3.7967 16.432 4.62998 17.2601L11 23.5901L17.37 17.2601C18.2033 16.432 18.8646 15.4473 19.3158 14.3627C19.7671 13.278 19.9994 12.1149 19.9994 10.9401C19.9994 9.76533 19.7671 8.60216 19.3158 7.51752C18.8646 6.43288 18.2033 5.44818 17.37 4.6201C15.678 2.93667 13.3867 1.99424 11 2.0001Z" fill="#E7BA77"/>
<path d="M11 16C10.0111 16 9.0444 15.7068 8.22215 15.1574C7.39991 14.6079 6.75904 13.8271 6.3806 12.9134C6.00217 11.9998 5.90315 10.9945 6.09608 10.0246C6.289 9.05465 6.76521 8.16373 7.46447 7.46447C8.16373 6.76521 9.05465 6.289 10.0246 6.09608C10.9945 5.90315 11.9998 6.00217 12.9134 6.3806C13.8271 6.75904 14.6079 7.39991 15.1574 8.22215C15.7068 9.0444 16 10.0111 16 11C16 12.3261 15.4732 13.5979 14.5355 14.5355C13.5979 15.4732 12.3261 16 11 16ZM11 8C10.4067 8 9.82664 8.17595 9.33329 8.50559C8.83994 8.83524 8.45543 9.30377 8.22836 9.85195C8.0013 10.4001 7.94189 11.0033 8.05765 11.5853C8.1734 12.1672 8.45912 12.7018 8.87868 13.1213C9.29824 13.5409 9.83279 13.8266 10.4147 13.9424C10.9967 14.0581 11.5999 13.9987 12.1481 13.7716C12.6962 13.5446 13.1648 13.1601 13.4944 12.6667C13.8241 12.1734 14 11.5933 14 11C14 10.2044 13.6839 9.44129 13.1213 8.87868C12.5587 8.31607 11.7957 8 11 8Z" fill="#E7BA77"/>
</svg>
