<svg width="98" height="80" viewBox="0 0 98 80" fill="none" xmlns="http://www.w3.org/2000/svg">
<path d="M45.1088 43.7148C44.7959 43.5043 44.5246 43.2939 44.2325 43.1465C36.9926 39.1265 29.2519 36.4957 21.1356 34.9803C15.9404 33.9911 10.6826 33.6122 5.4039 33.5491C4.36068 33.528 3.31747 33.6753 2.27425 33.6753C0.95979 33.6753 0.0208929 32.8124 2.85493e-05 31.6969C-0.0208358 30.5814 0.938926 29.7185 2.23252 29.6764C9.86888 29.4659 17.4218 29.95 24.8704 31.739C25.8927 31.9916 26.2892 31.6969 26.6856 30.7288C30.0447 22.8361 35.9702 18.0584 44.3577 16.6903C54.8734 14.9645 65.076 21.0892 68.9359 31.2549C69.3324 32.3073 69.7496 32.5178 70.8137 32.2652C75.8629 31.0024 80.9956 30.0552 86.2116 29.8869C89.3622 29.7816 92.5336 29.7395 95.6841 29.6974C96.9777 29.6764 97.9374 30.5604 97.9792 31.6548C98.0209 32.7914 97.0194 33.6753 95.6632 33.6753C93.5142 33.6964 91.3652 33.6333 89.2161 33.6964C79.9941 33.9069 71.085 35.7169 62.4888 39.0634C55.2906 41.8627 48.6766 45.6511 42.7929 50.7024C42.3965 51.0392 42.0418 51.397 41.6036 51.8179C41.9166 52.0915 42.1461 52.302 42.3965 52.4914C44.316 54.0489 46.2772 55.5643 48.1759 57.1429C48.7601 57.648 49.1356 57.7322 49.7407 57.1639C57.8778 49.629 67.5589 45.2512 78.2623 42.9571C82.9985 41.9469 87.8182 41.6522 92.6379 41.547C93.7437 41.5259 94.8495 41.6311 95.9762 41.6943C97.1446 41.7574 98.0835 42.7677 97.9792 43.82C97.8748 44.8934 96.8108 45.7143 95.6632 45.6511C80.6826 44.9355 66.9538 48.5556 54.9151 57.8585C53.9762 58.5741 53.0999 59.3949 52.2653 60.2157C52.0775 60.3841 51.9732 60.9103 52.0984 61.0787C53.8093 63.5833 55.5619 66.0668 57.3145 68.5293C57.3353 68.5504 57.3771 68.5504 57.5231 68.5714C57.69 68.4241 57.9404 68.2347 58.1282 68.0032C63.9285 61.226 71.3562 57.206 79.8271 54.996C84.5008 53.7753 89.2578 53.3333 94.0775 53.4807C94.8495 53.5017 95.6006 53.5859 96.3517 53.7122C97.3115 53.8595 98.0418 54.7856 97.9792 55.7327C97.9166 56.7009 97.1237 57.4796 96.1014 57.5007C93.9523 57.5217 91.7824 57.3744 89.6334 57.5217C79.2847 58.1952 70.0209 61.5206 62.5097 69.0345C59.8599 71.6864 57.8778 74.8014 56.5216 78.3162C56.0418 79.558 55.228 80.1473 54.31 80C53.0164 79.7895 52.307 78.5898 52.7869 77.2007C53.2251 75.959 53.7884 74.7382 54.3935 73.5596C54.7273 72.9282 54.7064 72.423 54.3935 71.8127C50.7631 64.5093 45.2757 58.9739 38.4948 54.6803C31.5052 50.2605 23.8897 47.5664 15.7526 46.3457C11.2877 45.6722 6.78095 45.3144 2.25338 45.6722C1.02238 45.7774 0.10435 44.9987 0.0208929 43.8411C-0.0625646 42.6204 0.709417 41.7995 1.96128 41.7364C11.4754 41.2523 20.7392 42.4941 29.6483 45.9458C32.1729 46.935 34.5932 48.1557 37.0552 49.3133C37.5351 49.5449 37.9315 49.7553 38.4739 49.3133C40.5187 47.5875 42.626 45.9037 44.6915 44.1989C44.8793 44.0516 44.9419 43.9253 45.1088 43.7148ZM65.5976 33.5491C65.4307 33.0439 65.3473 32.7072 65.2221 32.3704C62.0924 24.2463 53.6424 19.2791 45.1088 20.6051C38.2862 21.6575 33.4874 25.4459 30.5455 31.6759C29.9613 32.9387 30.003 33.0229 31.3175 33.4017C37.2638 35.2118 42.9181 37.7164 48.2593 40.8945C48.8227 41.2313 49.24 41.1892 49.7824 40.8945C51.7228 39.8001 53.6423 38.6425 55.6662 37.7374C58.6081 36.4115 61.6334 35.2749 64.6379 34.0542C64.9717 33.949 65.2847 33.7385 65.5976 33.5491Z" fill="#D79E49"/>
<path d="M5.86293 53.4807C16.5038 53.649 26.2892 56.4273 34.8018 63.1202C39.4754 66.7824 43.0224 71.3496 45.1297 76.9692C45.6304 78.2952 45.2549 79.3686 44.1073 79.8316C43.0641 80.2526 42.0418 79.7895 41.5619 78.5267C38.62 70.8866 33.0701 65.7722 26.0179 62.131C21.1148 59.6054 15.8778 58.09 10.3905 57.7111C7.61554 57.5217 4.84057 57.5848 2.06561 57.5217C0.855477 57.5007 0.146089 56.8272 0.10436 55.6696C0.0626311 54.5751 0.792884 53.7753 1.94043 53.6701C2.83759 53.5859 3.73476 53.5228 4.63193 53.4807C5.02835 53.4596 5.44564 53.4807 5.86293 53.4807Z" fill="#D79E49"/>
<path d="M22.7839 25.5091C22.5753 25.4459 22.1789 25.3828 21.8659 25.1933C19.7586 23.9726 17.6513 22.7519 15.544 21.5101C14.7094 21.005 14.3338 20.2683 14.5216 19.3002C14.6885 18.4372 15.2727 17.9321 16.0864 17.8269C16.5246 17.7637 17.0671 17.89 17.4635 18.1215C19.6125 19.3423 21.7407 20.584 23.8897 21.8469C24.7452 22.352 25.0581 23.1307 24.8078 24.0779C24.5365 24.9829 23.8897 25.4249 22.7839 25.5091Z" fill="#D79E49"/>
<path d="M70.4173 23.4254C70.7929 22.8992 71.085 22.1836 71.5857 21.8679C73.7139 20.5419 75.8838 19.3002 78.0537 18.0584C79.0552 17.4901 80.161 17.8058 80.7034 18.6687C81.2876 19.6159 81.0581 20.7945 80.0358 21.4049C77.8659 22.7308 75.6751 24.0147 73.4635 25.2354C72.1282 25.9931 70.6677 25.0671 70.4173 23.4254Z" fill="#D79E49"/>
<path d="M27.4576 7.0087C27.395 5.83006 27.7705 5.19865 28.5842 4.90399C29.4814 4.58829 30.3369 4.71457 30.9002 5.5775C31.5679 6.62985 32.1938 7.7243 32.8197 8.81875C33.4456 9.9132 34.0924 10.9866 34.6766 12.1021C35.3026 13.2597 35.0522 14.4173 34.1342 14.9645C33.1118 15.5749 32.006 15.2592 31.3175 14.0805C30.1073 12.039 28.9598 9.95529 27.7914 7.89268C27.5828 7.55593 27.4993 7.13498 27.4576 7.0087Z" fill="#D79E49"/>
<path d="M62.4054 15.3644C60.8823 15.175 59.9434 13.7648 60.6528 12.4388C61.8629 10.1237 63.1982 7.85057 64.5544 5.61958C65.0969 4.71455 66.2653 4.52513 67.1416 5.00921C67.9553 5.47225 68.3726 6.54565 67.8719 7.49277C66.5991 9.87109 65.243 12.1863 63.845 14.4804C63.5529 14.9224 62.8853 15.0908 62.4054 15.3644Z" fill="#D79E49"/>
<path d="M49.6364 5.6827C49.6364 6.98762 49.6573 8.2715 49.6364 9.57642C49.6155 10.713 48.8018 11.5548 47.7586 11.5759C46.7362 11.5969 45.8599 10.734 45.8391 9.61851C45.8182 7.02972 45.8182 4.41988 45.8391 1.83109C45.8599 0.715591 46.6319 -1.00359e-05 47.696 -0.0210571C48.8018 -0.0210571 49.5947 0.736638 49.6155 1.87318C49.6573 3.15705 49.6364 4.41988 49.6364 5.6827Z" fill="#D79E49"/>
</svg>
