<svg width="103" height="75" viewBox="0 0 103 75" fill="none" xmlns="http://www.w3.org/2000/svg">
<path d="M101.268 6.43489C93.3626 14.6762 86.5486 23.2939 84.7039 34.4705C87.678 35.5618 90.652 36.2768 93.212 37.7068C100.779 41.8463 104.129 49.4479 102.661 58.2538C101.344 66.2317 94.7178 73.0807 86.9251 74.5859C74.4642 76.9943 63.5844 69.3175 61.6268 56.5603C60.121 46.7008 61.7398 37.18 65.8432 28.1484C71.0007 16.8212 78.7558 7.63911 89.1086 0.639608C90.2756 -0.150658 91.0662 -0.188289 92.2332 0.639608C95.1319 2.59646 98.1813 4.47804 101.268 6.43489Z" fill="#FDE2B9"/>
<path d="M40.1311 6.43464C32.1877 14.676 25.4114 23.2936 23.4914 34.9218C28.009 35.4487 31.9242 36.954 35.237 39.814C41.4863 45.2706 43.1051 52.2324 41.0346 59.9469C38.9264 67.7743 33.6559 72.8922 25.6373 74.5104C12.574 77.1823 1.39312 68.3012 0.226086 54.7161C-1.24212 38.0076 4.74363 23.8958 15.4728 11.5149C19.2374 7.18727 23.5291 3.46173 28.3854 0.375934C28.8748 0.0748799 29.7784 -0.15091 30.1548 0.0748799C33.4677 2.10699 36.7053 4.252 40.1311 6.43464Z" fill="#FDE2B9"/>
</svg>
