<svg width="1019" height="387" viewBox="0 0 1019 387" fill="none" xmlns="http://www.w3.org/2000/svg">
<path d="M69.4999 131L70.099 131.801L69.4999 131ZM331 318.5L330.417 317.687L331 318.5ZM758 381L758.246 380.031L758 381ZM181.549 5.46203C182.093 5.55826 182.612 5.1954 182.708 4.65156C182.804 4.10772 182.441 3.58885 181.897 3.49262L181.549 5.46203ZM192.538 6.42876C192.022 6.23191 191.444 6.49064 191.247 7.00665C191.051 7.52267 191.309 8.10055 191.825 8.2974L192.538 6.42876ZM197.656 10.9262C198.145 11.1831 198.75 10.995 199.006 10.5061C199.263 10.0172 199.075 9.41267 198.586 9.15577L197.656 10.9262ZM207.775 15.3118C207.353 14.9556 206.722 15.0089 206.366 15.4309C206.01 15.853 206.063 16.4839 206.485 16.8401L207.775 15.3118ZM211.049 21.2836C211.416 21.6966 212.048 21.7341 212.461 21.3674C212.874 21.0007 212.912 20.3686 212.545 19.9556L211.049 21.2836ZM218.797 29.1168C218.547 28.6241 217.946 28.4271 217.453 28.6767C216.96 28.9263 216.763 29.528 217.013 30.0207L218.797 29.1168ZM219.43 35.8988C219.6 36.4244 220.163 36.7132 220.689 36.5438C221.214 36.3743 221.503 35.8108 221.334 35.2852L219.43 35.8988ZM223.39 46.1701C223.353 45.619 222.877 45.2021 222.326 45.2389C221.775 45.2756 221.358 45.7522 221.395 46.3032L223.39 46.1701ZM221.35 52.4869C221.293 53.0363 221.693 53.5276 222.242 53.5843C222.792 53.641 223.283 53.2416 223.34 52.6922L221.35 52.4869ZM220.17 62.7638C220.443 62.2839 220.276 61.6733 219.796 61.4C219.316 61.1267 218.705 61.2942 218.432 61.7741L220.17 62.7638ZM214.924 66.4936C214.546 66.8967 214.567 67.5295 214.97 67.907C215.373 68.2845 216.006 68.2636 216.384 67.8604L214.924 66.4936ZM208.189 74.3874C208.659 74.0976 208.805 73.4816 208.515 73.0114C208.226 72.5413 207.61 72.3951 207.139 72.6849L208.189 74.3874ZM201.855 75.5827C201.359 75.8263 201.155 76.4256 201.398 76.9213C201.642 77.4169 202.241 77.6212 202.737 77.3775L201.855 75.5827ZM193.23 81.4352C193.747 81.2406 194.008 80.6638 193.814 80.1469C193.619 79.6301 193.042 79.3688 192.526 79.5634L193.23 81.4352ZM186.755 81.6163C186.231 81.7931 185.951 82.3605 186.127 82.8837C186.304 83.407 186.871 83.6879 187.395 83.5111L186.755 81.6163ZM177.618 86.6143C178.146 86.4547 178.446 85.8967 178.286 85.368C178.126 84.8393 177.569 84.54 177.04 84.6995L177.618 86.6143ZM171.154 86.4421C170.624 86.5967 170.319 87.1518 170.474 87.682C170.628 88.2122 171.184 88.5167 171.714 88.3622L171.154 86.4421ZM161.893 91.1947C162.424 91.042 162.731 90.488 162.578 89.9572C162.425 89.4265 161.871 89.12 161.34 89.2727L161.893 91.1947ZM155.438 90.9806C154.907 91.1352 154.603 91.6904 154.758 92.2206C154.912 92.7508 155.467 93.0553 155.997 92.9007L155.438 90.9806ZM146.199 95.8226C146.727 95.6608 147.024 95.1015 146.863 94.5735C146.701 94.0454 146.141 93.7485 145.613 93.9103L146.199 95.8226ZM139.738 95.748C139.212 95.9162 138.922 96.4789 139.09 97.005C139.258 97.5311 139.821 97.8212 140.347 97.653L139.738 95.748ZM130.665 100.88C131.186 100.698 131.462 100.128 131.28 99.6066C131.098 99.085 130.528 98.8094 130.007 98.9911L130.665 100.88ZM124.21 101.069C123.692 101.26 123.427 101.835 123.618 102.353C123.81 102.871 124.385 103.136 124.903 102.945L124.21 101.069ZM115.387 106.646C115.898 106.436 116.142 105.852 115.933 105.341C115.723 104.83 115.139 104.585 114.628 104.795L115.387 106.646ZM108.955 107.2C108.449 107.421 108.219 108.011 108.44 108.517C108.662 109.023 109.252 109.253 109.758 109.032L108.955 107.2ZM100.52 113.318C101.016 113.075 101.22 112.476 100.976 111.98C100.733 111.484 100.134 111.28 99.6379 111.524L100.52 113.318ZM94.136 114.325C93.6475 114.582 93.4604 115.187 93.718 115.676C93.9757 116.164 94.5806 116.351 95.0691 116.094L94.136 114.325ZM86.1911 121.065C86.6659 120.783 86.822 120.169 86.5399 119.694C86.2578 119.219 85.6442 119.063 85.1694 119.345L86.1911 121.065ZM79.9126 122.584C79.4472 122.882 79.3109 123.5 79.6082 123.965C79.9056 124.431 80.5239 124.567 80.9893 124.27L79.9126 122.584ZM72.5719 129.984C73.0198 129.661 73.121 129.036 72.798 128.588C72.4749 128.14 71.8499 128.039 71.402 128.362L72.5719 129.984ZM66.4306 132.083C65.9946 132.422 65.9158 133.05 66.2547 133.486C66.5936 133.922 67.2218 134.001 67.6579 133.662L66.4306 132.083ZM59.7982 140.163C60.2129 139.799 60.2534 139.167 59.8886 138.752C59.5239 138.337 58.892 138.297 58.4773 138.662L59.7982 140.163ZM53.9023 142.835C53.5011 143.215 53.4836 143.848 53.8632 144.249C54.2427 144.65 54.8756 144.668 55.2768 144.288L53.9023 142.835ZM48.0808 151.519C48.4585 151.116 48.438 150.483 48.035 150.105C47.632 149.727 46.9992 149.748 46.6215 150.151L48.0808 151.519ZM42.4684 154.745C42.1054 155.161 42.1486 155.793 42.5648 156.156C42.9811 156.519 43.6128 156.475 43.9758 156.059L42.4684 154.745ZM37.5029 163.944C37.8405 163.507 37.7599 162.879 37.3228 162.541C36.8857 162.204 36.2577 162.284 35.9201 162.721L37.5029 163.944ZM32.2221 167.69C31.9002 168.139 32.0032 168.763 32.452 169.085C32.9008 169.407 33.5256 169.304 33.8474 168.855L32.2221 167.69ZM28.1513 177.317C28.446 176.85 28.3063 176.233 27.8392 175.938C27.3721 175.643 26.7545 175.783 26.4598 176.25L28.1513 177.317ZM23.2479 181.547C22.97 182.024 23.1316 182.637 23.6089 182.914C24.0862 183.192 24.6983 183.031 24.9763 182.554L23.2479 181.547ZM20.1088 191.515C20.3579 191.022 20.1601 190.42 19.6672 190.171C19.1742 189.922 18.5727 190.12 18.3237 190.613L20.1088 191.515ZM15.6295 196.194C15.3984 196.695 15.6177 197.289 16.1193 197.52C16.6209 197.752 17.2148 197.532 17.4459 197.031L15.6295 196.194ZM13.463 206.413C13.6632 205.898 13.4083 205.318 12.8936 205.118C12.3789 204.918 11.7993 205.173 11.599 205.687L13.463 206.413ZM9.45841 211.506C9.27741 212.028 9.55366 212.598 10.0754 212.779C10.5972 212.96 11.1669 212.684 11.3479 212.162L9.45841 211.506ZM8.31002 221.897C8.4577 221.365 8.14601 220.814 7.61383 220.666C7.08166 220.519 6.53053 220.83 6.38285 221.363L8.31002 221.897ZM4.84343 227.359C4.71658 227.897 5.0495 228.435 5.58703 228.562C6.12455 228.689 6.66312 228.356 6.78996 227.818L4.84343 227.359ZM4.77948 237.822C4.86988 237.277 4.50148 236.762 3.95664 236.672C3.41181 236.581 2.89685 236.95 2.80646 237.494L4.77948 237.822ZM1.9199 243.629C1.85245 244.177 2.24215 244.676 2.7903 244.743C3.33845 244.811 3.83749 244.421 3.90493 243.873L1.9199 243.629ZM3.02878 254.021C3.05587 253.469 2.63065 253 2.07903 252.973C1.52741 252.946 1.05827 253.371 1.03119 253.923L3.02878 254.021ZM0.869724 260.126C0.868259 260.679 1.31478 261.128 1.86707 261.129C2.41935 261.131 2.86825 260.684 2.86972 260.132L0.869724 260.126ZM3.25447 270.299C3.21069 269.748 2.72889 269.338 2.17834 269.381C1.62779 269.425 1.21698 269.907 1.26077 270.458L3.25447 270.299ZM1.91353 276.63C1.98611 277.177 2.48878 277.562 3.03627 277.49C3.58377 277.417 3.96876 276.915 3.89619 276.367L1.91353 276.63ZM5.69662 286.378C5.57315 285.84 5.03668 285.503 4.49837 285.627C3.96007 285.75 3.62378 286.287 3.74725 286.825L5.69662 286.378ZM5.31745 292.841C5.47311 293.37 6.02886 293.674 6.55875 293.518C7.08865 293.363 7.39203 292.807 7.23637 292.277L5.31745 292.841ZM10.6085 301.847C10.3968 301.337 9.81163 301.095 9.30153 301.307C8.79143 301.519 8.54952 302.104 8.76122 302.614L10.6085 301.847ZM11.3426 308.278C11.589 308.772 12.1894 308.973 12.6837 308.727C13.178 308.48 13.379 307.88 13.1326 307.386L11.3426 308.278ZM18.1918 316.166C17.8871 315.705 17.2666 315.579 16.806 315.884C16.3454 316.188 16.219 316.809 16.5237 317.269L18.1918 316.166ZM20.1584 322.332C20.4975 322.768 21.1258 322.847 21.5617 322.508C21.9976 322.168 22.076 321.54 21.7369 321.104L20.1584 322.332ZM28.4606 328.667C28.0672 328.279 27.434 328.284 27.0465 328.677C26.6589 329.071 26.6636 329.704 27.0571 330.091L28.4606 328.667ZM31.5063 334.199C31.919 334.566 32.5511 334.529 32.9181 334.116C33.2851 333.704 33.248 333.072 32.8353 332.705L31.5063 334.199ZM40.2913 339.08C39.8645 338.73 39.2344 338.792 38.8838 339.218C38.5333 339.645 38.5951 340.275 39.0219 340.626L40.2913 339.08ZM43.6345 344.32C44.0699 344.66 44.6983 344.582 45.0381 344.147C45.3779 343.712 45.3005 343.083 44.8651 342.743L43.6345 344.32ZM52.7015 348.593C52.2518 348.272 51.6273 348.377 51.3068 348.827C50.9862 349.276 51.091 349.901 51.5407 350.221L52.7015 348.593ZM56.4198 353.599C56.8781 353.907 57.4995 353.786 57.8076 353.327C58.1156 352.869 57.9938 352.248 57.5354 351.939L56.4198 353.599ZM65.7633 357.193C65.2908 356.907 64.6759 357.058 64.3899 357.53C64.104 358.003 64.2551 358.618 64.7276 358.904L65.7633 357.193ZM69.8484 361.901C70.3292 362.173 70.9393 362.003 71.2111 361.523C71.483 361.042 71.3137 360.432 70.8329 360.16L69.8484 361.901ZM79.4515 364.75C78.9575 364.503 78.3568 364.703 78.1098 365.197C77.8628 365.691 78.063 366.292 78.5569 366.539L79.4515 364.75ZM83.9062 369.109C84.4077 369.341 85.0017 369.122 85.2331 368.62C85.4644 368.119 85.2454 367.525 84.7439 367.293L83.9062 369.109ZM93.7146 371.144C93.2014 370.94 92.6199 371.191 92.4158 371.704C92.2117 372.217 92.4622 372.798 92.9754 373.003L93.7146 371.144ZM98.5305 375.107C99.0501 375.294 99.623 375.025 99.8101 374.505C99.9972 373.985 99.7277 373.412 99.208 373.225L98.5305 375.107ZM108.477 376.276C107.948 376.118 107.391 376.419 107.233 376.948C107.075 377.478 107.376 378.035 107.905 378.193L108.477 376.276ZM113.628 379.798C114.163 379.938 114.709 379.619 114.849 379.084C114.99 378.55 114.67 378.004 114.136 377.863L113.628 379.798ZM123.646 380.076C123.105 379.966 122.577 380.315 122.467 380.857C122.357 381.398 122.707 381.926 123.248 382.036L123.646 380.076ZM129.063 383.117C129.607 383.209 130.123 382.842 130.215 382.297C130.307 381.753 129.94 381.237 129.396 381.145L129.063 383.117ZM139.073 382.502C138.524 382.441 138.029 382.836 137.968 383.384C137.906 383.933 138.301 384.428 138.85 384.49L139.073 382.502ZM144.737 385.053C145.288 385.096 145.77 384.685 145.813 384.135C145.857 383.584 145.446 383.102 144.895 383.059L144.737 385.053ZM154.65 383.567C154.097 383.553 153.638 383.99 153.624 384.542C153.61 385.094 154.047 385.553 154.599 385.567L154.65 383.567ZM160.554 385.624C161.106 385.621 161.551 385.17 161.548 384.618C161.545 384.066 161.094 383.621 160.542 383.624L160.554 385.624ZM170.315 383.314C169.763 383.345 169.342 383.818 169.373 384.369C169.405 384.92 169.877 385.342 170.429 385.31L170.315 383.314ZM176.299 384.888C176.85 384.841 177.257 384.356 177.209 383.806C177.162 383.256 176.677 382.848 176.127 382.896L176.299 384.888ZM185.84 381.82C185.292 381.894 184.908 382.397 184.982 382.945C185.056 383.492 185.559 383.876 186.106 383.802L185.84 381.82ZM192.003 382.925C192.548 382.836 192.918 382.322 192.829 381.777C192.74 381.232 192.226 380.862 191.681 380.951L192.003 382.925ZM201.296 379.165C200.755 379.278 200.408 379.808 200.521 380.348C200.634 380.889 201.163 381.236 201.704 381.123L201.296 379.165ZM207.441 379.853C207.979 379.727 208.313 379.189 208.187 378.651C208.06 378.114 207.522 377.78 206.985 377.906L207.441 379.853ZM216.472 375.478C215.94 375.625 215.628 376.176 215.776 376.709C215.923 377.241 216.474 377.553 217.007 377.405L216.472 375.478ZM222.693 375.758C223.222 375.598 223.521 375.04 223.361 374.511C223.201 373.983 222.643 373.683 222.115 373.843L222.693 375.758ZM231.412 370.847C230.89 371.026 230.611 371.594 230.79 372.117C230.969 372.639 231.537 372.918 232.06 372.739L231.412 370.847ZM237.701 370.741C238.22 370.551 238.486 369.977 238.297 369.458C238.107 368.94 237.532 368.673 237.014 368.863L237.701 370.741ZM246.1 365.365C245.587 365.572 245.34 366.155 245.547 366.667C245.753 367.179 246.336 367.427 246.848 367.22L246.1 365.365ZM252.322 364.949C252.83 364.733 253.067 364.145 252.85 363.637C252.634 363.129 252.046 362.893 251.538 363.109L252.322 364.949ZM260.503 359.13C260.001 359.361 259.783 359.955 260.014 360.457C260.246 360.958 260.84 361.177 261.341 360.945L260.503 359.13ZM266.655 358.437C267.152 358.197 267.361 357.599 267.121 357.101C266.881 356.604 266.283 356.395 265.785 356.635L266.655 358.437ZM274.604 352.23C274.113 352.483 273.921 353.086 274.174 353.577C274.428 354.068 275.031 354.26 275.522 354.007L274.604 352.23ZM280.688 351.287C281.175 351.026 281.358 350.42 281.097 349.933C280.836 349.446 280.23 349.263 279.743 349.524L280.688 351.287ZM288.392 344.747C287.912 345.02 287.744 345.63 288.017 346.111C288.29 346.591 288.9 346.759 289.38 346.486L288.392 344.747ZM294.423 343.573C294.899 343.293 295.059 342.68 294.779 342.204C294.499 341.728 293.887 341.568 293.41 341.848L294.423 343.573ZM301.879 336.746C301.409 337.037 301.264 337.653 301.554 338.123C301.844 338.593 302.46 338.738 302.93 338.448L301.879 336.746ZM307.865 335.357C308.331 335.061 308.469 334.443 308.173 333.977C307.877 333.51 307.259 333.372 306.793 333.669L307.865 335.357ZM315.067 328.292C314.607 328.597 314.482 329.218 314.788 329.678C315.093 330.138 315.714 330.263 316.174 329.958L315.067 328.292ZM321.028 326.692C321.485 326.381 321.603 325.759 321.292 325.302C320.981 324.846 320.359 324.728 319.902 325.039L321.028 326.692ZM327.974 319.429C327.524 319.748 327.417 320.372 327.737 320.823C328.056 321.274 328.68 321.38 329.131 321.061L327.974 319.429ZM333.975 317.557C334.417 317.226 334.506 316.599 334.174 316.157C333.843 315.716 333.216 315.626 332.774 315.958L333.975 317.557ZM340.317 309.87C339.899 310.232 339.854 310.863 340.215 311.281C340.576 311.699 341.208 311.744 341.626 311.383L340.317 309.87ZM346.01 307.438C346.414 307.06 346.435 306.428 346.058 306.024C345.681 305.621 345.048 305.599 344.645 305.977L346.01 307.438ZM351.534 299.142C351.153 299.542 351.168 300.175 351.568 300.555C351.968 300.936 352.601 300.921 352.982 300.521L351.534 299.142ZM356.979 296.193C357.348 295.781 357.313 295.149 356.902 294.781C356.491 294.412 355.858 294.447 355.49 294.858L356.979 296.193ZM361.815 287.475C361.464 287.901 361.526 288.532 361.953 288.882C362.38 289.233 363.01 289.171 363.36 288.744L361.815 287.475ZM367.046 284.159C367.387 283.726 367.312 283.097 366.878 282.755C366.444 282.414 365.816 282.488 365.474 282.922L367.046 284.159ZM371.392 275.184C371.061 275.627 371.153 276.254 371.596 276.584C372.038 276.914 372.665 276.822 372.995 276.379L371.392 275.184ZM376.477 271.652C376.802 271.205 376.704 270.58 376.258 270.255C375.812 269.929 375.186 270.028 374.861 270.474L376.477 271.652ZM380.564 262.555C380.243 263.004 380.347 263.629 380.796 263.95C381.246 264.271 381.87 264.167 382.191 263.717L380.564 262.555ZM385.595 258.945C385.916 258.496 385.812 257.871 385.362 257.551C384.912 257.23 384.288 257.334 383.967 257.784L385.595 258.945ZM389.667 249.842C389.343 250.289 389.443 250.914 389.89 251.238C390.337 251.562 390.962 251.462 391.286 251.015L389.667 249.842ZM394.741 246.292C395.069 245.848 394.976 245.222 394.531 244.894C394.087 244.565 393.461 244.659 393.133 245.103L394.741 246.292ZM399.043 237.296C398.704 237.732 398.783 238.36 399.219 238.699C399.655 239.038 400.283 238.96 400.622 238.524L399.043 237.296ZM404.252 233.949C404.6 233.519 404.534 232.89 404.105 232.542C403.675 232.194 403.046 232.26 402.698 232.69L404.252 233.949ZM409.022 225.191C408.657 225.606 408.697 226.238 409.112 226.603C409.526 226.968 410.158 226.928 410.523 226.513L409.022 225.191ZM414.44 222.196C414.817 221.792 414.796 221.159 414.392 220.782C413.989 220.405 413.356 220.426 412.979 220.83L414.44 222.196ZM419.886 213.841C419.486 214.222 419.472 214.855 419.853 215.255C420.234 215.654 420.867 215.669 421.267 215.288L419.886 213.841ZM425.552 211.35C425.966 210.984 426.005 210.352 425.639 209.938C425.273 209.524 424.641 209.485 424.228 209.851L425.552 211.35ZM431.812 203.594C431.373 203.93 431.291 204.558 431.627 204.996C431.964 205.434 432.591 205.517 433.029 205.18L431.812 203.594ZM437.725 201.736C438.178 201.419 438.288 200.796 437.971 200.343C437.654 199.891 437.031 199.781 436.578 200.098L437.725 201.736ZM444.835 194.769C444.36 195.051 444.203 195.664 444.485 196.139C444.767 196.614 445.38 196.771 445.855 196.489L444.835 194.769ZM450.94 193.631C451.427 193.372 451.612 192.766 451.353 192.278C451.093 191.791 450.487 191.606 450 191.866L450.94 193.631ZM458.836 187.582C458.331 187.805 458.101 188.395 458.323 188.9C458.545 189.406 459.135 189.636 459.641 189.414L458.836 187.582ZM465.027 187.188C465.542 186.989 465.798 186.409 465.598 185.894C465.399 185.379 464.819 185.124 464.304 185.324L465.027 187.188ZM473.602 182.091C473.074 182.255 472.779 182.815 472.942 183.342C473.105 183.87 473.665 184.165 474.193 184.002L473.602 182.091ZM479.752 182.402C480.286 182.259 480.603 181.711 480.46 181.177C480.318 180.644 479.77 180.327 479.236 180.469L479.752 182.402ZM488.806 178.231C488.264 178.34 487.914 178.868 488.024 179.409C488.133 179.95 488.661 180.301 489.202 180.191L488.806 178.231ZM494.921 179.136C495.466 179.044 495.833 178.529 495.742 177.984C495.651 177.44 495.136 177.072 494.591 177.163L494.921 179.136ZM504.314 175.801C503.765 175.863 503.371 176.359 503.434 176.908C503.496 177.456 503.992 177.85 504.541 177.788L504.314 175.801ZM510.369 177.209C510.919 177.162 511.327 176.678 511.28 176.128C511.234 175.578 510.75 175.169 510.199 175.216L510.369 177.209ZM519.966 174.605C519.415 174.628 518.986 175.093 519.008 175.645C519.031 176.197 519.497 176.626 520.049 176.603L519.966 174.605ZM526.113 176.451C526.666 176.45 527.112 176.001 527.111 175.449C527.109 174.896 526.66 174.45 526.108 174.451L526.113 176.451ZM536.338 174.877C535.788 174.829 535.303 175.236 535.255 175.787C535.207 176.337 535.614 176.822 536.164 176.87L536.338 174.877ZM542.175 177.567C542.721 177.646 543.229 177.268 543.308 176.721C543.388 176.174 543.009 175.667 542.462 175.588L542.175 177.567ZM552.532 177.558C551.996 177.425 551.453 177.752 551.321 178.288C551.188 178.824 551.515 179.367 552.051 179.499L552.532 177.558ZM557.866 181.127C558.393 181.292 558.954 180.998 559.119 180.471C559.283 179.944 558.99 179.383 558.463 179.218L557.866 181.127ZM568.09 182.764C567.581 182.547 566.994 182.784 566.778 183.292C566.562 183.8 566.798 184.388 567.307 184.604L568.09 182.764ZM572.789 187.128C573.284 187.373 573.884 187.171 574.129 186.676C574.374 186.181 574.172 185.581 573.677 185.336L572.789 187.128ZM582.651 190.312C582.181 190.023 581.565 190.17 581.276 190.64C580.986 191.11 581.133 191.726 581.604 192.016L582.651 190.312ZM586.672 195.314C587.127 195.627 587.75 195.512 588.062 195.056C588.375 194.601 588.26 193.979 587.805 193.666L586.672 195.314ZM596.012 199.795C595.582 199.448 594.953 199.515 594.606 199.945C594.259 200.375 594.326 201.004 594.756 201.351L596.012 199.795ZM599.39 205.257C599.805 205.622 600.437 205.581 600.801 205.166C601.166 204.751 601.125 204.119 600.71 203.755L599.39 205.257ZM608.179 210.748C607.787 210.358 607.154 210.36 606.764 210.752C606.375 211.143 606.377 211.777 606.768 212.166L608.179 210.748ZM611.007 216.522C611.386 216.924 612.018 216.943 612.42 216.564C612.822 216.185 612.841 215.553 612.462 215.151L611.007 216.522ZM619.287 222.756C618.927 222.336 618.296 222.288 617.877 222.647C617.457 223.006 617.409 223.638 617.768 224.057L619.287 222.756ZM621.659 228.715C622.008 229.143 622.638 229.207 623.066 228.858C623.494 228.509 623.559 227.88 623.21 227.451L621.659 228.715ZM629.516 235.479C629.183 235.039 628.555 234.953 628.115 235.287C627.675 235.621 627.589 236.248 627.923 236.688L629.516 235.479ZM631.566 241.581C631.892 242.027 632.518 242.124 632.964 241.798C633.41 241.472 633.507 240.846 633.181 240.4L631.566 241.581ZM639.093 248.704C638.778 248.251 638.155 248.138 637.701 248.453C637.248 248.768 637.135 249.391 637.451 249.845L639.093 248.704ZM640.891 254.864C641.201 255.321 641.823 255.44 642.28 255.131C642.737 254.821 642.857 254.199 642.547 253.742L640.891 254.864ZM648.193 262.226C647.891 261.764 647.271 261.635 646.809 261.937C646.347 262.24 646.218 262.86 646.521 263.322L648.193 262.226ZM649.847 268.437C650.147 268.901 650.766 269.034 651.23 268.734C651.694 268.435 651.827 267.816 651.527 267.352L649.847 268.437ZM657.016 275.924C656.72 275.458 656.102 275.32 655.635 275.616C655.169 275.913 655.032 276.531 655.328 276.997L657.016 275.924ZM658.599 282.151C658.895 282.618 659.513 282.756 659.979 282.461C660.446 282.165 660.584 281.547 660.289 281.081L658.599 282.151ZM665.736 289.675C665.44 289.209 664.822 289.071 664.355 289.367C663.889 289.663 663.751 290.281 664.047 290.747L665.736 289.675ZM667.324 295.891C667.622 296.356 668.24 296.492 668.705 296.194C669.171 295.897 669.307 295.278 669.009 294.813L667.324 295.891ZM674.522 303.353C674.22 302.89 673.601 302.76 673.138 303.062C672.676 303.364 672.546 303.984 672.847 304.446L674.522 303.353ZM676.217 309.561C676.523 310.021 677.143 310.146 677.603 309.84C678.063 309.535 678.188 308.914 677.882 308.454L676.217 309.561ZM683.581 316.861C683.267 316.407 682.644 316.293 682.19 316.608C681.736 316.922 681.623 317.545 681.937 317.999L683.581 316.861ZM685.447 322.992C685.768 323.441 686.393 323.546 686.842 323.225C687.291 322.904 687.396 322.279 687.075 321.83L685.447 322.992ZM693.086 329.997C692.752 329.557 692.124 329.472 691.685 329.806C691.245 330.14 691.16 330.768 691.494 331.207L693.086 329.997ZM695.266 336.057C695.609 336.489 696.239 336.561 696.671 336.217C697.103 335.873 697.174 335.244 696.83 334.812L695.266 336.057ZM703.304 342.601C702.941 342.184 702.31 342.141 701.893 342.503C701.476 342.866 701.433 343.498 701.795 343.914L703.304 342.601ZM705.893 348.478C706.268 348.883 706.901 348.907 707.306 348.532C707.711 348.156 707.735 347.523 707.359 347.118L705.893 348.478ZM714.451 354.325C714.051 353.944 713.418 353.959 713.037 354.358C712.656 354.758 712.671 355.391 713.071 355.772L714.451 354.325ZM717.591 359.904C718.007 360.267 718.639 360.225 719.002 359.809C719.366 359.394 719.324 358.762 718.908 358.398L717.591 359.904ZM726.767 364.731C726.322 364.403 725.696 364.498 725.368 364.942C725.04 365.387 725.135 366.013 725.579 366.34L726.767 364.731ZM730.641 369.862C731.104 370.164 731.723 370.034 732.026 369.572C732.328 369.109 732.198 368.49 731.736 368.188L730.641 369.862ZM740.425 373.251C739.934 372.999 739.331 373.193 739.079 373.685C738.827 374.176 739.021 374.779 739.512 375.031L740.425 373.251ZM745.09 377.658C745.597 377.876 746.185 377.642 746.403 377.134C746.621 376.627 746.386 376.039 745.879 375.821L745.09 377.658ZM755.321 379.229C754.791 379.073 754.235 379.376 754.079 379.906C753.924 380.436 754.227 380.992 754.757 381.147L755.321 379.229ZM760.818 382.718C761.356 382.844 761.894 382.511 762.02 381.973C762.146 381.435 761.812 380.897 761.274 380.771L760.818 382.718ZM771.058 382.728C770.513 382.638 769.999 383.007 769.909 383.552C769.819 384.097 770.188 384.612 770.733 384.701L771.058 382.728ZM776.902 385.572C777.451 385.636 777.947 385.244 778.012 384.695C778.076 384.147 777.683 383.65 777.135 383.586L776.902 385.572ZM787.131 384.342C786.579 384.324 786.117 384.757 786.099 385.309C786.081 385.861 786.514 386.323 787.066 386.341L787.131 384.342ZM793.132 386.371C793.684 386.359 794.121 385.901 794.109 385.349C794.096 384.797 793.638 384.359 793.086 384.372L793.132 386.371ZM803.095 383.643C802.547 383.712 802.158 384.211 802.226 384.759C802.294 385.307 802.794 385.696 803.342 385.628L803.095 383.643ZM809.44 384.667C809.983 384.564 810.339 384.04 810.235 383.497C810.131 382.955 809.608 382.599 809.065 382.703L809.44 384.667ZM818.77 380.286C818.243 380.449 817.947 381.009 818.11 381.537C818.273 382.065 818.833 382.36 819.361 382.197L818.77 380.286ZM825.149 380.195C825.664 379.997 825.922 379.419 825.724 378.903C825.526 378.388 824.948 378.13 824.432 378.328L825.149 380.195ZM833.575 374.236C833.083 374.489 832.89 375.091 833.142 375.583C833.394 376.074 833.997 376.268 834.488 376.016L833.575 374.236ZM839.859 373.047C840.335 372.765 840.491 372.152 840.21 371.677C839.928 371.201 839.315 371.045 838.84 371.326L839.859 373.047ZM847.221 365.807C846.774 366.131 846.675 366.756 846.999 367.203C847.323 367.65 847.949 367.75 848.396 367.425L847.221 365.807ZM853.257 363.71C853.688 363.364 853.756 362.734 853.41 362.304C853.064 361.873 852.435 361.805 852.004 362.151L853.257 363.71ZM859.607 355.567C859.202 355.943 859.178 356.576 859.554 356.98C859.93 357.385 860.563 357.408 860.967 357.033L859.607 355.567ZM865.37 352.79C865.76 352.4 865.761 351.767 865.37 351.376C864.98 350.985 864.347 350.985 863.956 351.375L865.37 352.79ZM870.897 344.066C870.526 344.476 870.558 345.108 870.968 345.479C871.377 345.849 872.01 345.817 872.38 345.408L870.897 344.066ZM876.425 340.817C876.786 340.398 876.738 339.767 876.319 339.407C875.9 339.047 875.269 339.094 874.909 339.513L876.425 340.817ZM881.359 331.744C881.013 332.174 881.082 332.804 881.512 333.15C881.942 333.496 882.572 333.428 882.918 332.998L881.359 331.744ZM886.694 328.229C887.034 327.793 886.956 327.165 886.521 326.825C886.085 326.485 885.457 326.563 885.117 326.998L886.694 328.229ZM891.264 318.963C890.932 319.405 891.021 320.032 891.462 320.364C891.903 320.696 892.53 320.607 892.862 320.166L891.264 318.963ZM896.508 315.288C896.837 314.845 896.745 314.219 896.301 313.889C895.858 313.56 895.231 313.652 894.902 314.096L896.508 315.288ZM900.923 305.949C900.595 306.393 900.69 307.02 901.134 307.347C901.579 307.675 902.205 307.58 902.533 307.136L900.923 305.949ZM906.143 302.247C906.471 301.803 906.378 301.177 905.934 300.848C905.49 300.52 904.864 300.613 904.535 301.057L906.143 302.247ZM910.604 292.93C910.271 293.37 910.358 293.997 910.799 294.33C911.24 294.663 911.867 294.576 912.2 294.135L910.604 292.93ZM915.882 289.306C916.22 288.869 916.138 288.241 915.701 287.904C915.264 287.567 914.636 287.648 914.299 288.085L915.882 289.306ZM920.589 280.11C920.241 280.539 920.307 281.169 920.737 281.516C921.166 281.863 921.796 281.797 922.143 281.368L920.589 280.11ZM925.992 276.697C926.347 276.274 926.293 275.643 925.87 275.288C925.447 274.933 924.816 274.988 924.461 275.41L925.992 276.697ZM931.146 267.746C930.775 268.155 930.805 268.787 931.214 269.159C931.623 269.53 932.255 269.5 932.627 269.091L931.146 267.746ZM936.763 264.662C937.145 264.264 937.133 263.631 936.735 263.248C936.337 262.865 935.704 262.878 935.321 263.276L936.763 264.662ZM942.575 256.127C942.171 256.503 942.148 257.135 942.524 257.54C942.9 257.944 943.533 257.967 943.937 257.591L942.575 256.127ZM948.436 253.563C948.854 253.203 948.902 252.572 948.542 252.153C948.182 251.735 947.55 251.687 947.132 252.047L948.436 253.563ZM955.1 245.679C954.656 246.007 954.562 246.633 954.89 247.077C955.218 247.522 955.844 247.616 956.288 247.288L955.1 245.679ZM961.223 243.827C961.683 243.521 961.808 242.9 961.502 242.44C961.196 241.98 960.576 241.855 960.116 242.161L961.223 243.827ZM968.872 236.891C968.386 237.154 968.206 237.761 968.468 238.246C968.731 238.732 969.338 238.913 969.823 238.651L968.872 236.891ZM975.189 235.948C975.689 235.714 975.905 235.118 975.671 234.618C975.437 234.118 974.842 233.902 974.342 234.136L975.189 235.948ZM983.805 230.277C983.284 230.459 983.009 231.03 983.191 231.551C983.374 232.072 983.944 232.347 984.466 232.165L983.805 230.277ZM990.197 230.355C990.728 230.205 991.037 229.652 990.887 229.121C990.737 228.589 990.185 228.28 989.653 228.43L990.197 230.355ZM999.616 226.153C999.073 226.249 998.709 226.768 998.805 227.312C998.902 227.856 999.42 228.219 999.964 228.123L999.616 226.153ZM1005.93 227.248C1006.48 227.184 1006.87 226.687 1006.81 226.138C1006.74 225.59 1006.25 225.197 1005.7 225.261L1005.93 227.248ZM1015.87 224.541C1015.32 224.555 1014.88 225.014 1014.89 225.567C1014.91 226.119 1015.37 226.555 1015.92 226.54L1015.87 224.541ZM178.381 4.99295C179.439 5.11929 180.496 5.27573 181.549 5.46203L181.897 3.49262C180.808 3.29978 179.714 3.13785 178.618 3.00705L178.381 4.99295ZM191.825 8.2974C193.822 9.059 195.771 9.93594 197.656 10.9262L198.586 9.15577C196.629 8.1275 194.607 7.21798 192.538 6.42876L191.825 8.2974ZM206.485 16.8401C208.109 18.2111 209.637 19.693 211.049 21.2836L212.545 19.9556C211.067 18.2908 209.47 16.7423 207.775 15.3118L206.485 16.8401ZM217.013 30.0207C217.956 31.8823 218.767 33.842 219.43 35.8988L221.334 35.2852C220.638 33.1278 219.787 31.071 218.797 29.1168L217.013 30.0207ZM221.395 46.3032C221.464 47.3497 221.5 48.4153 221.5 49.5H223.5C223.5 48.3715 223.463 47.2614 223.39 46.1701L221.395 46.3032ZM221.5 49.5C221.5 50.5301 221.449 51.525 221.35 52.4869L223.34 52.6922C223.446 51.6592 223.5 50.5957 223.5 49.5H221.5ZM218.432 61.7741C217.475 63.4551 216.301 65.022 214.924 66.4936L216.384 67.8604C217.859 66.2846 219.129 64.5925 220.17 62.7638L218.432 61.7741ZM207.139 72.6849C205.5 73.6954 203.736 74.6579 201.855 75.5827L202.737 77.3775C204.666 76.4291 206.488 75.4363 208.189 74.3874L207.139 72.6849ZM192.526 79.5634C190.671 80.2618 188.745 80.9439 186.755 81.6163L187.395 83.5111C189.403 82.8327 191.35 82.1429 193.23 81.4352L192.526 79.5634ZM177.04 84.6995C175.12 85.2789 173.157 85.8583 171.154 86.4421L171.714 88.3622C173.72 87.7772 175.69 87.196 177.618 86.6143L177.04 84.6995ZM161.34 89.2727C159.399 89.8312 157.431 90.3994 155.438 90.9806L155.997 92.9007C157.987 92.3204 159.953 91.753 161.893 91.1947L161.34 89.2727ZM145.613 93.9103C143.671 94.5054 141.712 95.117 139.738 95.748L140.347 97.653C142.312 97.0248 144.264 96.4156 146.199 95.8226L145.613 93.9103ZM130.007 98.9911C128.084 99.6608 126.151 100.353 124.21 101.069L124.903 102.945C126.831 102.233 128.752 101.546 130.665 100.88L130.007 98.9911ZM114.628 104.795C112.74 105.569 110.848 106.37 108.955 107.2L109.758 109.032C111.636 108.209 113.513 107.414 115.387 106.646L114.628 104.795ZM99.6379 111.524C97.8017 112.426 95.9671 113.359 94.136 114.325L95.0691 116.094C96.8828 115.137 98.7004 114.213 100.52 113.318L99.6379 111.524ZM85.1694 119.345C83.4105 120.391 81.6577 121.47 79.9126 122.584L80.9893 124.27C82.7158 123.167 84.4502 122.099 86.1911 121.065L85.1694 119.345ZM71.402 128.362C70.5657 128.965 69.732 129.578 68.9009 130.199L70.099 131.801C70.9206 131.186 71.745 130.581 72.5719 129.984L71.402 128.362ZM68.9009 130.199C68.0702 130.821 67.2468 131.449 66.4306 132.083L67.6579 133.662C68.4644 133.035 69.2781 132.415 70.099 131.801L68.9009 130.199ZM58.4773 138.662C56.9221 140.03 55.3971 141.421 53.9023 142.835L55.2768 144.288C56.7541 142.891 58.2613 141.515 59.7982 140.163L58.4773 138.662ZM46.6215 150.151C45.2054 151.662 43.821 153.194 42.4684 154.745L43.9758 156.059C45.3127 154.526 46.6812 153.012 48.0808 151.519L46.6215 150.151ZM35.9201 162.721C34.6542 164.361 33.4214 166.017 32.2221 167.69L33.8474 168.855C35.033 167.202 36.2516 165.564 37.5029 163.944L35.9201 162.721ZM26.4598 176.25C25.3543 178.002 24.2836 179.768 23.2479 181.547L24.9763 182.554C26 180.795 27.0584 179.049 28.1513 177.317L26.4598 176.25ZM18.3237 190.613C17.3889 192.464 16.4907 194.324 15.6295 196.194L17.4459 197.031C18.2971 195.183 19.1848 193.344 20.1088 191.515L18.3237 190.613ZM11.599 205.687C10.8466 207.622 10.1329 209.562 9.45841 211.506L11.3479 212.162C12.0143 210.241 12.7194 208.324 13.463 206.413L11.599 205.687ZM6.38285 221.363C5.82834 223.361 5.31511 225.36 4.84343 227.359L6.78996 227.818C7.25565 225.845 7.76241 223.871 8.31002 221.897L6.38285 221.363ZM2.80646 237.494C2.46643 239.544 2.17082 241.589 1.9199 243.629L3.90493 243.873C4.15239 241.862 4.44399 239.844 4.77948 237.822L2.80646 237.494ZM1.03119 253.923C0.929101 256.001 0.875177 258.07 0.869724 260.126L2.86972 260.132C2.87509 258.107 2.92819 256.069 3.02878 254.021L1.03119 253.923ZM1.26077 270.458C1.42584 272.533 1.64331 274.592 1.91353 276.63L3.89619 276.367C3.63065 274.364 3.41683 272.341 3.25447 270.299L1.26077 270.458ZM3.74725 286.825C4.21334 288.857 4.73661 290.863 5.31745 292.841L7.23637 292.277C6.66708 290.339 6.15393 288.372 5.69662 286.378L3.74725 286.825ZM8.76122 302.614C9.55994 304.539 10.4203 306.428 11.3426 308.278L13.1326 307.386C12.2312 305.577 11.3899 303.73 10.6085 301.847L8.76122 302.614ZM16.5237 317.269C17.6708 319.003 18.8822 320.692 20.1584 322.332L21.7369 321.104C20.4926 319.505 19.311 317.858 18.1918 316.166L16.5237 317.269ZM27.0571 330.091C27.7977 330.821 28.5544 331.537 29.3273 332.24L30.6726 330.76C29.9196 330.076 29.1823 329.378 28.4606 328.667L27.0571 330.091ZM29.3273 332.24C30.0439 332.891 30.7702 333.545 31.5063 334.199L32.8353 332.705C32.1048 332.055 31.3839 331.407 30.6726 330.76L29.3273 332.24ZM39.0219 340.626C40.5244 341.86 42.0619 343.092 43.6345 344.32L44.8651 342.743C43.3059 341.526 41.7814 340.304 40.2913 339.08L39.0219 340.626ZM51.5407 350.221C53.1352 351.358 54.7614 352.485 56.4198 353.599L57.5354 351.939C55.8927 350.835 54.2814 349.719 52.7015 348.593L51.5407 350.221ZM64.7276 358.904C66.4051 359.919 68.112 360.919 69.8484 361.901L70.8329 360.16C69.1141 359.188 67.4242 358.198 65.7633 357.193L64.7276 358.904ZM78.5569 366.539C80.3126 367.417 82.0956 368.274 83.9062 369.109L84.7439 367.293C82.9527 366.467 81.1886 365.619 79.4515 364.75L78.5569 366.539ZM92.9754 373.003C94.8014 373.729 96.653 374.431 98.5305 375.107L99.208 373.225C97.3515 372.557 95.5204 371.862 93.7146 371.144L92.9754 373.003ZM107.905 378.193C109.789 378.755 111.697 379.291 113.628 379.798L114.136 377.863C112.226 377.362 110.34 376.833 108.477 376.276L107.905 378.193ZM123.248 382.036C125.164 382.425 127.102 382.786 129.063 383.117L129.396 381.145C127.457 380.818 125.541 380.461 123.646 380.076L123.248 382.036ZM138.85 384.49C140.792 384.708 142.754 384.896 144.737 385.053L144.895 383.059C142.934 382.904 140.993 382.718 139.073 382.502L138.85 384.49ZM154.599 385.567C156.565 385.617 158.55 385.636 160.554 385.624L160.542 383.624C158.559 383.636 156.595 383.617 154.65 383.567L154.599 385.567ZM170.429 385.31C172.369 385.2 174.326 385.059 176.299 384.888L176.127 382.896C174.173 383.065 172.235 383.204 170.315 383.314L170.429 385.31ZM186.106 383.802C188.056 383.54 190.021 383.247 192.003 382.925L191.681 380.951C189.718 381.271 187.771 381.56 185.84 381.82L186.106 383.802ZM201.704 381.123C203.602 380.728 205.515 380.305 207.441 379.853L206.985 377.906C205.074 378.354 203.178 378.774 201.296 379.165L201.704 381.123ZM217.007 377.405C218.889 376.883 220.785 376.334 222.693 375.758L222.115 373.843C220.221 374.415 218.34 374.96 216.472 375.478L217.007 377.405ZM232.06 372.739C233.929 372.099 235.809 371.434 237.701 370.741L237.014 368.863C235.135 369.551 233.267 370.212 231.412 370.847L232.06 372.739ZM246.848 367.22C248.662 366.487 250.487 365.731 252.322 364.949L251.538 363.109C249.715 363.886 247.902 364.638 246.1 365.365L246.848 367.22ZM261.341 360.945C263.103 360.132 264.874 359.296 266.655 358.437L265.785 356.635C264.015 357.49 262.254 358.321 260.503 359.13L261.341 360.945ZM275.522 354.007C277.235 353.121 278.958 352.215 280.688 351.287L279.743 349.524C278.022 350.447 276.308 351.349 274.604 352.23L275.522 354.007ZM289.38 346.486C291.053 345.535 292.734 344.564 294.423 343.573L293.41 341.848C291.73 342.834 290.057 343.801 288.392 344.747L289.38 346.486ZM302.93 338.448C304.568 337.436 306.213 336.406 307.865 335.357L306.793 333.669C305.148 334.713 303.51 335.739 301.879 336.746L302.93 338.448ZM316.174 329.958C317.785 328.887 319.404 327.798 321.028 326.692L319.902 325.039C318.284 326.141 316.672 327.225 315.067 328.292L316.174 329.958ZM329.131 321.061C329.947 320.483 330.764 319.9 331.583 319.313L330.417 317.687C329.601 318.272 328.787 318.853 327.974 319.429L329.131 321.061ZM331.583 319.313C332.389 318.734 333.187 318.149 333.975 317.557L332.774 315.958C331.997 316.541 331.212 317.118 330.417 317.687L331.583 319.313ZM341.626 311.383C343.119 310.091 344.58 308.775 346.01 307.438L344.645 305.977C343.232 307.297 341.79 308.596 340.317 309.87L341.626 311.383ZM352.982 300.521C354.339 299.096 355.671 297.653 356.979 296.193L355.49 294.858C354.194 296.304 352.877 297.732 351.534 299.142L352.982 300.521ZM363.36 288.744C364.606 287.228 365.834 285.699 367.046 284.159L365.474 282.922C364.27 284.452 363.051 285.97 361.815 287.475L363.36 288.744ZM372.995 276.379C374.165 274.81 375.325 273.233 376.477 271.652L374.861 270.474C373.712 272.05 372.557 273.621 371.392 275.184L372.995 276.379ZM382.191 263.717C383.327 262.127 384.461 260.535 385.595 258.945L383.967 257.784C382.832 259.375 381.699 260.965 380.564 262.555L382.191 263.717ZM391.286 251.015C392.432 249.435 393.582 247.86 394.741 246.292L393.133 245.103C391.969 246.677 390.815 248.257 389.667 249.842L391.286 251.015ZM400.622 238.524C401.818 236.987 403.027 235.461 404.252 233.949L402.698 232.69C401.464 234.213 400.246 235.75 399.043 237.296L400.622 238.524ZM410.523 226.513C411.807 225.057 413.111 223.617 414.44 222.196L412.979 220.83C411.636 222.266 410.318 223.721 409.022 225.191L410.523 226.513ZM421.267 215.288C422.666 213.952 424.094 212.639 425.552 211.35L424.228 209.851C422.749 211.158 421.303 212.489 419.886 213.841L421.267 215.288ZM433.029 205.18C434.56 204.006 436.124 202.857 437.725 201.736L436.578 200.098C434.953 201.236 433.365 202.402 431.812 203.594L433.029 205.18ZM445.855 196.489C447.511 195.508 449.205 194.554 450.94 193.631L450 191.866C448.238 192.803 446.518 193.772 444.835 194.769L445.855 196.489ZM459.641 189.414C461.397 188.642 463.192 187.9 465.027 187.188L464.304 185.324C462.441 186.046 460.619 186.799 458.836 187.582L459.641 189.414ZM474.193 184.002C476.008 183.44 477.861 182.906 479.752 182.402L479.236 180.469C477.32 180.981 475.442 181.522 473.602 182.091L474.193 184.002ZM489.202 180.191C491.073 179.813 492.978 179.46 494.921 179.136L494.591 177.163C492.627 177.491 490.698 177.848 488.806 178.231L489.202 180.191ZM504.541 177.788C506.45 177.57 508.392 177.377 510.369 177.209L510.199 175.216C508.204 175.386 506.243 175.581 504.314 175.801L504.541 177.788ZM520.049 176.603C521.034 176.563 522.027 176.528 523.028 176.5L522.971 174.5C521.962 174.529 520.96 174.564 519.966 174.605L520.049 176.603ZM523.028 176.5C524.064 176.47 525.093 176.454 526.113 176.451L526.108 174.451C525.07 174.454 524.024 174.47 522.971 174.5L523.028 176.5ZM536.164 176.87C538.199 177.047 540.202 177.28 542.175 177.567L542.462 175.588C540.452 175.296 538.41 175.058 536.338 174.877L536.164 176.87ZM552.051 179.499C554.02 179.987 555.958 180.531 557.866 181.127L558.463 179.218C556.517 178.61 554.54 178.056 552.532 177.558L552.051 179.499ZM567.307 184.604C569.163 185.394 570.99 186.236 572.789 187.128L573.677 185.336C571.844 184.427 569.982 183.569 568.09 182.764L567.307 184.604ZM581.604 192.016C583.319 193.07 585.008 194.171 586.672 195.314L587.805 193.666C586.113 192.504 584.396 191.385 582.651 190.312L581.604 192.016ZM594.756 201.351C596.322 202.616 597.866 203.919 599.39 205.257L600.71 203.755C599.166 202.399 597.601 201.078 596.012 199.795L594.756 201.351ZM606.768 212.166C608.199 213.588 609.611 215.041 611.007 216.522L612.462 215.151C611.052 213.654 609.625 212.186 608.179 210.748L606.768 212.166ZM617.768 224.057C619.079 225.587 620.376 227.14 621.659 228.715L623.21 227.451C621.916 225.865 620.609 224.299 619.287 222.756L617.768 224.057ZM627.923 236.688C629.148 238.302 630.362 239.934 631.566 241.581L633.181 240.4C631.97 238.744 630.749 237.103 629.516 235.479L627.923 236.688ZM637.451 249.845C638.605 251.507 639.751 253.18 640.891 254.864L642.547 253.742C641.403 252.053 640.252 250.373 639.093 248.704L637.451 249.845ZM646.521 263.322C647.634 265.021 648.743 266.727 649.847 268.437L651.527 267.352C650.421 265.638 649.31 263.929 648.193 262.226L646.521 263.322ZM655.328 276.997C656.421 278.714 657.511 280.433 658.599 282.151L660.289 281.081C659.2 279.362 658.109 277.642 657.016 275.924L655.328 276.997ZM664.047 290.747C665.139 292.466 666.231 294.181 667.324 295.891L669.009 294.813C667.917 293.106 666.826 291.393 665.736 289.675L664.047 290.747ZM672.847 304.446C673.967 306.161 675.09 307.867 676.217 309.561L677.882 308.454C676.759 306.764 675.639 305.063 674.522 303.353L672.847 304.446ZM681.937 317.999C683.101 319.679 684.27 321.344 685.447 322.992L687.075 321.83C685.904 320.19 684.74 318.533 683.581 316.861L681.937 317.999ZM691.494 331.207C692.741 332.847 693.998 334.464 695.266 336.057L696.83 334.812C695.572 333.231 694.325 331.625 693.086 329.997L691.494 331.207ZM701.795 343.914C703.146 345.466 704.512 346.989 705.893 348.478L707.359 347.118C705.993 345.645 704.642 344.138 703.304 342.601L701.795 343.914ZM713.071 355.772C714.558 357.19 716.064 358.568 717.591 359.904L718.908 358.398C717.403 357.082 715.918 355.724 714.451 354.325L713.071 355.772ZM725.579 366.34C727.241 367.566 728.928 368.741 730.641 369.862L731.736 368.188C730.055 367.089 728.399 365.935 726.767 364.731L725.579 366.34ZM739.512 375.031C741.34 375.969 743.199 376.846 745.09 377.658L745.879 375.821C744.031 375.027 742.214 374.169 740.425 373.251L739.512 375.031ZM754.757 381.147C755.747 381.439 756.746 381.713 757.753 381.969L758.246 380.031C757.263 379.781 756.288 379.513 755.321 379.229L754.757 381.147ZM757.753 381.969C758.782 382.231 759.804 382.481 760.818 382.718L761.274 380.771C760.273 380.536 759.263 380.29 758.246 380.031L757.753 381.969ZM770.733 384.701C772.822 385.045 774.878 385.335 776.902 385.572L777.135 383.586C775.143 383.352 773.117 383.067 771.058 382.728L770.733 384.701ZM787.066 386.341C789.123 386.407 791.144 386.417 793.132 386.371L793.086 384.372C791.136 384.417 789.151 384.407 787.131 384.342L787.066 386.341ZM803.342 385.628C805.413 385.37 807.445 385.049 809.44 384.667L809.065 382.703C807.112 383.076 805.123 383.39 803.095 383.643L803.342 385.628ZM819.361 382.197C821.327 381.59 823.256 380.921 825.149 380.195L824.432 378.328C822.581 379.038 820.694 379.692 818.77 380.286L819.361 382.197ZM834.488 376.016C836.312 375.079 838.102 374.089 839.859 373.047L838.84 371.326C837.116 372.348 835.362 373.319 833.575 374.236L834.488 376.016ZM848.396 367.425C850.043 366.23 851.663 364.99 853.257 363.71L852.004 362.151C850.435 363.412 848.841 364.631 847.221 365.807L848.396 367.425ZM860.967 357.033C862.455 355.651 863.922 354.236 865.37 352.79L863.956 351.375C862.525 352.805 861.076 354.203 859.607 355.567L860.967 357.033ZM872.38 345.408C873.743 343.9 875.091 342.369 876.425 340.817L874.909 339.513C873.584 341.054 872.247 342.572 870.897 344.066L872.38 345.408ZM882.918 332.998C884.185 331.422 885.443 329.832 886.694 328.229L885.117 326.998C883.872 328.594 882.62 330.177 881.359 331.744L882.918 332.998ZM892.862 320.166C894.081 318.547 895.295 316.92 896.508 315.288L894.902 314.096C893.692 315.725 892.48 317.348 891.264 318.963L892.862 320.166ZM902.533 307.136C903.735 305.505 904.938 303.875 906.143 302.247L904.535 301.057C903.329 302.687 902.125 304.319 900.923 305.949L902.533 307.136ZM912.2 294.135C913.421 292.518 914.648 290.907 915.882 289.306L914.299 288.085C913.06 289.692 911.829 291.308 910.604 292.93L912.2 294.135ZM922.143 281.368C923.416 279.795 924.698 278.237 925.992 276.697L924.461 275.41C923.158 276.961 921.868 278.529 920.589 280.11L922.143 281.368ZM932.627 269.091C933.989 267.591 935.367 266.114 936.763 264.662L935.321 263.276C933.912 264.742 932.521 266.233 931.146 267.746L932.627 269.091ZM943.937 257.591C945.415 256.216 946.914 254.872 948.436 253.563L947.132 252.047C945.589 253.374 944.071 254.735 942.575 256.127L943.937 257.591ZM956.288 247.288C957.906 246.093 959.55 244.938 961.223 243.827L960.116 242.161C958.414 243.291 956.743 244.465 955.1 245.679L956.288 247.288ZM969.823 238.651C971.58 237.701 973.368 236.799 975.189 235.948L974.342 234.136C972.485 235.004 970.662 235.924 968.872 236.891L969.823 238.651ZM984.466 232.165C986.341 231.509 988.251 230.905 990.197 230.355L989.653 228.43C987.667 228.991 985.719 229.607 983.805 230.277L984.466 232.165ZM999.964 228.123C1001.92 227.778 1003.91 227.485 1005.93 227.248L1005.7 225.261C1003.63 225.503 1001.61 225.801 999.616 226.153L999.964 228.123ZM1015.92 226.54C1016.94 226.513 1017.96 226.5 1019 226.5V224.5C1017.95 224.5 1016.9 224.514 1015.87 224.541L1015.92 226.54Z" fill="#FFECA9"/>
<path d="M175 8C177.209 8 179 6.20914 179 4C179 1.79086 177.209 0 175 0C172.791 0 171 1.79086 171 4C171 6.20914 172.791 8 175 8Z" fill="#FFECA9"/>
</svg>
