<svg width="472" height="447" viewBox="0 0 472 447" fill="none" xmlns="http://www.w3.org/2000/svg">
<g clip-path="url(#clip0_33_306)">
<path d="M517.747 22.0203C517.468 21.881 517.19 21.7418 517.051 21.7418C516.355 22.1595 515.659 22.5772 514.963 22.995C508.7 27.0331 502.159 30.2358 494.921 32.046C489.354 33.4385 483.787 33.9954 478.081 33.5777C474.462 33.2992 470.843 33.0207 467.225 32.4637C460.127 31.6282 453.028 32.1853 446.209 34.4132C441.337 35.9449 436.605 37.7551 431.734 39.426C429.229 40.2615 426.723 41.097 424.218 41.7932C419.208 43.1857 414.197 43.6034 409.048 43.0464C405.847 42.6287 402.506 42.211 399.305 41.654C392.207 40.54 385.248 40.1223 378.15 40.54C375.227 40.6793 372.304 40.9577 369.382 41.097C363.954 41.3755 358.526 41.5147 352.959 41.654C352.402 41.654 351.845 41.654 351.288 41.654C351.428 40.6792 352.123 40.6792 352.68 40.4008C356.438 38.5906 359.778 36.2234 362.84 33.717C364.928 31.9068 366.737 29.9573 368.268 27.5901C370.773 23.552 372.722 19.2353 374.531 14.9187C376.48 10.1843 379.542 6.28545 383.439 3.08278C389.284 -1.51234 395.965 -3.46184 403.341 -2.90486C405.29 -2.76561 407.378 -2.4871 409.326 -2.06935C414.476 -1.09465 419.625 -0.955364 424.775 -1.79084C427.419 -2.2086 430.203 -2.4871 432.847 -2.62632C437.997 -2.76557 442.729 -1.65162 447.322 0.715568C450.245 2.24728 452.611 4.19674 454.838 6.56393C457.9 9.62734 460.544 12.9693 463.049 16.3112C465.137 18.9569 467.085 21.7418 469.312 24.2482C470.565 25.7799 471.957 27.1724 473.488 28.5648C475.575 30.5143 478.081 31.489 480.864 31.3498C489.354 31.3498 497.427 29.4003 505.081 25.6407C511.484 22.5772 517.329 18.5391 522.757 13.944C523.871 12.9693 524.845 11.8553 525.541 10.6021C532.778 -1.23386 538.067 -13.9053 541.546 -27.2729C541.964 -28.8047 542.381 -30.4756 542.799 -32.0073C542.938 -32.5643 543.077 -33.1213 543.216 -33.539C543.495 -34.2353 544.052 -34.653 544.608 -34.5137C545.165 -34.3745 545.443 -33.6783 545.304 -32.9821C545.165 -32.425 545.165 -31.8681 545.026 -31.4503C543.634 -26.8552 542.381 -22.3993 540.99 -17.8042C537.232 -5.82898 531.665 5.3107 524.706 15.7541C520.669 21.881 515.659 27.3116 510.231 32.4637C507.587 34.9702 504.664 37.4766 501.88 39.9831C500.906 40.9578 499.932 41.9325 499.236 43.0464C497.566 45.6921 495.756 48.3378 494.365 51.262C491.163 58.085 490.328 65.1866 491.442 72.5667C492.277 78.1365 494.086 83.2886 496.452 88.4408C497.844 91.3649 499.236 94.2891 500.767 97.3525C502.576 101.251 504.385 105.011 505.777 109.188C507.169 113.366 508.282 117.543 508.7 121.999C509.257 128.126 508.839 134.253 506.612 139.962C505.081 143.861 502.855 147.481 500.349 150.823C498.401 153.33 496.591 155.697 494.365 157.925C488.38 164.191 484.9 171.571 482.813 179.926C481.282 186.192 480.029 192.597 479.333 199.002C478.637 205.408 477.106 211.534 474.74 217.522C473.905 219.611 473.07 221.699 471.957 223.788C469.451 228.662 467.225 233.814 465.137 238.966C463.884 242.308 462.214 245.511 460.822 248.713C459.987 250.523 459.291 252.334 458.456 254.283C458.317 254.562 458.178 254.84 457.9 255.119C457.204 254.562 457.621 254.005 457.621 253.587C457.9 244.675 456.647 235.903 454.142 227.409C453.028 223.788 452.054 220.307 450.941 216.687C449.688 212.509 448.992 208.332 448.575 204.154C447.461 192.319 450.245 181.457 456.508 171.292C457.482 169.761 458.456 168.229 459.431 166.697C460.266 165.444 460.405 164.191 459.987 162.798C459.57 161.267 459.013 159.735 458.456 158.203C457.065 154.583 455.673 150.823 454.281 147.203C452.889 143.304 451.915 139.405 451.219 135.367C449.966 127.151 450.941 119.214 454.42 111.556C456.09 107.657 458.735 104.315 461.657 101.391C463.745 99.302 465.972 97.4918 468.06 95.5423C470.008 93.8714 472.096 92.2004 474.184 90.5294C478.081 87.3268 481.003 83.2886 483.091 78.5543C485.04 74.2376 486.988 69.921 488.241 65.3259C488.38 64.6296 488.658 63.9334 488.658 63.2371C489.076 58.2243 490.746 53.49 492.973 49.0341C493.112 48.7556 493.112 48.477 493.39 48.0593C492.973 48.1986 492.555 48.0593 492.416 48.1986C486.571 52.5152 480.725 56.8318 475.297 61.7054C470.982 65.6043 467.364 69.921 464.163 74.7946C462.075 77.8581 459.987 80.7822 457.76 83.5671C455.255 86.7698 452.193 89.2762 448.853 91.5042C444.399 94.4283 439.946 97.3525 435.353 100.277C432.151 102.365 428.811 104.315 425.61 106.264C422.131 108.353 419.208 110.999 416.842 114.341C413.362 119.214 410.3 124.227 408.769 129.936C407.517 134.392 407.099 138.848 407.656 143.443C408.213 147.76 409.326 151.798 410.857 155.836C412.527 160.153 414.197 164.469 415.728 168.925C417.677 174.216 418.79 179.647 419.208 185.217C419.765 192.179 418.79 198.863 416.703 205.408C414.893 210.838 412.945 216.269 410.996 221.56C408.63 227.966 406.682 234.51 405.012 241.055C403.759 245.65 402.367 250.384 400.975 254.979C400.975 255.119 400.697 255.258 400.558 255.397C400.419 254.701 400.14 254.144 400.14 253.448C399.305 248.017 398.331 242.447 397.774 237.017C397.078 231.307 395.687 225.738 392.903 220.585C391.511 217.94 390.259 215.155 389.006 212.37C386.64 207.079 386.222 201.648 388.032 196.078C389.841 190.091 390.954 184.103 391.65 177.976C392.207 173.66 393.181 169.343 394.712 165.305C396.522 160.431 399.305 156.254 402.506 152.216C403.62 150.823 404.733 149.57 405.986 148.038C405.429 144.557 404.872 140.797 405.151 137.038C405.429 133.417 406.264 129.797 407.378 126.455C408.491 122.974 410.3 119.632 412.249 116.429C411.553 116.012 411.275 116.569 410.857 116.708C399.444 125.341 389.006 134.81 380.238 146.089C376.201 151.102 372.304 156.254 367.851 160.988C364.65 164.469 364.65 164.469 363.814 169.064C362.562 175.887 363.119 182.432 366.32 188.698C367.711 191.344 369.103 193.989 370.495 196.635C372.026 199.699 373.835 202.762 375.227 205.825C380.655 218.079 381.212 230.472 376.758 243.004C374.949 248.017 372.722 253.03 370.634 257.903C368.407 263.056 365.763 268.068 364.093 273.499C361.727 280.74 360.335 288.12 360.335 295.778C360.335 300.652 360.335 305.386 360.474 310.26C360.613 319.172 359.082 327.805 357.134 336.438C356.299 339.92 353.794 345.907 352.263 348.274C351.567 348.135 351.706 347.717 351.706 347.3C351.567 345.629 351.288 343.818 351.149 342.148C350.314 334.767 347.53 328.223 343.355 322.235C340.711 318.476 338.205 314.577 336.118 310.399C335.561 309.146 334.865 308.032 334.308 306.779C332.082 302.045 330.968 297.032 331.107 291.74C331.107 291.462 331.107 291.183 331.107 290.905C331.525 284.5 330.133 278.512 327.35 272.664C325.54 268.765 323.731 264.866 322.061 260.967C319.416 254.562 317.885 248.017 317.885 241.055C317.885 233.675 319.973 227.13 323.87 221.003C326.654 216.826 329.855 213.066 333.195 209.307C337.51 204.294 341.963 199.42 346.278 194.268C350.592 189.116 354.35 183.685 357.412 177.698C358.665 175.33 359.639 172.685 360.613 170.178C360.753 169.761 360.753 169.204 360.892 168.229C360.196 168.647 359.917 168.925 359.639 169.204C354.211 173.938 348.366 178.115 342.242 181.875C334.448 186.47 327.21 191.762 319.834 197.053C317.189 198.863 314.823 200.952 312.457 203.04C311.761 203.597 311.066 204.294 310.648 204.99C307.725 209.585 305.359 214.598 303.967 219.889C303.411 222.256 302.993 224.763 303.132 227.13C303.411 232.561 304.385 237.852 306.612 242.726C307.725 245.093 308.839 247.46 309.952 249.966C310.787 251.777 311.483 253.587 312.318 255.536C315.937 264.448 316.911 273.638 315.937 283.107C315.38 288.955 313.571 294.247 310.787 299.399C308.978 302.602 306.89 305.804 304.942 308.868C301.462 314.298 297.844 319.729 295.06 325.577C291.58 332.818 289.075 340.477 287.266 348.274C286.848 349.806 286.431 351.477 286.013 353.009C285.874 353.287 285.735 353.566 285.317 354.123C285.039 353.705 284.621 353.426 284.482 353.148C283.508 351.199 282.534 349.249 281.699 347.3C279.75 342.844 277.802 338.527 275.714 334.071C273.905 330.033 272.235 325.856 270.843 321.678C268.198 313.741 267.781 305.665 269.173 297.449C270.425 289.652 272.93 282.272 276.549 275.309C280.029 268.347 284.065 261.802 288.519 255.397C291.302 251.498 293.947 247.599 296.591 243.7C297.983 241.612 299.374 239.384 300.21 237.017C300.905 235.067 301.323 233.118 301.045 231.168C300.349 225.181 301.323 219.611 303.55 214.041C303.828 213.345 303.967 212.648 304.385 211.813C303.55 211.952 302.993 212.509 302.576 212.927C298.539 217.244 294.921 221.699 291.58 226.434C290.328 228.244 289.075 230.054 287.823 231.864C286.848 233.396 286.152 235.067 285.735 236.877C285.039 240.358 284.343 243.84 283.508 247.321C282.255 252.891 280.724 258.46 278.915 263.891C276.549 270.993 272.513 276.98 266.389 281.436C264.719 282.689 263.049 283.943 261.379 285.196C259.708 286.449 258.177 287.841 256.925 289.652C254.141 293.551 251.358 297.449 249.27 301.905C247.461 305.665 245.651 309.425 244.12 313.324C241.337 320.425 239.945 327.805 240.362 335.464C240.641 340.894 241.337 346.186 242.729 351.338C244.12 356.629 245.512 361.92 246.765 367.212C248.296 373.06 249.409 379.048 249.966 385.175C250.244 388.656 250.383 392.276 250.105 395.757C249.688 400.492 248.574 405.087 246.347 409.403C244.816 412.467 243.285 415.391 241.615 418.315C240.223 420.822 238.832 423.467 237.301 425.835C233.543 431.961 230.202 438.367 227.697 445.051C227.419 445.608 227.14 446.164 226.862 447C226.445 446.443 226.166 446.025 225.888 445.608C222.826 439.759 219.764 434.05 216.841 428.202C214.614 423.746 212.666 419.011 211.552 414.138C209.743 406.479 209.604 398.821 212.387 391.301C213.64 388.099 215.171 385.035 217.12 382.111C221.434 375.706 226.723 370.275 232.151 364.845C233.96 363.034 235.77 360.946 237.44 358.996C238.275 358.022 238.832 356.908 239.527 355.794C240.502 353.983 240.641 352.173 240.084 350.085C238.414 343.958 237.996 337.692 237.996 331.426C237.996 327.805 238.553 324.324 239.249 320.843C239.388 320.007 239.667 319.172 239.945 317.779C238.832 318.615 238.553 319.45 238.136 320.147C236.187 323.628 233.682 326.83 230.759 329.476C226.862 333.236 222.13 335.603 217.12 337.274C212.666 338.806 208.212 339.641 203.619 340.337C199.305 340.894 194.99 341.591 190.676 342.008C179.124 343.401 168.407 347.16 158.247 352.869C156.437 353.844 154.767 354.819 152.958 355.654C152.68 355.794 152.401 355.794 151.984 355.933C152.262 355.376 152.401 355.097 152.54 354.958C154.211 352.869 155.881 350.92 157.69 348.971C162.979 342.844 167.433 336.16 170.355 328.78C171.33 326.134 172.025 323.349 172.721 320.704C173.835 316.108 174.809 311.513 176.34 307.057C177.871 303.019 179.68 299.12 182.046 295.639C183.16 294.108 184.412 292.576 185.804 291.323C189.701 287.563 194.433 286.031 199.861 286.449C202.645 286.588 205.289 287.284 207.934 287.981C209.465 288.398 211.135 288.955 212.666 289.373C214.754 289.93 216.702 290.209 218.929 289.93C220.738 289.791 222.269 289.373 223.8 288.398C226.305 286.867 227.558 284.778 227.419 281.854C227.419 280.74 227.14 279.487 227.001 278.373C226.862 275.866 226.445 273.499 226.445 270.993C226.445 267.094 227.697 263.613 230.063 260.688C231.733 258.6 233.821 257.346 236.187 256.233C239.388 254.84 242.868 253.865 246.486 253.448C249.966 253.03 253.306 252.751 256.786 252.473C261.796 252.055 266.667 250.802 271.26 248.713C275.296 246.903 278.219 244.118 280.724 240.637C281.699 239.105 282.395 237.434 283.23 235.763C284.482 232.7 286.431 229.776 288.379 227.13C291.859 222.256 295.477 217.383 299.653 213.066C303.689 208.889 307.586 204.572 311.761 200.534C316.633 195.8 322.339 191.901 328.185 188.28C333.891 184.66 339.597 181.179 345.304 177.558C350.592 174.216 355.603 170.318 360.196 166.001C360.892 165.444 361.448 164.748 362.423 163.634C361.309 163.912 360.753 164.051 360.335 164.191C355.464 166.279 350.314 166.836 345.025 166.419C340.293 166.001 335.561 165.583 330.829 165.165C329.298 165.026 327.767 164.887 326.236 164.887C321.643 164.748 317.189 165.862 313.153 167.95C309.256 170.039 305.777 172.685 302.854 175.887C299.096 179.926 295.199 183.964 291.163 187.723C287.823 190.787 284.9 194.268 282.395 198.167C279.472 202.901 277.245 207.914 275.714 213.345C274.74 216.687 273.905 220.168 272.652 223.51C269.59 232.143 263.745 237.991 255.115 240.915C252.332 241.89 249.27 242.447 246.347 243.004C243.285 243.561 240.223 243.979 237.161 244.397C231.316 245.232 225.61 246.625 220.182 249.409C219.764 249.688 219.207 249.827 218.79 249.966C218.233 249.549 218.372 249.131 218.511 248.713C218.79 245.093 220.182 241.89 221.573 238.548C222.826 235.485 224.357 232.561 225.888 229.776C230.898 221.003 238.136 214.459 247.321 210.281C252.61 207.914 258.038 206.243 263.466 204.433C266.25 203.458 269.173 202.483 271.956 201.369C275.157 200.116 277.941 198.306 280.168 195.66C280.585 195.243 280.724 194.686 281.281 193.711C280.168 194.129 279.472 194.268 278.776 194.546C275.992 195.521 273.07 196.217 270.008 196.635C264.858 197.331 259.848 196.635 254.976 194.825C251.775 193.572 248.713 192.458 245.512 191.205C240.78 189.394 235.909 188.141 231.037 187.445C224.357 186.47 217.815 187.306 211.413 189.394C208.212 190.369 205.011 191.622 201.949 192.736C198.748 193.989 195.547 195.243 192.207 196.357C186.5 198.306 180.655 198.863 174.67 198.724C174.113 198.724 173.417 198.585 172.861 198.585C172.721 197.888 173.278 197.888 173.417 197.888C185.108 195.382 194.294 188.837 202.784 180.9C206.403 177.419 209.465 173.52 212.527 169.482C216.006 165.026 219.764 160.849 224.079 157.228C227.419 154.443 231.038 152.216 235.074 150.684C239.388 149.013 243.842 148.456 248.435 149.291C252.332 149.988 256.229 150.962 260.126 151.659C263.188 152.216 266.25 152.912 269.173 153.33C273.766 154.026 278.219 153.608 282.673 152.355C283.508 152.076 284.482 151.937 285.317 151.659C294.225 149.152 302.297 150.962 309.674 156.114C311.205 157.089 312.597 158.342 313.988 159.456C315.519 160.57 317.05 161.824 318.999 162.102C319.834 162.241 320.669 162.381 321.365 162.241C324.427 161.963 327.489 162.102 330.69 162.381C334.448 162.659 338.066 162.938 341.824 163.355C349.479 164.191 356.577 162.241 363.536 159.039C366.598 157.646 369.242 155.557 371.33 152.912C373.835 149.709 376.48 146.506 378.985 143.304C386.222 134.114 394.712 126.037 403.759 118.796C413.501 110.859 423.801 103.619 434.657 97.2133C436.327 96.2385 437.997 95.2638 439.667 94.0106C439.389 93.8714 439.25 93.5929 439.11 93.5929C435.353 94.0106 431.734 94.4283 427.976 94.9853C426.863 95.1246 425.61 95.4031 424.497 95.6815C420.6 96.517 417.12 98.188 413.919 100.555C411.831 102.226 409.744 104.036 407.656 105.847C403.62 109.467 399.584 113.227 395.269 116.429C391.789 119.075 388.171 121.442 384.274 123.531C379.263 126.176 373.835 127.847 368.268 128.683C361.588 129.518 355.046 128.683 348.783 126.176C344.886 124.506 340.85 122.835 336.814 121.442C328.88 118.657 320.669 117.125 312.318 116.151C306.473 115.455 300.488 115.037 294.642 115.037C289.493 115.037 284.482 114.758 279.333 114.341C277.523 114.201 275.714 114.062 274.044 113.644C274.74 113.505 275.436 113.366 276.132 113.227C277.941 112.809 279.889 112.391 281.699 111.834C288.658 109.885 294.503 106.264 299.514 101.112C302.436 98.0487 305.498 94.9853 308.56 92.0611C311.205 89.5547 314.128 87.3268 317.329 85.6558C324.009 81.8962 331.107 81.1999 338.345 83.7064C341.128 84.6811 343.773 85.6558 346.556 86.6306C348.644 87.3268 350.871 87.8838 353.237 88.023C356.02 88.1623 358.526 87.466 360.474 85.5166C361.309 84.6811 362.144 83.8456 363.119 83.1494C364.65 81.8962 366.041 80.643 367.572 79.6682C371.33 77.0226 375.506 76.1871 379.959 76.6048C384.97 77.0225 389.563 78.5542 394.016 80.9214C397.774 82.8709 401.254 85.3773 404.872 87.7445C407.795 89.694 410.857 91.5042 413.919 93.3144C415.589 94.2891 417.398 94.8461 419.347 94.4283C420.321 94.2891 421.295 94.1498 422.27 94.0106C426.445 93.0359 430.62 92.4789 434.935 91.9219C437.858 91.6434 440.641 91.0864 443.564 90.5294C445.791 90.1117 447.6 88.9977 449.41 87.7445C453.585 84.5419 457.204 80.643 459.987 76.0478C464.441 68.807 470.008 62.4017 476.55 56.9711C476.967 56.5533 477.524 56.1356 477.941 55.7179C477.524 55.0216 477.106 55.3001 476.689 55.4394C474.323 55.7179 471.957 56.1356 469.73 56.4141C468.06 56.6926 466.529 56.9711 464.859 57.3888C462.214 58.0851 459.709 59.3383 457.76 61.2877C455.812 63.2372 453.863 65.0474 451.915 66.9968C449.41 69.364 446.765 71.4527 443.843 73.1236C440.363 75.2123 436.605 76.4656 432.43 76.6048C430.481 76.7441 428.394 76.7441 426.445 76.7441C420.46 76.6048 414.476 76.3263 408.491 76.0478C405.847 75.9086 403.202 75.6301 400.697 74.9338C400.419 74.2376 400.975 74.0984 401.393 73.9591C405.151 72.0097 408.213 69.2247 410.857 65.8828C412.249 64.2119 413.78 62.6802 415.45 61.1485C418.651 58.2243 422.548 56.8318 427.002 57.2496C428.95 57.3888 431.038 57.6673 432.987 57.9458C436.884 58.5028 440.641 58.2243 444.26 56.8318C445.095 56.5533 445.791 56.2748 446.626 56.1356C450.106 54.8824 453.724 54.1862 457.343 54.6039C462.91 55.0217 468.338 54.1862 473.905 53.4899C480.029 52.6544 485.457 50.4265 490.189 46.3884C498.122 39.7045 505.916 32.8815 513.432 25.7799C515.381 24.5267 516.494 23.2735 517.747 22.0203C517.747 21.881 517.886 21.881 517.886 21.7418C517.747 21.881 517.747 21.881 517.747 22.0203ZM290.467 294.247C290.189 293.829 289.91 293.968 289.493 294.108C287.405 294.804 285.317 295.361 283.23 295.918C282.116 296.196 281.142 296.475 280.029 296.753C277.245 297.728 274.879 299.26 272.791 301.488C271.539 302.88 270.843 304.412 270.982 306.361C270.982 311.653 271.956 316.805 273.766 321.818C273.905 322.235 274.183 322.653 274.601 323.349C274.74 322.514 274.879 322.096 275.018 321.678C275.296 319.729 275.436 317.919 275.853 315.969C276.688 312.07 278.08 308.45 280.307 305.247C283.091 301.209 286.57 297.449 290.467 294.247C290.467 294.108 290.467 294.108 290.467 293.968C290.467 293.968 290.467 293.829 290.606 293.829C290.606 294.108 290.606 294.108 290.467 294.247ZM401.393 241.333C401.393 241.472 401.254 241.751 401.254 241.89L401.393 241.751C401.393 241.612 401.393 241.472 401.393 241.333C401.393 240.915 401.532 240.498 401.671 240.08C401.95 235.485 402.924 231.029 404.037 226.712C404.455 225.041 404.872 223.37 405.151 221.699C406.264 216.965 406.542 212.231 405.986 207.357C405.568 203.04 405.012 198.863 404.455 194.686C404.455 194.268 404.176 193.85 404.037 193.293C403.481 193.711 403.063 193.989 402.924 194.407C402.367 195.382 401.81 196.217 401.393 197.331C400.419 199.838 400.279 202.483 400.558 205.129C400.836 207.496 400.975 209.864 401.114 212.231C401.254 216.408 400.558 220.446 398.331 224.067C398.192 224.345 398.053 224.763 397.913 225.041C399.584 229.219 400.279 233.675 400.558 238.131C400.697 239.105 400.697 239.941 400.836 240.776C400.975 240.776 401.254 241.055 401.393 241.333ZM353.794 338.249C353.794 338.388 353.654 338.666 353.654 338.806C353.794 338.806 353.794 338.806 353.933 338.806C353.933 338.666 353.794 338.388 353.794 338.249C354.489 337.552 354.211 336.578 354.211 335.603C354.35 330.033 353.376 324.602 351.984 319.172C350.871 314.855 349.479 310.539 348.226 306.361C347.252 302.88 346.278 299.399 345.721 295.778C345.721 295.5 345.443 295.221 345.304 294.804C345.025 294.943 344.747 295.082 344.747 295.222C343.494 297.589 342.103 299.956 340.989 302.462C340.154 304.412 339.876 306.64 339.736 308.868C339.736 310.678 340.015 312.349 340.989 313.741C342.52 315.969 343.912 318.197 345.304 320.286C348.922 325.438 351.706 330.869 352.958 336.995C353.237 337.552 353.654 337.831 353.794 338.249ZM355.881 332.54C355.881 332.679 355.742 332.818 355.742 332.957C355.881 332.957 356.02 332.957 356.02 332.818C356.02 332.679 355.881 332.679 355.881 332.54C356.577 331.843 356.577 330.869 356.716 330.033C358.108 323.21 358.943 316.248 358.804 309.146C358.804 306.64 358.804 304.273 358.665 301.766C358.665 300.791 358.665 299.817 358.526 298.842C357.691 292.994 356.577 287.145 354.489 281.575C353.515 278.79 352.123 276.006 350.592 273.499C350.314 273.081 350.175 272.664 349.479 272.803C349.34 273.081 349.201 273.36 349.061 273.638C348.226 276.284 347.531 279.069 347.113 281.854C346.278 288.955 346.695 296.057 348.644 302.88C349.618 306.361 350.732 309.842 351.706 313.324C353.376 319.172 354.907 325.159 355.325 331.147C355.464 331.704 355.742 332.122 355.881 332.54ZM261.1 268.068C257.482 267.511 254.559 266.954 251.636 266.537C250.662 266.397 249.688 266.258 248.713 266.258C241.754 265.98 235.909 268.625 231.037 273.499C229.785 274.613 229.089 276.006 229.646 277.816C229.924 278.79 230.063 280.044 230.063 281.018C230.063 282.132 230.063 283.386 229.646 284.5C228.671 287.841 226.305 289.93 223.243 291.044C219.903 292.297 216.424 292.158 213.083 291.462C211.552 291.044 209.882 290.626 208.351 290.209C205.707 289.512 202.923 288.677 200.14 288.538C195.268 288.12 190.954 289.652 187.474 293.133C185.665 294.943 184.134 296.892 182.882 299.26C180.794 303.019 179.263 306.918 178.01 311.096C177.871 311.513 178.01 312.07 177.871 312.767C178.567 312.07 179.124 311.513 179.68 310.956C181.907 308.45 184.552 306.5 187.335 304.969C193.042 301.905 199.165 300.791 205.568 301.209C207.795 301.348 209.882 301.627 212.109 301.905C215.171 302.184 218.094 302.184 221.017 301.488C225.331 300.513 228.811 298.285 230.898 293.968C231.733 292.158 232.708 290.487 233.821 288.677C238.136 281.715 243.842 276.284 251.497 272.942C253.863 271.828 256.229 270.714 258.595 269.6C259.152 269.322 259.848 268.765 261.1 268.068ZM329.159 268.625C329.298 267.929 329.298 267.511 329.298 266.954C329.716 260.271 332.082 254.144 335.979 248.852C338.066 246.068 340.293 243.422 342.52 240.915C345.582 237.434 348.922 234.232 352.123 230.89C354.211 228.662 355.881 226.295 357.273 223.51C358.665 220.725 359.361 217.94 358.943 214.737C358.804 213.066 358.665 211.256 358.526 209.585C358.526 209.167 358.526 208.61 357.83 208.471C357.551 208.75 357.273 209.167 357.134 209.585C354.907 213.902 351.428 217.383 347.391 220.029C344.886 221.699 342.242 223.231 339.736 224.624C335.839 226.852 332.082 229.219 328.741 232.143C326.236 234.232 324.009 236.738 322.478 239.662C321.226 241.89 320.669 244.257 321.226 246.764C321.365 247.599 321.504 248.574 321.643 249.409C322.896 256.093 325.679 262.22 328.602 268.208C328.602 268.347 328.741 268.347 329.159 268.625ZM459.013 150.405C459.291 149.988 459.431 149.709 459.57 149.57C461.101 145.392 463.328 141.633 465.694 138.012C470.287 131.189 476.132 125.898 483.648 122.556C484.483 122.138 485.318 121.721 486.153 121.303C486.014 115.594 485.875 110.024 485.735 104.315C485.735 104.176 485.735 104.176 485.596 104.036C485.596 104.036 485.457 103.897 485.318 103.758C484.761 103.897 484.204 104.036 483.648 104.176C476.689 106.264 470.287 109.328 464.302 113.505C461.24 115.733 458.178 118.1 455.673 121.024C454.559 122.278 454.003 123.67 453.863 125.48C453.724 128.126 453.724 130.772 454.142 133.417C454.838 138.987 456.508 144.279 458.456 149.431C458.596 149.709 458.735 149.988 459.013 150.405ZM372.304 110.72C371.191 110.163 370.634 109.885 370.078 109.745C368.268 109.328 366.459 109.049 364.789 108.771C362.84 108.492 360.753 108.492 358.804 108.214C353.515 107.378 348.644 105.707 344.469 102.087C342.938 100.834 341.407 99.4412 340.015 98.0487C336.814 94.8461 333.056 92.7574 328.741 91.6434C324.705 90.5294 320.669 90.1117 316.633 90.8079C315.102 91.0864 313.71 91.5042 312.457 92.7574C309.535 95.6816 306.612 98.4665 303.689 101.251C303.55 101.391 303.411 101.669 303.272 101.808C303.411 102.087 303.55 102.226 303.689 102.226C307.308 102.922 310.787 104.454 314.127 106.125C314.684 106.404 315.38 106.543 315.937 106.543C321.365 106.543 326.514 107.657 331.803 108.91C336.396 110.163 341.128 111.277 345.86 112.391C354.211 114.48 362.423 113.644 370.634 111.277C370.913 111.277 371.33 111.138 372.304 110.72ZM203.341 337.692C203.758 337.692 204.037 337.831 204.315 337.831C210.021 336.995 215.728 335.742 221.156 333.375C225.888 331.286 229.785 328.084 233.125 324.045C233.682 323.488 234.099 322.653 234.378 321.957C236.187 317.919 237.301 313.741 237.022 309.285C236.883 307.057 236.744 304.69 236.605 302.462C236.187 295.778 237.301 289.373 240.363 283.386C240.502 283.107 240.919 282.689 240.502 282.132C239.945 282.55 239.527 282.968 239.11 283.386C236.744 286.031 234.795 288.816 233.264 291.88C231.594 295.082 230.063 298.146 228.393 301.348C224.914 308.032 220.321 313.88 214.058 318.197C212.248 319.45 211.135 321.121 210.717 323.21C210.3 325.02 209.743 326.97 209.186 328.78C208.351 331.565 206.96 334.071 204.733 336.16C204.176 336.717 203.758 337.135 203.341 337.692ZM321.086 239.384C321.643 238.687 321.782 238.548 321.922 238.27C323.87 235.067 326.375 232.561 329.159 230.193C332.36 227.548 335.979 225.32 339.597 223.231C342.938 221.421 346.139 219.472 349.201 217.104C352.263 214.737 354.768 211.813 356.438 208.332C357.273 206.522 358.108 204.711 358.108 202.623C357.969 197.749 358.665 193.015 359.361 188.28C359.917 185.217 360.335 182.154 360.892 179.09C360.892 178.672 361.17 178.255 360.474 177.837C360.196 178.255 360.057 178.533 359.778 178.951C356.299 185.495 352.123 191.483 347.252 197.053C342.52 202.623 337.51 208.193 332.778 213.623C329.576 217.383 326.514 221.142 324.288 225.598C322.339 229.358 321.226 233.396 320.947 237.574C320.947 238.27 320.947 238.548 321.086 239.384ZM452.332 192.597C452.611 192.179 452.889 191.901 453.028 191.483C453.724 189.951 454.699 188.698 455.951 187.584C459.013 184.66 462.075 181.736 465.276 178.812C467.781 176.584 470.147 174.216 472.235 171.432C474.184 168.925 475.993 166.279 477.802 163.634C478.916 162.102 479.89 160.431 480.725 158.76C482.952 154.165 484.483 149.291 485.318 144.279C486.292 138.291 486.431 132.303 486.431 126.316C486.431 126.037 486.292 125.759 486.153 125.341C485.735 125.62 485.318 125.759 485.179 126.037C482.395 128.683 480.029 131.746 478.637 135.367C477.524 138.012 476.55 140.797 475.715 143.582C473.349 151.38 469.869 158.482 464.719 164.748C462.214 167.811 459.987 171.153 458.039 174.634C455.255 179.786 453.307 185.217 452.332 191.065C451.915 191.622 451.637 192.179 452.332 192.597ZM359.778 231.586C359.361 232.143 359.222 232.282 359.222 232.421C357.83 237.991 355.742 243.283 353.237 248.574C351.01 253.308 348.505 258.043 345.164 262.22C342.938 265.005 340.711 267.79 338.484 270.575C336.118 273.499 334.587 276.98 333.891 280.601C333.752 281.436 333.613 282.411 333.752 283.246C333.752 286.031 334.03 288.677 334.03 291.462C333.891 297.31 335.283 302.602 337.927 307.754C338.066 308.032 338.345 308.311 338.762 308.728C338.901 307.893 339.041 307.475 339.041 307.057C339.319 304.69 339.876 302.462 340.989 300.234C341.963 298.424 342.798 296.614 343.912 294.943C345.025 292.994 345.582 291.044 345.582 288.677C345.443 282.272 346.556 276.006 349.201 270.018C350.871 266.398 352.68 263.056 354.35 259.435C355.325 257.207 356.438 254.979 357.273 252.612C359.5 246.207 360.196 239.523 360.196 232.7C360.057 232.561 359.917 232.143 359.778 231.586ZM216.702 314.159C214.475 314.159 212.527 314.159 210.717 314.02C209.047 313.88 207.238 313.602 205.568 313.463C200.557 312.906 195.547 312.627 190.676 313.463C185.526 314.298 180.933 316.387 176.897 319.59C175.923 320.425 175.227 321.4 174.948 322.653C174.531 324.463 173.974 326.134 173.417 327.944C171.747 332.679 169.381 337.135 166.737 341.312C166.458 341.591 166.319 342.008 165.902 342.704C166.458 342.426 166.737 342.426 167.015 342.287C171.19 338.249 176.201 335.603 181.629 333.514C185.665 331.983 189.701 330.172 193.737 328.362C200.836 325.159 207.516 321.4 213.779 316.805C214.614 316.108 215.728 315.412 216.702 314.159ZM405.151 39.8438C405.29 39.9831 405.429 40.1223 405.568 40.2615C409.744 40.9578 413.919 41.3755 418.094 40.8185C418.929 40.6792 419.765 40.54 420.46 40.2615C423.522 38.7298 426.167 36.7804 428.115 33.8562C429.785 31.3498 431.595 28.9826 433.543 26.6154C435.909 23.8305 438.554 21.3241 441.894 19.7923C442.172 19.6531 442.451 19.3746 442.729 19.0961C442.172 18.8176 441.755 18.5391 441.337 18.3999C438.554 17.2859 435.77 16.1719 432.987 15.0579C430.899 14.3617 428.672 13.8047 426.445 13.1085C425.053 12.6908 423.662 12.9693 422.409 13.5262C421.435 14.0832 420.46 14.6402 419.625 15.3364C417.398 17.1466 415.868 19.5138 414.615 22.1595C413.919 23.6912 413.362 25.3621 412.666 26.8938C410.857 31.489 408.769 35.9449 405.151 39.426C405.151 39.426 405.151 39.5653 405.151 39.8438ZM332.917 278.512C333.334 277.676 333.613 277.119 333.891 276.562C334.587 275.031 335.144 273.499 335.979 272.107C337.231 270.157 338.623 268.208 340.154 266.398C343.355 262.499 346.417 258.6 348.922 254.144C351.984 248.852 354.35 243.283 356.438 237.434C357.969 232.978 359.082 228.523 359.5 223.927C359.5 223.37 359.778 222.813 359.082 222.396C358.943 222.674 358.665 222.953 358.526 223.231C356.716 226.991 354.072 230.333 351.149 233.257C348.505 236.042 345.86 238.687 343.216 241.472C340.293 244.536 337.51 247.878 335.283 251.498C331.942 257.068 330.133 263.056 330.272 269.6C330.411 273.081 331.664 275.588 332.917 278.512ZM349.201 89.9725C351.01 92.2004 352.958 94.2891 355.185 95.8208C358.526 98.188 362.283 99.5804 366.32 100.137C368.268 100.416 370.217 100.694 372.165 101.112C375.923 101.808 378.985 103.619 381.073 106.821C381.212 106.96 381.351 106.96 381.629 106.96C384.691 105.847 391.233 102.644 392.625 101.53C392.207 100.694 391.79 99.7197 391.233 98.8842C389.841 96.9348 388.449 94.8461 386.779 93.0359C381.908 87.7445 375.923 85.0988 368.686 84.8203C366.459 84.6811 364.51 84.9596 363.119 86.909C362.979 87.0483 362.84 87.1875 362.701 87.3268C360.057 89.9725 356.856 90.9472 353.237 90.5294C352.123 90.3902 350.732 90.1117 349.201 89.9725ZM312.736 165.305C312.318 165.026 312.04 164.887 311.901 164.887C307.169 164.469 302.436 164.608 297.704 165.305C296.313 165.583 295.477 166.14 294.642 167.254C291.024 172.406 286.431 176.584 281.142 179.647C278.915 181.04 276.549 182.154 274.183 183.267C270.982 184.799 267.781 186.331 264.58 188.002C262.492 188.977 260.683 190.369 259.152 192.04C258.873 192.318 258.456 192.597 258.595 193.293C258.734 193.432 259.013 193.572 259.291 193.711C259.848 193.85 260.544 193.989 261.1 194.129C265.276 194.964 269.451 194.686 273.487 193.85C279.472 192.597 284.622 189.673 289.354 185.774C293.111 182.85 296.313 179.369 299.514 175.887C303.132 171.989 307.029 168.507 311.761 165.862C312.04 165.862 312.318 165.583 312.736 165.305ZM279.611 245.928C278.776 246.625 278.358 247.042 277.802 247.321C276.688 248.156 275.575 248.992 274.461 249.549C269.868 251.916 264.997 253.587 259.708 254.283C257.482 254.562 255.394 254.562 253.167 254.84C250.662 255.119 248.157 255.258 245.651 255.676C242.729 256.093 239.806 256.929 237.022 258.182C232.847 259.992 230.342 263.195 229.507 267.511C229.228 269.043 229.228 270.575 229.089 272.107C229.089 272.524 229.367 272.803 229.507 273.36C229.924 273.081 230.063 272.803 230.202 272.664C230.481 272.385 230.759 272.107 231.037 271.967C237.022 266.537 243.981 264.17 252.054 265.562C253.167 265.701 254.42 265.98 255.533 266.119C256.925 266.398 258.456 266.537 259.848 266.676C262.353 266.955 264.58 266.398 266.389 264.727C266.946 264.17 267.502 263.752 268.059 263.334C273.07 259.157 276.271 253.726 279.054 247.878C279.333 247.46 279.333 246.903 279.611 245.928ZM280.446 249.688C280.307 249.549 280.307 249.409 280.168 249.409C280.168 249.409 280.029 249.409 279.889 249.549C279.472 250.384 278.915 251.359 278.498 252.194C274.74 259.574 269.173 265.284 261.796 269.322C259.013 270.853 256.229 272.246 253.306 273.638C251.636 274.474 250.244 275.449 248.992 276.841C246.765 279.347 245.512 282.132 244.538 285.196C242.45 291.183 242.033 297.171 242.589 303.437C242.589 303.576 242.868 303.716 242.868 303.716C243.007 303.716 243.007 303.716 243.146 303.576C243.564 303.019 243.981 302.323 244.26 301.766C246.765 297.032 249.827 292.576 253.724 288.816C256.646 285.892 259.569 283.107 262.77 280.601C264.719 279.069 266.528 277.537 268.477 275.866C271.678 273.081 274.044 269.6 275.575 265.701C275.714 265.144 275.992 264.727 276.132 264.17C278.219 259.435 279.472 254.562 280.446 249.688ZM380.238 107.378C379.82 106.821 379.542 106.264 379.124 105.707C377.315 103.758 374.949 102.505 372.304 102.087C370.217 101.669 368.129 101.391 366.181 101.112C360.753 100.416 356.16 98.188 352.123 94.5676C350.314 92.8966 348.505 91.2257 346.556 89.694C345.86 89.1369 345.164 88.58 344.329 88.1622C342.103 87.3268 339.736 86.4913 337.37 85.7951C330.551 83.7064 324.288 84.8203 318.303 88.4407C318.025 88.58 317.746 88.8585 317.189 89.4155C318.442 89.4155 319.138 89.4155 319.834 89.4155C322.617 89.4155 325.262 89.694 327.906 90.2509C332.778 91.3649 337.092 93.4536 340.711 97.074C341.685 98.0487 342.798 99.1627 343.912 99.9982C346.278 102.087 348.783 103.758 351.706 105.011C355.185 106.404 358.804 107.1 362.562 107.378C366.598 107.657 370.495 107.935 373.975 110.163C376.062 109.467 378.289 108.91 380.238 107.378ZM271.26 170.457C267.502 169.9 264.023 169.482 260.683 169.064C258.317 168.786 255.811 168.368 253.445 167.95C251.775 167.672 250.383 167.95 249.131 169.064C247.878 170.039 246.626 171.153 245.512 172.406C243.703 174.495 242.172 176.723 240.502 178.812C238.692 181.04 236.744 182.989 234.239 184.381C233.96 184.521 233.404 184.66 233.404 185.217C236.465 186.052 239.527 186.609 242.589 187.584C245.651 188.559 248.713 189.673 251.914 190.787C252.193 190.508 252.471 190.23 252.749 189.951C255.116 186.47 258.177 183.685 261.657 181.179C263.327 180.065 264.858 178.812 266.389 177.419C268.059 175.887 269.59 174.216 270.704 172.128C270.843 171.849 270.982 171.292 271.26 170.457ZM495.617 153.19C496.035 152.912 496.174 152.773 496.452 152.633C498.122 150.405 499.793 148.177 501.602 145.949C503.69 143.165 504.385 140.101 504.246 136.759C504.107 131.886 502.715 127.29 499.932 123.113C498.679 121.303 497.287 119.632 495.756 118.1C493.112 115.176 490.468 112.113 488.241 108.771C488.102 108.631 487.823 108.492 487.545 108.353C487.266 109.606 487.406 110.581 487.406 111.695C487.684 119.353 487.962 127.012 487.684 134.531C487.684 135.645 487.962 136.481 488.658 137.177C492.416 141.494 494.782 146.367 495.339 152.076C495.339 152.494 495.478 152.773 495.617 153.19ZM368.547 257.903C368.686 257.625 368.964 257.486 368.964 257.347C370.495 253.726 372.165 249.966 373.696 246.346C375.227 242.726 376.341 238.966 377.036 235.206C377.315 233.814 377.315 232.282 376.897 230.89C376.201 227.826 375.088 225.041 373.418 222.396C371.887 220.029 370.356 217.661 368.686 215.433C365.345 210.838 362.423 206.104 360.335 200.812C360.196 200.534 360.196 200.116 359.5 200.256C359.5 200.952 359.361 201.648 359.361 202.344C359.639 206.661 359.917 210.838 360.196 215.155C360.474 218.358 360.753 221.56 360.892 224.624C361.031 225.877 361.309 227.13 362.005 228.244C364.093 231.447 365.485 235.067 366.459 238.687C367.99 244.257 368.686 249.966 368.268 255.676C368.407 256.233 367.99 257.068 368.547 257.903ZM432.987 13.1085C432.43 11.4375 431.456 10.3236 430.481 9.34887C427.837 6.70318 424.636 4.89296 421.017 3.50051C418.234 2.38652 415.172 1.9688 412.249 1.41179C409.883 0.994068 407.378 0.576312 405.151 -0.259168C404.176 -0.537671 403.202 -0.816144 402.228 -0.816144C395.687 -1.09465 389.841 0.854814 384.831 5.03221C384.552 5.17146 384.413 5.58916 383.995 6.00691C385.109 6.14617 385.944 6.28542 386.918 6.42467C390.119 6.84242 392.764 8.23488 394.851 10.7413C395.826 11.8553 396.8 13.1085 397.774 14.3617C398.053 14.7794 398.47 15.1972 398.748 15.6149C401.532 14.501 404.176 13.387 406.96 12.5515C409.744 11.5768 412.666 11.2983 415.589 11.0198C418.512 10.7413 421.435 10.7413 424.218 11.2983C427.141 11.716 429.925 12.4123 432.987 13.1085ZM299.096 313.741C299.235 313.602 299.514 313.463 299.653 313.184C302.436 308.868 305.22 304.412 308.004 300.095C309.535 297.728 310.091 295.082 309.952 292.297C309.813 289.095 308.978 286.031 307.725 283.107C306.751 280.879 305.638 278.651 304.524 276.423C302.993 273.081 301.323 269.879 300.488 266.258C300.488 265.98 300.21 265.841 299.931 265.423C299.653 266.537 299.374 267.372 299.235 268.208C297.704 274.335 296.313 280.461 294.782 286.449C294.086 289.095 294.225 291.462 295.06 293.968C295.756 295.918 296.452 297.728 297.287 299.538C298.957 303.437 299.653 307.475 298.957 311.792C298.818 312.627 298.539 313.184 299.096 313.741ZM488.658 74.9338C488.519 74.9338 488.241 74.7946 488.102 74.7946C487.684 75.6301 487.406 76.4656 486.988 77.3011C484.204 83.4279 480.725 88.9977 475.297 93.1751C473.627 94.5676 471.818 95.8208 470.287 97.3525C468.06 99.302 465.694 101.251 463.606 103.479C459.431 107.796 456.508 112.948 455.116 118.796C454.977 119.214 455.116 119.632 455.116 120.328C456.647 118.936 457.9 117.682 459.291 116.429C466.25 110.442 474.323 106.264 483.091 103.479C484.065 103.201 485.04 103.062 485.875 102.365C486.292 97.7703 486.571 93.3144 486.988 88.7193C487.406 83.9849 488.38 79.529 488.658 74.9338ZM470.147 178.115C468.477 180.761 467.364 183.546 466.529 186.331C464.302 193.711 463.606 201.23 464.023 209.028C464.163 212.509 464.58 216.13 464.719 219.611C464.998 224.484 465.137 229.219 464.441 234.092C464.441 234.371 464.58 234.789 464.58 235.346C466.25 231.864 467.781 228.523 469.312 225.32C471.4 220.864 473.627 216.547 475.019 211.813C475.575 210.003 475.715 208.332 475.715 206.382C475.715 202.205 474.601 198.306 473.488 194.407C472.096 189.394 470.704 184.242 470.426 178.951C470.426 178.533 470.426 178.394 470.147 178.115ZM227.14 300.652C226.166 300.513 226.166 300.513 225.749 300.791C223.104 302.323 220.182 302.88 217.12 303.019C215.171 303.019 213.083 303.019 211.135 302.88C209.186 302.741 207.099 302.323 205.15 302.184C198.887 301.766 192.902 302.88 187.335 306.083C183.16 308.45 179.959 311.653 177.175 315.412C176.479 316.248 176.201 317.362 176.34 318.754C177.036 318.336 177.593 318.058 178.01 317.64C182.742 314.437 187.892 312.488 193.459 312.07C197.356 311.792 201.253 311.792 205.15 312.349C207.377 312.627 209.465 312.906 211.692 313.045C213.223 313.184 214.754 313.045 216.284 312.906C218.233 312.767 219.903 311.792 221.156 310.121C223.383 307.197 225.47 304.133 227.14 300.652ZM243.703 409.96C244.12 409.264 244.399 409.125 244.399 408.846C246.626 404.251 248.017 399.517 248.157 394.504C248.435 390.327 248.157 386.149 247.6 381.972C246.765 374.313 244.677 366.933 242.729 359.553C242.729 359.414 242.45 359.275 242.172 358.857C241.893 359.693 241.754 360.389 241.615 361.085C240.78 364.148 239.945 367.212 239.11 370.275C237.857 374.592 236.605 378.769 235.352 383.086C234.656 385.175 234.656 387.263 235.213 389.213C235.77 390.884 236.326 392.555 237.022 394.086C238.136 396.454 239.527 398.682 240.78 401.049C242.033 403.416 243.007 405.783 243.146 408.568C243.285 408.986 243.424 409.264 243.703 409.96ZM361.866 229.636C361.727 229.636 361.448 229.776 361.309 229.776C361.309 230.611 361.309 231.586 361.309 232.421C361.309 237.295 360.892 242.029 359.917 246.764C358.943 252.055 356.856 257.068 354.35 261.802C353.654 263.195 352.541 264.587 352.263 266.258C352.958 267.511 353.794 268.765 354.489 270.018C356.577 273.638 357.83 277.676 358.665 281.715C358.804 282.272 358.804 282.968 359.5 283.386C359.639 282.829 359.778 282.55 359.778 282.132C360.892 276.702 362.423 271.41 364.789 266.258C366.181 263.195 366.737 259.992 367.016 256.79C367.155 255.119 367.294 253.587 367.294 251.916C367.294 244.954 365.902 238.131 362.979 231.864C362.701 231.168 362.283 230.472 361.866 229.636ZM364.928 38.7298C366.181 39.0083 367.016 38.869 367.851 38.869C373.279 38.5906 378.707 38.1728 384.135 38.0336C386.362 38.0336 388.31 37.6159 390.119 36.5019C391.65 35.5271 393.181 34.5524 394.573 33.4385C397.078 31.489 399.166 28.9826 401.115 26.4761C405.012 21.6025 409.326 17.0074 414.476 13.387C414.754 13.2477 415.172 13.1085 414.754 12.5515C414.337 12.5515 413.78 12.5515 413.223 12.6908C407.238 13.387 401.671 15.4757 396.8 18.8176C393.738 20.9063 390.676 23.1342 387.892 25.5014C382.325 30.2358 376.201 33.9954 369.382 36.7803C368.268 37.1981 367.155 37.6158 366.041 38.1728C365.763 38.1728 365.485 38.3121 364.928 38.7298ZM487.127 145.114C486.988 145.114 486.71 145.114 486.571 145.114C486.431 145.81 486.292 146.506 486.153 147.203C484.622 154.165 481.978 160.57 477.802 166.279C476.41 168.229 475.158 170.178 473.627 171.989C472.374 173.52 471.818 175.33 471.818 177.28C471.818 178.255 471.818 179.09 471.818 180.065C471.957 183.128 472.653 186.052 473.349 188.977C474.462 193.154 475.436 197.471 476.55 201.648C476.55 201.787 476.828 201.926 477.106 202.483C477.385 200.952 477.524 199.838 477.663 198.585C478.498 192.319 479.612 186.052 481.143 179.786C482.395 174.773 483.926 169.761 486.571 165.305C487.823 163.216 488.519 160.988 488.797 158.621C489.215 155 489.076 151.38 488.102 147.76C487.823 146.924 487.406 146.089 487.127 145.114ZM413.501 98.188C404.872 98.745 393.877 102.087 388.728 105.429C388.728 105.707 388.588 106.125 388.588 106.404C387.614 112.948 383.856 117.543 377.872 120.189C375.088 121.442 372.304 122.278 369.242 122.695C367.433 122.974 365.624 123.113 363.814 123.392C361.309 123.67 358.943 124.088 356.716 125.063C356.438 125.202 356.16 125.48 355.742 125.759C356.438 126.037 356.856 126.176 357.273 126.316C361.17 127.151 365.206 127.151 369.242 126.594C375.506 125.759 381.212 123.531 386.501 120.328C391.094 117.682 395.269 114.48 399.305 111.138C404.037 107.1 408.769 102.922 413.501 98.745C413.501 98.745 413.501 98.6057 413.501 98.188ZM278.776 277.816C281.838 276.562 284.9 276.284 287.962 275.866C289.075 275.727 290.328 275.449 291.441 275.17C292.694 274.752 293.947 274.195 295.199 273.638C296.452 272.942 297.148 271.967 297.565 270.436C299.096 263.891 300.488 257.347 301.462 250.663C301.88 247.739 301.88 244.814 302.158 242.029C302.158 241.612 302.019 241.194 301.88 240.358C301.462 240.915 301.184 241.194 301.045 241.472C297.983 246.068 295.06 250.523 291.998 255.119C288.379 260.549 284.622 265.98 281.56 271.689C280.307 273.638 279.333 275.588 278.776 277.816ZM271.539 300.931C271.956 300.791 272.095 300.791 272.235 300.791C272.513 300.652 272.652 300.513 272.93 300.234C275.436 297.449 278.776 295.918 282.395 295.082C283.786 294.804 285.039 294.525 286.431 294.108C287.962 293.69 289.354 293.133 290.606 292.158C291.859 291.183 292.833 290.069 293.251 288.538C294.364 284.36 295.338 280.044 296.452 275.866C296.591 275.449 296.869 275.031 296.313 274.613C296.034 274.613 295.895 274.613 295.756 274.613C292.833 276.145 289.771 276.702 286.57 277.119C285.178 277.259 283.926 277.537 282.534 277.816C279.193 278.512 276.967 280.461 275.714 283.803C274.183 288.398 272.791 293.133 271.956 298.006C271.678 298.981 271.678 299.817 271.539 300.931ZM283.786 167.393C280.724 165.722 279.054 163.634 277.384 161.406C276.132 159.874 274.879 158.342 273.209 157.089C272.513 156.532 271.678 156.114 270.704 156.114C266.389 155.836 262.353 154.722 258.177 153.886C254.976 153.19 251.775 152.494 248.574 151.937C246.486 151.519 244.399 151.519 242.311 151.798C241.893 151.798 241.337 151.798 241.337 152.494C242.172 152.912 243.007 153.19 243.842 153.608C246.904 154.722 249.688 156.671 252.054 158.899C253.585 160.292 254.976 161.824 256.368 163.355C257.342 164.33 258.177 165.444 259.152 166.279C260.265 167.393 261.657 168.09 263.188 168.229C266.807 168.647 270.425 169.064 274.044 168.925C276.688 168.786 279.333 168.368 281.838 168.09C282.395 168.09 282.812 167.811 283.786 167.393ZM284.343 345.35C284.343 328.362 286.709 312.21 290.885 295.918C290.189 296.335 289.771 296.475 289.493 296.753C287.823 298.424 286.013 300.234 284.343 302.045C278.776 308.45 276.271 315.969 275.992 324.324C275.853 326.83 276.41 329.198 277.523 331.426C279.611 335.742 281.56 340.198 283.647 344.515C283.647 344.515 283.786 344.654 284.343 345.35ZM208.351 188.002C209.047 187.863 209.604 187.723 210.161 187.584C216.285 185.635 222.548 184.521 228.95 184.938C229.507 184.938 230.202 184.938 230.759 184.66C232.847 183.964 234.795 183.128 236.466 181.457C237.718 180.204 238.971 178.812 240.084 177.419C242.729 174.216 244.955 170.596 248.296 168.09C248.435 167.95 248.435 167.811 248.574 167.533C248.157 167.393 247.739 167.254 247.321 167.254C241.893 166.836 236.605 167.811 231.733 170.178C228.671 171.71 225.61 173.52 222.965 175.609C218.094 179.369 213.362 183.407 208.63 187.306C208.491 187.445 208.49 187.584 208.351 188.002ZM275.714 203.18C275.575 203.04 275.436 202.901 275.296 202.762C273.766 203.319 272.374 204.015 270.843 204.572C266.25 206.104 261.657 207.636 257.203 209.167C253.863 210.42 250.523 211.674 247.321 213.066C242.172 215.433 237.718 218.775 233.821 223.092C233.543 223.51 233.264 223.927 232.986 224.345C235.63 224.624 237.996 225.041 240.363 225.32C242.033 225.459 243.564 225.32 245.095 224.624C249.548 222.396 254.141 220.307 258.456 217.94C264.301 214.876 269.312 210.699 273.626 205.686C274.601 204.99 275.157 204.015 275.714 203.18ZM164.788 346.882C165.623 346.603 166.458 346.325 167.293 345.907C174.113 342.844 181.351 340.894 188.727 339.92C191.928 339.502 194.99 339.084 198.191 338.666C199.165 338.527 200.14 338.388 200.975 337.831C203.341 336.299 205.289 334.489 206.542 331.983C208.351 328.78 208.908 325.159 209.882 321.4C209.186 321.678 208.769 321.818 208.351 321.957C199.861 327.248 190.815 331.147 181.629 334.767C180.098 335.324 178.567 336.021 177.175 336.717C172.165 339.084 168.268 342.704 164.788 346.882ZM486.014 123.531C485.875 123.252 485.735 123.252 485.735 123.252C485.457 123.252 485.179 123.252 485.04 123.252C481.699 124.645 478.498 126.455 475.575 128.683C472.653 131.05 470.008 133.696 467.921 136.759C464.859 141.076 462.214 145.532 460.266 150.545C459.709 152.076 459.57 153.33 460.405 154.722C460.683 155.14 460.683 155.557 460.962 155.975C461.936 158.342 462.91 160.849 463.328 163.494C463.328 163.634 463.606 163.773 463.884 163.912C464.719 162.938 465.276 161.824 466.111 160.849C469.173 156.95 471.261 152.494 472.931 147.899C474.044 144.696 475.019 141.494 476.132 138.291C477.941 133 480.725 128.265 485.04 124.506C485.318 124.227 485.735 123.809 486.014 123.531ZM468.756 30.2358C468.756 30.0966 468.895 29.9573 468.895 29.9573C468.477 29.6788 468.199 29.4003 467.781 29.2611C460.544 26.3369 453.307 23.2735 446.069 20.3493C445.095 19.9316 444.26 19.9316 443.425 20.21C441.059 20.9063 439.11 22.2988 437.44 23.8305C435.074 25.9191 433.126 28.2863 431.316 30.7928C429.368 33.4385 427.559 36.2234 425.193 38.4513C425.053 38.4513 425.193 38.7298 425.193 39.0083C425.61 38.8691 426.167 38.869 426.584 38.7298C428.95 37.8943 431.177 37.0589 433.543 36.3626C437.44 34.9702 441.198 33.5777 445.095 32.3245C452.054 30.0965 459.291 29.2611 466.668 30.0966C467.364 30.2358 468.06 30.2358 468.756 30.2358ZM256.786 220.446C256.229 220.585 255.811 220.725 255.255 221.003C252.193 222.535 249.131 224.067 245.93 225.598C237.161 229.776 230.202 236.181 224.357 243.979C224.218 244.257 223.8 244.536 224.218 244.954C224.496 244.954 224.774 244.814 225.192 244.814C228.254 244.118 231.177 243.283 234.239 242.586C236.605 242.029 239.11 241.751 241.476 241.472C242.729 241.333 243.842 240.776 244.955 240.08C248.296 237.713 250.801 234.649 252.193 230.75C253.445 227.409 254.698 224.067 256.786 221.142C256.925 221.142 256.786 220.864 256.786 220.446ZM233.821 427.505C234.099 427.227 234.378 426.949 234.656 426.67C237.022 422.632 239.388 418.454 241.615 414.277C242.033 413.581 242.172 412.745 242.311 411.91C242.729 408.707 242.172 405.783 240.78 402.998C239.667 400.909 238.553 398.821 237.44 396.732C236.326 394.643 235.213 392.555 234.517 390.327C234.517 390.187 234.239 390.048 233.96 389.63C233.682 390.327 233.543 391.023 233.404 391.58C232.29 397.011 231.177 402.441 229.924 407.872C228.95 412.188 229.367 416.366 231.455 420.265C232.568 422.214 233.264 424.442 233.543 426.67C233.404 426.949 233.543 427.088 233.821 427.505ZM256.925 192.875C257.342 192.597 257.621 192.318 257.76 192.04C259.708 189.534 262.214 187.863 265.136 186.47C268.477 184.799 271.817 183.267 275.297 181.597C281.977 178.394 287.823 174.216 292.555 168.507C292.972 167.95 293.251 167.393 293.946 166.419C292.276 166.697 291.302 167.115 290.189 167.393C289.075 167.672 287.962 168.09 286.848 168.368C285.735 168.647 284.622 169.064 283.369 169.204C282.255 169.482 281.003 169.621 279.889 169.761C278.776 169.9 277.523 170.039 276.41 170.039C275.297 170.178 274.044 169.9 272.791 170.457C271.956 173.242 270.286 175.47 268.198 177.419C266.389 179.09 264.301 180.761 262.353 182.293C260.126 183.964 257.899 185.774 255.951 187.863C254.976 188.837 254.141 189.951 253.585 191.065C254.837 192.318 254.837 192.318 256.925 192.875ZM362.144 183.128C362.005 183.128 361.866 183.128 361.727 183.267C361.309 186.052 360.892 188.977 360.335 191.761C359.917 193.989 360.196 196.078 360.892 198.167C362.283 202.623 364.371 206.8 367.016 210.56C368.547 212.788 370.078 214.876 371.608 216.965C373.835 220.029 375.923 223.231 377.315 226.852C377.454 226.991 377.593 227.13 377.872 227.409C378.289 226.295 378.15 225.32 378.15 224.345C377.872 217.383 376.062 210.699 372.861 204.433C371.469 201.648 369.938 198.863 368.407 196.078C366.181 192.04 364.093 188.002 362.84 183.685C362.423 183.546 362.283 183.267 362.144 183.128ZM488.937 89.694C488.797 89.694 488.658 89.8332 488.38 89.8332C488.241 90.3902 488.241 90.9472 488.102 91.3649C487.823 94.5676 487.684 97.7703 487.406 100.834C487.127 103.479 487.823 105.847 489.215 108.074C489.772 109.049 490.468 110.024 491.303 110.999C493.529 113.644 495.756 116.29 498.122 118.796C502.298 123.531 504.803 128.961 505.36 135.228C505.36 135.645 505.499 136.063 505.638 137.038C506.056 136.202 506.195 135.784 506.334 135.367C506.612 133.417 507.03 131.468 507.308 129.379C508.004 124.506 506.473 120.189 504.107 116.151C503.411 115.037 502.715 114.062 501.88 113.087C501.184 112.252 500.488 111.416 499.793 110.581C496.591 106.682 494.225 102.365 492.555 97.4918C491.999 95.6815 491.303 93.8714 490.468 92.2004C489.911 91.3649 489.354 90.5294 488.937 89.694ZM253.585 166.419C253.585 166.14 253.585 165.862 253.585 165.722C252.193 164.33 250.801 163.077 248.992 162.381C246.069 161.267 243.146 160.988 240.084 161.127C237.44 161.267 234.795 161.545 232.151 161.684C229.924 161.824 227.697 161.824 225.61 161.406C223.939 161.127 222.965 161.545 221.991 162.52C221.852 162.659 221.573 162.938 221.434 163.077C217.676 166.976 214.475 171.153 211.135 175.47C210.857 175.748 210.717 176.166 210.439 176.723C211.274 177.001 211.831 176.723 212.388 176.444C214.197 175.609 216.006 174.634 217.676 173.659C219.764 172.685 221.852 171.71 224.079 171.571C225.47 171.432 226.723 171.014 227.836 170.318C234.099 166.558 240.919 165.165 248.296 165.722C249.548 165.862 250.801 166.001 252.054 166.14C252.749 166.419 253.167 166.419 253.585 166.419ZM225.749 438.506C225.888 438.506 225.888 438.367 225.888 438.367C225.888 437.949 226.027 437.531 225.888 436.974C225.609 433.075 225.749 429.176 226.027 425.278C226.584 417.062 227.836 408.846 229.367 400.77C229.507 400.074 229.646 399.238 229.646 398.403C229.228 398.403 229.089 398.403 228.95 398.542C227.001 400.352 225.053 402.023 223.243 403.973C221.991 405.365 220.877 406.897 220.042 408.707C218.094 413.302 217.537 418.037 217.955 422.771C218.094 424.442 218.511 425.974 219.346 427.505C221.156 430.987 222.965 434.468 224.774 437.81C225.192 438.227 225.331 438.645 225.749 438.506ZM362.701 114.48C362.005 117.265 360.057 118.657 357.969 120.05C355.742 121.442 353.098 122.138 350.592 122.695C350.036 122.835 349.479 122.974 348.366 123.392C349.897 123.949 350.871 124.366 351.845 124.784C352.958 125.341 354.072 125.341 355.185 124.784C358.108 123.252 361.309 122.556 364.65 122.278C366.181 122.138 367.711 121.999 369.242 121.721C372.722 121.164 375.923 120.189 379.124 118.518C382.604 116.708 385.109 114.062 386.64 110.442C387.197 109.188 387.753 107.796 387.475 106.125C383.3 107.935 379.403 109.606 375.506 111.138C371.33 112.809 367.155 113.784 362.701 114.48ZM234.517 380.023C231.316 380.858 228.254 381.693 225.192 382.529C224.635 382.668 224.079 382.807 223.661 383.086C222.13 383.782 220.599 384.618 219.068 385.453C218.094 386.01 217.259 386.985 216.702 388.099C214.475 392.694 213.083 397.428 213.083 402.441C213.083 402.72 213.223 403.137 213.362 403.694C214.058 402.859 214.754 402.163 215.171 401.466C216.284 400.074 217.537 398.96 219.068 398.125C220.599 397.289 222.13 396.732 223.8 396.036C225.053 395.479 226.305 395.061 227.697 394.643C230.202 393.808 231.733 391.998 232.29 389.352C232.986 386.846 233.682 384.2 234.239 381.693C234.378 381.136 234.378 380.719 234.517 380.023ZM462.353 202.901C461.101 202.901 460.405 203.597 459.709 204.294C457.482 206.243 455.812 208.471 454.42 211.117C453.585 212.788 453.446 214.319 454.003 216.13C455.394 220.585 456.647 225.041 457.9 229.497C459.013 233.675 459.848 237.852 459.987 242.029C459.987 242.586 460.126 243.004 460.266 243.7C460.544 243.422 460.683 243.283 460.683 243.143C462.771 236.738 463.884 230.054 463.467 223.231C463.328 221.839 463.328 220.307 463.188 218.915C462.91 213.902 462.632 208.889 462.353 204.015C462.493 203.597 462.353 203.319 462.353 202.901ZM421.296 12.5515C419.765 12.1338 418.929 12.5515 417.955 12.83C415.728 13.6655 413.78 15.0579 411.97 16.5896C408.213 19.6531 405.012 23.2735 401.95 27.0331C398.748 31.0712 395.269 34.6916 390.815 37.3373C390.676 37.4766 390.537 37.6159 390.398 37.7551C390.676 37.8943 390.815 38.0336 391.094 38.1728C394.573 38.5906 398.053 39.0083 401.671 39.5653C402.645 39.7045 403.481 39.5653 404.176 38.869C404.594 38.4513 405.151 38.0336 405.568 37.4766C407.656 35.2486 409.048 32.603 410.3 29.818C411.275 27.4509 412.249 25.0837 413.223 22.7165C414.754 18.8176 417.12 15.3364 421.296 12.5515ZM303.132 163.077C301.323 160.988 299.653 159.039 297.983 157.089C297.008 156.114 295.756 155.14 294.642 154.304C293.39 153.469 291.998 153.19 290.467 153.469C288.936 153.886 287.266 154.165 285.735 154.583C282.534 155.418 279.194 156.254 275.853 156.393C275.575 156.393 275.157 156.532 274.74 156.671C276.827 159.178 278.915 161.684 280.864 164.051C281.42 164.608 281.977 165.165 282.673 165.722C284.343 167.115 286.013 167.533 288.24 166.697C292.972 165.026 297.844 163.773 302.854 163.494C302.854 163.216 302.854 163.216 303.132 163.077ZM468.338 178.255C467.642 178.533 467.364 178.533 467.225 178.672C463.049 182.014 459.152 185.774 455.534 189.673C453.168 192.318 452.193 195.66 451.358 199.002C451.219 199.42 451.219 199.977 451.358 200.395C451.637 203.458 452.054 206.522 452.332 209.585C452.332 210.003 452.611 210.421 452.75 211.117C454.281 209.028 455.534 207.218 456.786 205.408C458.317 203.597 460.126 202.205 462.353 201.23C463.188 193.432 464.58 185.635 468.338 178.255ZM449.549 20.21C450.523 19.2353 450.384 18.1214 450.523 17.0074C450.662 12.9693 449.827 9.07037 448.575 5.17147C448.157 3.91827 447.461 3.22198 446.348 2.52575C442.172 0.437064 437.858 -0.537638 433.265 -0.537638C432.847 -0.537638 432.43 -0.398417 431.734 -0.259165C434.1 1.69027 435.77 3.77901 436.744 6.42467C437.858 9.07036 437.579 11.9945 437.858 14.9187C441.755 16.8682 445.652 18.6783 449.549 20.21ZM404.037 191.065C403.202 191.205 402.924 191.205 402.785 191.344C399.305 193.015 396.243 195.382 393.738 198.167C392.485 199.559 391.233 201.091 390.537 202.901C390.119 204.015 389.98 204.99 390.259 206.104C390.676 207.636 390.954 209.167 391.65 210.56C393.32 214.459 395.269 218.358 397.078 222.117C397.217 222.396 397.496 222.396 397.635 222.674C398.47 221.978 398.888 221.003 399.027 220.029C399.444 218.358 399.862 216.687 400.001 215.016C400.14 212.509 400.001 210.003 399.862 207.357C399.723 205.686 399.584 203.876 399.584 202.205C399.584 198.445 400.558 194.964 403.341 192.318C403.341 192.04 403.62 191.622 404.037 191.065ZM259.848 235.903C260.126 235.763 260.404 235.763 260.543 235.763C264.858 232.839 268.198 229.079 270.008 224.067C270.564 222.396 271.121 220.864 271.678 219.193C272.791 215.573 273.905 211.813 274.879 208.193C275.157 207.496 275.436 206.8 275.714 205.825C275.436 205.965 275.157 205.965 275.018 206.104C274.601 206.522 274.183 206.8 273.905 207.218C270.843 210.699 267.363 213.762 263.466 216.269C261.796 217.383 260.961 218.775 260.683 220.725C260.544 222.396 260.543 223.927 260.543 225.598C260.683 228.801 260.683 232.004 259.708 235.067C259.708 235.346 259.848 235.624 259.848 235.903ZM416.981 191.483C417.677 190.091 417.538 189.255 417.538 188.42C417.398 181.179 415.867 174.216 413.362 167.393C411.553 162.798 409.883 158.203 408.213 153.608C408.073 153.33 407.795 153.051 407.517 152.633C406.264 156.671 405.568 160.57 405.151 164.33C405.012 165.165 405.29 166.001 405.429 166.697C405.986 169.343 406.96 171.71 408.352 174.077C409.744 176.305 410.996 178.533 412.527 180.761C414.337 183.546 415.728 186.47 416.703 189.673C416.563 190.091 416.703 190.508 416.981 191.483ZM402.228 98.6057C401.95 98.0488 401.95 97.631 401.671 97.2133C399.862 94.2891 397.635 91.6434 394.851 89.5547C391.929 87.3268 388.728 85.6558 385.387 84.1241C380.655 82.1746 375.784 81.4784 370.773 81.4784C369.382 81.4784 368.407 82.0354 367.572 83.4279C368.547 83.5671 369.382 83.5671 370.078 83.5671C374.67 83.8456 378.985 85.0988 382.882 87.7445C387.197 90.6687 390.398 94.5676 392.903 99.0235C393.32 99.5805 393.599 100.277 394.016 100.973C396.8 100.416 399.444 99.4412 402.228 98.6057ZM314.267 277.816C314.267 277.259 314.406 276.562 314.406 276.006C314.406 269.6 313.432 263.334 310.926 257.347C308.839 252.194 306.473 247.182 304.246 242.169C304.246 242.029 303.967 242.029 303.689 241.751C303.689 242.308 303.55 242.865 303.55 243.422C303.272 246.068 303.272 248.713 302.854 251.359C302.019 256.79 303.272 261.663 306.473 265.98C307.169 266.815 307.725 267.651 308.421 268.625C310.509 271.41 312.597 274.335 314.267 277.816ZM397.635 16.3112C396.939 14.7795 395.826 13.6655 394.851 12.4122C392.207 8.93108 388.728 7.53865 384.413 7.26015C382.882 7.12093 381.769 7.67787 380.934 8.93108C379.959 10.3236 378.985 11.5768 378.289 13.1085C376.897 15.8934 375.645 18.6783 374.392 21.4632C374.392 21.6025 374.531 21.7417 374.67 22.0202C375.088 21.881 375.645 21.7417 376.201 21.6025C377.593 21.0455 378.846 20.4885 380.238 19.9315C384.691 18.1213 389.284 16.8682 394.016 17.5644C395.547 17.7036 396.522 17.4251 397.635 16.3112ZM330.133 116.708C330.551 117.125 330.69 117.265 330.829 117.265C335.422 118.518 340.015 120.05 344.469 121.86C345.164 122.138 346 122.278 346.835 122.278C350.453 122.138 353.794 121.164 356.995 119.493C358.386 118.796 359.639 117.822 360.613 116.568C360.892 116.151 361.031 115.733 361.448 114.898C359.778 114.758 358.526 115.037 357.134 115.037C355.742 115.037 354.35 115.037 353.098 114.898C351.706 114.758 350.453 114.619 349.061 114.48C347.67 114.341 346.417 114.062 345.025 113.784C343.633 113.505 342.381 113.227 340.989 112.809C339.736 112.53 338.345 112.113 336.953 111.834C335.144 114.062 332.917 115.455 330.133 116.708ZM361.727 37.6158C362.144 37.6158 362.423 37.7551 362.562 37.7551C362.979 37.6159 363.397 37.6158 363.814 37.4766C371.052 34.8309 378.011 31.7675 383.995 26.7547C386.918 24.3875 389.841 22.1595 392.764 19.7923C393.042 19.6531 393.181 19.2353 393.32 18.9568C393.042 18.8176 392.903 18.6783 392.764 18.6783C392.207 18.6783 391.65 18.5391 391.094 18.6783C387.614 18.6783 384.274 19.6531 381.073 20.9063C378.567 21.881 376.062 22.995 373.418 23.9697C368.686 31.489 369.382 31.0713 361.727 37.6158ZM414.476 95.96C412.249 94.7068 410.3 93.5929 408.491 92.4789C407.378 91.7826 406.125 91.0864 405.012 90.3902C402.645 88.8585 400.419 87.0483 398.053 85.5166C392.764 82.0354 387.197 79.6682 380.934 78.972C378.567 78.6935 376.201 78.8327 373.975 79.529C373.557 79.6682 373.279 79.9467 372.304 80.2252C385.944 81.3392 396.522 86.6305 403.62 98.0487C406.96 97.9095 412.388 96.7955 414.476 95.96ZM405.151 170.178C405.012 170.178 404.733 170.318 404.594 170.318C404.594 170.875 404.455 171.292 404.455 171.849C404.455 174.913 404.594 177.976 404.594 181.179C404.594 182.71 405.151 183.964 405.986 185.217C410.161 191.065 412.945 197.61 413.78 204.851C413.78 205.268 414.058 205.686 414.337 206.661C414.893 204.99 415.172 203.876 415.589 202.762C417.12 198.724 416.703 194.686 415.589 190.648C414.893 188.002 413.78 185.495 412.388 183.128C409.883 178.812 406.96 174.773 405.151 170.178ZM405.29 186.47C404.872 187.445 405.151 188.42 405.29 189.255C405.986 194.964 406.682 200.673 407.378 206.243C408.073 211.813 407.656 217.244 406.403 222.813C405.986 224.624 405.429 226.573 405.012 228.383C404.455 230.75 404.037 232.978 403.62 235.346C403.481 236.181 403.481 237.156 403.341 237.991C403.898 237.434 404.176 236.738 404.316 236.042C405.707 230.89 407.378 225.738 409.187 220.725C410.3 217.661 411.553 214.598 412.527 211.534C412.806 210.838 413.084 210.003 412.945 209.167C412.527 201.23 410.44 193.711 405.847 187.166C405.707 186.888 405.568 186.749 405.29 186.47ZM505.638 116.708C505.777 116.708 505.916 116.708 506.056 116.569C505.916 116.012 505.916 115.455 505.777 115.037C504.942 112.391 504.246 109.606 503.133 106.961C501.602 103.062 499.793 99.302 497.844 95.5423C494.921 89.694 492.416 83.8456 490.746 77.5796C490.607 77.1618 490.746 76.6048 490.05 76.6048C489.632 77.9973 488.519 85.5166 488.519 86.4913C488.519 86.9091 488.658 87.3268 488.937 87.7445C491.163 90.8079 492.277 94.2891 493.529 97.9095C494.643 100.973 495.896 104.036 497.844 106.682C500.488 110.163 503.133 113.505 505.638 116.708ZM469.312 28.0079C469.312 27.7294 469.312 27.5901 469.173 27.4509C465.554 22.8558 462.075 18.2606 458.456 13.6655C456.229 10.8805 453.863 8.09563 450.941 5.72845C450.662 5.58919 450.384 5.44994 449.827 5.03222C450.245 7.1209 450.801 8.65261 451.08 10.4628C451.358 12.1338 451.637 13.944 451.637 15.615C451.637 17.2859 451.358 18.9568 451.219 20.6278C452.193 21.1848 467.503 27.7294 468.616 28.0079C468.756 28.1471 469.173 28.0079 469.312 28.0079ZM225.331 160.431C227.14 160.988 228.671 160.988 230.202 160.849C232.29 160.71 234.378 160.57 236.466 160.431C238.832 160.292 241.198 160.153 243.564 160.292C248.296 160.431 252.193 162.381 255.116 166.001C256.09 167.115 256.09 167.115 258.038 166.976C258.038 166.836 258.038 166.558 257.899 166.419C256.229 164.608 254.42 162.659 252.749 160.849C248.992 157.089 244.677 154.304 239.527 153.051C238.275 152.773 237.301 152.773 236.048 153.19C232.29 154.722 228.95 156.811 225.888 159.456C225.749 159.735 225.61 160.013 225.331 160.431ZM240.223 360.25C239.667 360.667 239.527 360.946 239.249 361.224C236.048 364.427 232.986 367.769 229.785 370.971C226.305 374.313 223.383 378.212 220.46 381.972C220.182 382.25 219.764 382.668 220.321 383.225C222.965 381.833 225.888 381.136 228.671 380.44C229.924 380.162 231.177 379.744 232.29 379.326C232.986 379.048 233.821 378.63 234.378 378.212C234.795 377.795 235.352 377.238 235.491 376.681C237.022 371.668 238.414 366.794 239.945 361.781C240.223 361.503 240.084 361.085 240.223 360.25ZM403.759 189.394C403.481 185.913 403.202 182.571 402.924 179.229C402.924 178.951 402.645 178.812 402.506 178.533C399.584 179.369 397.078 180.483 394.851 182.571C394.156 183.267 393.738 183.964 393.599 184.938C393.042 188.837 391.929 192.597 390.815 196.357C390.537 197.61 389.98 198.724 390.259 200.256C391.929 199.142 392.764 197.192 394.156 196.078C395.687 194.964 397.078 193.572 398.609 192.597C400.279 191.344 401.95 190.508 403.759 189.394ZM402.924 177.001C402.924 176.027 402.924 175.191 402.924 174.356C402.924 170.318 403.202 166.419 403.898 162.381C404.316 159.735 404.872 157.228 405.429 154.583C405.568 154.165 405.429 153.608 405.429 152.773C398.053 160.988 395.13 170.457 394.156 181.179C395.687 180.204 396.939 179.369 398.331 178.812C399.862 178.255 401.254 177.698 402.924 177.001ZM286.292 343.401C286.431 342.983 286.57 342.565 286.709 342.147C288.101 337.831 289.354 333.375 291.163 329.337C292.833 325.716 293.111 321.818 292.972 317.779C292.833 314.437 292.137 311.096 290.745 308.032C290.606 307.754 290.467 307.197 289.91 307.197C287.683 313.463 285.178 337.552 286.292 343.401ZM311.483 292.854C312.736 289.512 313.571 286.727 313.849 283.943C313.849 283.664 313.849 283.386 313.849 283.107C313.153 279.208 312.179 275.449 309.813 272.246C308.421 270.436 307.169 268.625 305.777 266.815C304.246 264.866 302.993 262.777 302.297 260.41C302.158 260.131 302.019 259.714 301.88 259.435C301.184 259.714 301.323 260.271 301.184 260.688C300.905 263.891 301.601 267.094 302.854 270.018C304.385 273.638 306.055 277.119 307.725 280.601C309.395 284.082 310.648 287.563 310.926 291.462C311.066 291.74 311.205 292.019 311.483 292.854ZM230.62 394.504C229.367 395.061 228.532 395.34 227.558 395.757C226.584 396.175 225.47 396.454 224.496 396.871C223.522 397.15 222.548 397.568 221.712 397.985C220.599 398.542 219.486 399.099 218.372 399.935C216.424 401.466 214.893 403.277 213.918 405.644C213.362 406.897 213.223 408.011 213.501 409.403C214.058 412.885 214.893 416.366 216.284 419.708C216.424 419.986 216.424 420.404 217.12 420.265C217.12 419.429 217.259 418.733 217.259 417.897C217.398 415.67 217.815 413.442 218.372 411.214C219.346 408.15 220.738 405.365 223.104 402.998C224.496 401.606 225.888 400.352 227.28 399.099C228.254 398.125 229.228 397.011 230.202 395.897C230.342 395.479 230.342 395.2 230.62 394.504ZM294.086 322.096C294.642 321.539 294.782 321.4 294.921 321.121C296.73 318.476 297.287 315.412 297.704 312.349C298.4 308.171 297.983 304.273 296.313 300.374C295.477 298.285 294.642 296.196 293.807 293.968C293.668 293.69 293.529 293.551 293.251 293.411C293.111 293.69 292.833 293.968 292.833 294.108C291.998 297.032 291.302 299.956 290.606 302.741C290.328 303.855 290.467 304.829 291.024 305.804C293.39 310.121 294.225 314.716 294.086 319.45C294.086 320.425 294.086 320.982 294.086 322.096ZM437.579 67.5538C432.987 67.693 428.811 67.8323 424.775 68.1108C423.105 68.25 421.574 68.5285 420.043 69.0855C416.842 70.1995 413.78 71.5919 410.718 72.8451C410.3 72.9844 409.883 73.1236 409.883 73.8199C410.022 73.9591 410.3 74.0984 410.579 74.0984C415.867 74.2376 421.156 74.3769 426.306 74.5161C427.141 74.5161 427.976 74.3769 428.672 73.9591C431.595 72.7059 434.1 71.035 436.466 68.9462C436.744 68.6678 436.884 68.25 437.579 67.5538ZM247.182 276.98C246.486 277.398 245.93 277.398 245.791 277.676C244.677 278.93 243.424 280.322 242.589 281.715C239.249 287.284 237.44 293.272 237.579 299.817C237.579 301.488 237.718 303.019 237.857 304.69C238.136 308.032 238.275 311.374 237.718 314.716C237.718 314.994 237.718 315.273 237.857 315.83C238.414 314.855 238.832 314.298 239.11 313.602C239.667 312.349 240.223 310.956 240.78 309.564C241.476 308.171 241.615 306.64 241.615 305.108C241.476 302.602 241.337 300.234 241.337 297.728C241.337 290.766 243.146 284.221 246.626 278.233C246.765 277.955 246.904 277.676 247.182 276.98ZM191.65 193.432C191.789 193.572 191.789 193.711 191.928 193.85C193.042 193.432 194.155 193.154 195.268 192.736C201.671 190.369 207.238 186.749 212.388 182.432C215.728 179.647 219.207 177.001 222.548 174.216C222.826 173.938 222.965 173.659 223.243 173.381C221.991 173.52 220.877 173.799 219.764 174.216C218.651 174.773 217.537 175.33 216.424 175.887C214.197 177.001 212.109 178.255 209.604 178.672C208.769 178.812 208.212 179.369 207.655 179.926C203.341 184.66 198.33 188.837 192.902 192.318C192.485 192.736 192.067 193.154 191.65 193.432ZM294.642 112.809C295.477 112.809 296.173 112.948 297.008 112.948C300.766 113.087 304.663 113.227 308.421 113.505C314.128 114.062 319.416 112.67 324.427 110.163C324.844 110.024 325.123 109.745 325.401 109.467C324.983 108.771 324.427 108.771 323.87 108.771C319.695 108.074 315.38 107.796 311.066 108.353C305.498 108.91 300.07 110.72 294.642 112.809ZM247.043 240.358C249.548 240.219 253.028 239.384 255.394 238.548C256.925 237.991 257.899 236.877 258.595 235.346C259.291 233.396 259.708 231.447 259.708 229.497C259.708 226.573 259.708 223.51 259.569 220.585C259.569 220.585 259.43 220.446 259.291 220.307C259.152 220.446 258.734 220.446 258.595 220.585C257.76 221.839 256.786 223.092 256.09 224.484C255.115 226.434 254.28 228.383 253.585 230.472C252.332 233.953 250.523 236.877 247.878 239.244C247.6 239.523 247.321 239.941 247.043 240.358ZM436.605 14.5009C436.605 13.5262 436.744 12.83 436.605 11.9945C436.466 10.8805 436.466 9.76656 436.188 8.79183C435.492 5.72841 433.822 3.08275 431.316 1.13329C430.203 0.297811 428.95 -0.259135 427.559 0.15859C425.888 0.576345 424.218 0.715596 422.409 0.994069C421.017 1.13332 419.765 1.27257 417.816 1.55104C419.347 2.10805 420.46 2.38652 421.435 2.80425C424.497 3.91823 427.419 5.58919 429.925 7.67788C431.734 9.20958 433.265 11.0198 434.239 13.1085C434.657 13.6655 435.213 14.3617 436.605 14.5009ZM241.337 226.852C238.275 226.155 235.77 225.738 233.264 226.016C232.012 226.155 231.037 226.573 230.342 227.687C228.115 231.168 226.166 234.649 224.496 238.409C223.661 240.358 222.548 242.308 222.13 244.814C225.192 241.472 227.836 238.131 230.759 235.067C233.821 232.004 237.301 229.497 241.337 226.852ZM431.177 74.2376C431.734 74.2376 432.012 74.3769 432.43 74.3769C436.188 74.2376 439.806 73.2629 443.147 71.3135C447.6 68.807 451.219 65.4651 454.699 61.8447C454.838 61.7054 454.838 61.427 454.977 60.87C454.003 61.2877 453.307 61.7055 452.611 61.9839C449.41 63.5156 446.209 65.1866 442.868 66.1613C440.92 66.7183 439.389 67.693 437.858 69.0855C435.77 70.8957 433.543 72.4274 431.177 74.2376ZM296.173 153.608C297.426 155 298.4 155.975 299.375 156.95C300.349 158.064 301.323 159.317 302.297 160.431C302.436 160.57 302.715 160.849 302.854 160.988C304.385 162.241 305.916 163.216 308.004 163.077C309.674 163.077 311.483 163.216 313.153 163.355C313.71 163.355 314.127 163.355 314.823 163.355C310.787 158.899 301.601 153.33 296.173 153.608ZM487.406 138.291C486.988 140.24 486.571 142.051 487.684 144C488.38 145.253 488.797 146.646 489.076 148.038C489.911 151.519 490.189 155 489.772 158.621C489.772 159.039 489.632 159.456 490.328 159.735C491.163 158.76 491.999 157.646 492.973 156.671C494.225 155.418 494.504 154.026 494.225 152.494C493.669 147.203 491.442 142.608 488.102 138.43C487.962 138.43 487.823 138.43 487.406 138.291ZM228.95 417.758C228.115 418.037 228.254 418.733 228.254 419.29C227.976 423.05 227.558 426.949 227.419 430.708C227.28 433.075 227.419 435.443 227.558 437.81C227.558 438.227 227.558 438.784 228.115 438.924C229.228 436.696 230.342 434.468 231.594 432.24C232.29 431.126 232.429 429.873 232.429 428.619C232.429 424.581 230.62 421.239 228.95 417.758ZM317.329 114.062C317.329 114.201 317.329 114.341 317.468 114.48C320.391 115.037 323.313 115.594 326.236 116.151C326.793 116.29 327.489 116.151 328.185 116.012C330.551 115.455 332.638 114.341 334.448 112.809C334.865 112.53 335.283 112.113 335.004 111.277C332.638 110.581 330.133 109.745 327.767 109.467C326.375 110.163 325.262 110.859 324.148 111.416C323.035 111.973 322.061 112.391 320.947 112.809C319.695 113.366 318.581 113.784 317.329 114.062ZM433.822 66.1613C438.275 66.3006 443.286 65.0474 445.791 63.0979C445.374 62.5409 444.817 61.984 444.399 61.427C443.703 60.4523 442.729 60.1737 441.476 60.4522C439.11 61.0092 436.744 60.87 434.378 60.5915C433.265 60.4522 432.012 60.313 430.899 60.1738C430.481 60.1738 430.064 60.1737 429.646 60.313C431.177 62.2624 432.43 64.2119 433.822 66.1613ZM290.885 111.138C290.885 111.277 291.024 111.416 291.024 111.556C291.859 111.416 292.555 111.277 293.39 111.138C294.225 110.999 294.921 110.72 295.756 110.581C296.452 110.442 297.148 110.163 297.844 110.024C298.679 109.745 299.374 109.606 300.21 109.328C301.045 109.049 301.741 108.91 302.576 108.631C303.411 108.353 304.107 108.214 304.942 108.074C305.638 107.935 306.333 107.796 307.029 107.657C307.864 107.517 308.7 107.378 309.395 107.239C310.091 107.1 310.926 107.239 311.622 106.682C311.483 106.404 311.483 106.264 311.344 106.125C308.7 104.733 306.055 103.897 303.132 103.34C302.019 103.201 301.184 103.34 300.488 104.176C298.4 106.264 296.034 108.074 293.39 109.606C292.555 110.163 291.72 110.72 290.885 111.138ZM358.386 290.766C359.082 288.816 358.943 287.841 357.83 282.55C356.716 277.398 355.185 272.385 351.845 267.929C350.871 268.765 350.592 269.6 350.314 270.714C352.123 273.778 354.072 276.841 355.185 280.322C356.438 283.803 357.412 287.284 358.386 290.766ZM426.028 66.3006C426.028 65.8829 426.028 65.8829 425.888 65.7436C425.749 65.6044 425.471 65.3258 425.332 65.1866C423.383 64.0726 421.156 63.5156 418.79 63.3764C417.538 63.3764 416.703 63.6549 415.868 64.6296C414.337 66.4398 412.666 68.1108 411.135 69.921C410.996 70.1995 410.857 70.478 410.44 71.1742C412.527 70.3387 414.058 69.6425 415.589 69.0855C417.259 68.3893 418.929 67.8323 420.739 67.4145C422.548 66.9968 424.357 66.7183 426.028 66.3006ZM432.291 66.3006C431.316 63.6549 429.646 61.7055 427.419 60.1738C427.141 60.0345 426.723 59.8953 426.445 59.8953C423.94 59.756 421.713 60.313 419.765 61.9839C419.904 62.1232 419.904 62.2624 419.904 62.2624C420.182 62.4017 420.321 62.5409 420.6 62.5409C423.383 62.9587 425.888 63.7942 427.976 65.7436C428.394 66.1614 429.09 66.3006 429.785 66.3006C430.342 66.3006 431.177 66.3006 432.291 66.3006ZM457.482 57.528C453.724 56.8318 448.853 57.9458 444.817 59.8953C444.956 60.1738 444.956 60.4522 445.095 60.5915C445.791 61.2877 446.487 61.984 447.183 62.8194C450.801 61.427 454.142 59.4775 457.482 57.528Z" fill="#FDE2B9"/>
<path d="M0.278382 110.72C0.139192 110.024 3.13906e-05 109.885 3.14149e-05 109.606C1.94855 98.6057 6.26309 88.4407 12.8045 79.2504C16.9799 73.2628 22.6863 68.807 29.2277 65.4651C32.1504 63.9334 35.0732 62.5409 37.9959 61.1484C44.1198 58.2242 48.4344 53.4899 50.9396 47.2238C51.4963 45.9706 51.9139 44.5781 52.4706 43.3249C53.0273 42.0717 53.5841 40.8185 54.2799 39.5652C57.2027 34.4131 61.3781 31.0712 67.2236 29.6787C69.868 28.9825 72.6516 28.704 75.4352 28.2863C78.9146 27.8685 82.3941 27.4508 85.8736 27.0331C91.0232 26.1976 95.7553 24.6659 100.209 21.7417C106.89 17.4251 110.787 11.4375 111.483 3.50046C111.761 0.854778 111.622 -1.79088 111.483 -4.57581C111.204 -8.61396 110.787 -12.6521 110.369 -16.6903C109.952 -21.1461 109.952 -25.4628 110.508 -29.9187C111.483 -36.881 113.988 -43.147 118.442 -48.5777C122.199 -53.1728 126.931 -56.3754 132.359 -58.8819C137.787 -61.3883 143.355 -63.1985 149.339 -64.1732C172.721 -68.0721 194.99 -65.148 215.867 -53.869C222.13 -50.5271 228.115 -46.7674 234.239 -43.147C237.996 -40.9191 241.893 -38.6911 246.069 -37.2987C248.992 -36.4632 251.914 -35.6277 254.837 -35.21C263.327 -33.6783 271.26 -35.4885 278.776 -39.3874C286.013 -43.2863 291.72 -48.7169 296.591 -55.1222C304.803 -65.8442 310.926 -77.6801 315.241 -90.4908C322.339 -111.099 326.236 -132.265 326.793 -154.126C326.793 -155.101 326.654 -156.215 326.793 -157.329C326.793 -157.747 326.932 -158.304 327.21 -158.582C327.489 -158.861 328.045 -159.139 328.324 -159.139C328.741 -159.139 329.298 -158.721 329.437 -158.443C329.716 -157.329 329.855 -156.215 329.855 -154.962C329.576 -149.67 329.437 -144.24 329.02 -138.948C327.767 -125.581 325.262 -112.492 321.504 -99.5418C319.555 -93.1365 317.468 -86.8704 315.658 -80.6043C313.849 -74.199 312.457 -67.7936 311.761 -61.1098C310.091 -45.9319 309.395 -30.7541 310.648 -15.437C311.344 -7.08225 312.04 1.27253 311.761 9.62731C311.622 16.4504 310.926 23.2735 309.535 30.0965C306.751 42.4895 300.905 53.0722 291.72 61.8447C280.446 72.7059 267.085 80.0859 251.775 83.5671C243.285 85.5165 234.656 86.6305 225.888 87.466C222.548 87.7445 219.207 88.1622 215.867 88.58C209.326 89.4155 203.202 91.6434 197.774 95.403C192.067 99.3019 186.5 103.34 180.933 107.239C173.696 112.252 166.041 116.29 157.412 118.379C151.566 119.771 145.721 120.189 139.736 119.632C130.272 118.657 121.364 116.011 112.735 111.973C104.245 108.074 96.312 103.201 88.3788 98.3272C80.8632 93.7321 73.3474 89.1369 65.6926 84.681C62.7698 83.0101 59.7079 81.6177 56.646 80.3644C50.5221 77.858 44.3982 77.9972 38.4135 80.7822C32.7071 83.2886 27.5575 86.6305 22.5471 90.1117C13.7787 95.5423 6.54144 102.365 0.278382 110.72ZM244.26 24.5267C244.399 24.5267 244.677 24.5267 244.816 24.3874C244.955 24.3874 244.955 24.1089 244.955 23.9697C244.816 23.9697 244.816 24.1089 244.677 24.1089C244.538 24.2482 244.399 24.3874 244.26 24.5267C242.033 29.5395 240.223 34.6917 238.692 39.8438C237.301 44.7174 235.77 49.591 234.378 54.6039C233.821 56.6926 233.264 58.9205 232.568 61.0092C229.924 69.2247 226.445 76.744 220.46 83.0101C220.042 83.4279 219.903 83.9848 219.625 84.4026C221.017 84.9596 221.852 84.2633 222.548 83.5671C226.027 79.9467 229.089 76.0478 231.455 71.5919C233.96 66.7183 236.048 61.7054 237.301 56.4141C239.806 46.1098 242.311 35.9449 244.677 25.6406C244.816 25.3621 244.399 24.9444 244.26 24.5267ZM69.3113 32.4637C70.0072 33.5776 71.2598 33.0207 72.0949 33.1599C81.9766 33.7169 91.4408 35.6664 100.487 39.5652C104.941 41.5147 108.977 43.7427 112.596 46.9453C114.823 48.8948 116.911 51.1227 118.998 53.3506C121.503 55.9963 124.148 58.5028 127.071 60.4522C135.282 66.1613 144.329 66.8576 153.793 64.3511C153.793 64.3511 153.932 64.2119 153.932 64.0726C153.932 63.9334 153.793 63.7941 153.793 63.7941C153.515 63.6549 153.097 63.5156 152.819 63.5156C144.886 61.7054 137.648 58.3635 131.385 53.2114C126.653 49.4518 121.921 45.6921 117.328 41.7932C109.952 35.5271 101.323 32.046 91.8583 30.6535C89.4923 30.2358 86.987 30.2357 84.621 30.375C80.5848 30.6535 76.5486 31.2105 72.5124 31.7674C71.2598 31.9067 70.2855 32.3244 69.3113 32.4637C69.1721 32.6029 68.8937 32.6029 68.7546 32.4637C68.7546 32.6029 68.8937 32.7422 68.8937 32.8814C69.0329 32.7422 69.1721 32.6029 69.3113 32.4637ZM116.215 -9.44944C116.076 -9.31018 115.797 -9.0317 115.658 -8.89246C115.797 -8.89246 115.936 -8.89246 115.936 -8.89246C116.075 -9.17095 116.076 -9.31018 116.215 -9.44944C116.911 -10.5634 117.885 -11.6774 118.581 -12.7914C121.225 -16.4118 124.287 -19.6144 127.767 -22.2601C132.22 -25.602 137.231 -28.1084 142.659 -29.6401C154.628 -33.1213 166.737 -33.539 178.845 -30.6149C186.083 -28.8047 193.042 -26.2982 199.861 -23.0956C204.037 -21.1461 208.212 -18.9182 212.248 -16.8295C217.955 -13.9053 223.8 -11.9559 230.063 -10.9811C243.564 -9.03168 256.646 -10.4242 269.451 -15.5763C273.487 -17.108 276.827 -19.4752 279.194 -23.2348C279.333 -23.5133 279.333 -24.0703 279.611 -24.7665C275.436 -22.2601 271.399 -20.5891 267.085 -19.6144C262.074 -18.5004 256.925 -18.0827 251.914 -18.0827C242.729 -18.2219 233.821 -20.0322 225.331 -23.0956C220.46 -24.9058 215.589 -26.8552 210.717 -28.9439C205.846 -31.0326 200.975 -33.2606 195.964 -35.3492C188.588 -38.4127 180.933 -40.3621 173.139 -41.4761C165.623 -42.59 158.108 -42.5901 150.592 -41.1976C134.308 -38.1342 120.808 -25.045 116.075 -10.7027C116.075 -10.4242 116.215 -9.86718 116.215 -9.44944ZM297.148 -50.9448C297.148 -51.0841 297.287 -51.0841 297.287 -51.2233C297.287 -51.2233 297.426 -51.2233 297.565 -51.2233C297.565 -51.2233 297.287 -51.0841 297.148 -50.9448C296.452 -50.3879 295.895 -49.6916 295.338 -48.9954C290.745 -43.4255 285.039 -39.2481 278.637 -36.0455C271.399 -32.4251 263.745 -30.8934 255.672 -32.0073C250.383 -32.7036 245.373 -33.9568 240.641 -36.1847C237.857 -37.438 235.213 -38.9697 232.708 -40.5014C227.001 -43.8433 221.434 -47.4637 215.589 -50.5271C194.433 -62.2238 171.886 -65.4264 148.087 -60.9706C142.659 -59.9958 137.509 -58.1857 132.638 -55.8185C127.349 -53.1728 122.756 -49.8309 119.277 -44.9572C114.266 -37.8557 112.596 -29.7794 113.014 -21.1462C113.014 -21.0069 113.292 -20.8676 113.431 -20.5891C114.266 -21.0069 114.266 -21.8424 114.545 -22.5386C116.075 -25.4628 117.606 -28.5262 119.277 -31.4504C123.73 -38.6912 129.715 -44.261 137.092 -48.1599C142.241 -50.8056 147.669 -52.4765 153.236 -53.4513C167.433 -56.097 181.211 -54.5653 194.712 -49.6916C201.671 -47.1852 208.351 -43.8433 215.032 -40.6406C220.042 -38.1342 225.053 -35.6277 230.063 -33.3998C235.77 -30.7541 241.754 -28.9439 248.017 -28.1085C262.631 -26.0198 275.992 -29.3617 288.101 -37.5772C289.493 -38.5519 290.745 -39.5266 291.58 -41.0583C293.251 -43.8433 294.921 -46.6282 296.591 -49.4131C297.008 -49.8309 297.008 -50.5271 297.148 -50.9448ZM114.962 -0.398418C115.797 -1.09465 116.215 -1.37314 116.632 -1.79088C122.339 -6.38601 128.741 -9.58869 135.978 -11.1204C139.179 -11.8166 142.38 -12.3736 145.581 -12.9306C152.401 -14.0446 159.221 -13.6268 165.902 -11.5381C170.634 -10.0064 175.366 -8.47473 180.098 -6.52528C186.083 -4.1581 192.067 -1.51242 198.052 1.13327C209.465 6.00689 221.573 8.51336 233.96 8.6526C241.893 8.79185 249.548 7.53861 256.368 3.36121C257.899 2.38649 259.569 1.41178 260.822 0.0193116C264.719 -4.43657 268.477 -9.03168 272.235 -13.6268C272.513 -14.0445 272.652 -14.4623 272.095 -14.8801C271.26 -14.6016 270.425 -14.323 269.59 -13.9053C261.379 -10.7027 252.889 -9.03168 244.12 -8.75318C232.151 -8.33544 220.738 -10.5634 210.161 -16.4117C208.49 -17.3865 206.681 -18.2219 204.872 -19.1967C196.939 -23.2348 188.866 -26.5767 180.237 -28.9439C168.407 -32.1466 156.577 -31.8681 144.746 -28.8047C135.282 -26.2983 127.349 -21.2854 121.086 -13.6268C118.859 -10.8419 116.911 -7.77848 115.38 -4.57581C114.684 -3.32259 114.127 -2.20862 114.962 -0.398418ZM111.065 15.3364C111.9 15.0579 112.457 14.9187 112.874 14.7794C117.189 13.1085 121.643 12.4122 126.236 12.273C131.524 12.1337 136.674 12.5515 141.824 13.387C147.808 14.5009 153.654 16.1719 159.221 18.2606C166.041 20.9063 172.861 23.6912 179.68 26.1976C184.273 28.0078 189.005 29.818 193.737 31.3497C199.722 33.2992 205.985 34.2739 212.248 34.1347C216.98 34.1347 221.713 33.4385 226.166 31.6282C227.001 31.2105 227.976 30.932 228.671 30.375C232.708 27.1723 236.605 23.8304 240.502 20.6277C240.919 20.3493 241.198 19.9315 240.502 19.3745C239.806 19.5138 238.832 19.7923 237.996 19.9315C232.986 20.9062 227.836 21.1848 222.687 20.9063C212.666 20.3493 203.202 17.8428 194.155 13.6654C190.954 12.1337 187.892 10.602 184.83 8.93106C176.201 4.61443 167.293 0.854798 157.829 -1.09465C154.071 -1.93012 150.314 -2.62637 146.417 -2.76562C133.055 -3.32261 121.643 1.13326 112.735 11.5767C111.9 12.6907 111.204 13.6654 111.065 15.3364ZM308.56 -63.7555C307.725 -62.5023 307.169 -61.9453 306.751 -61.2491C302.436 -52.8943 297.565 -44.818 292.694 -36.7417C291.441 -34.653 290.328 -32.4251 289.493 -30.1971C286.988 -23.2348 286.013 -15.994 286.848 -8.61397C287.266 -5.4113 287.823 -2.20861 288.379 0.994061C289.075 5.17145 289.91 9.20958 290.467 13.387C293.111 32.1852 289.771 49.7303 279.472 65.7436C279.194 66.3006 278.637 66.8576 278.776 67.5538C279.054 67.5538 279.194 67.5538 279.333 67.5538C287.544 61.8447 294.503 55.0216 299.514 46.2491C303.967 38.4513 306.333 29.9573 307.308 21.1848C308.282 12.83 308.282 4.47522 307.864 -3.87956C307.447 -11.3989 306.89 -18.9182 306.473 -26.4375C305.916 -37.4379 307.029 -48.4384 308.004 -59.4389C308.282 -60.6921 308.421 -61.806 308.56 -63.7555ZM287.405 -34.653C286.57 -34.5138 286.57 -34.5138 286.431 -34.5138C285.874 -34.2353 285.457 -33.9568 284.9 -33.6783C279.194 -30.4756 273.209 -27.9692 266.667 -26.8552C255.394 -24.9058 244.399 -26.2982 233.821 -30.3364C230.481 -31.5896 227.141 -33.1213 223.939 -34.653C218.929 -37.0202 213.918 -39.6659 208.908 -42.0331C202.923 -44.9573 196.939 -47.6029 190.536 -49.5524C176.201 -54.0083 161.726 -54.426 147.252 -50.3879C141.824 -48.8562 136.813 -46.489 132.22 -43.1471C123.452 -36.6025 117.885 -27.6907 114.266 -17.5257C113.57 -15.7155 113.292 -13.7661 113.709 -11.6774C113.849 -11.2596 113.849 -10.7027 114.405 -10.7027C114.545 -10.8419 114.823 -10.9812 114.823 -11.1204C115.101 -11.8166 115.38 -12.3736 115.658 -13.0698C117.606 -18.3612 120.668 -23.0956 124.426 -27.273C131.246 -34.653 139.318 -39.9444 149.2 -42.0331C154.906 -43.2863 160.613 -43.704 166.458 -43.2863C178.289 -42.4508 189.562 -39.5266 200.418 -34.653C207.238 -31.5896 214.058 -28.6654 220.877 -25.8805C225.47 -23.9311 230.202 -22.3993 235.074 -21.2853C244.955 -18.9182 254.837 -18.3612 264.858 -20.3107C270.564 -21.2854 275.714 -23.5133 280.446 -26.8552C283.369 -28.9439 285.735 -31.1718 287.405 -34.653ZM92.1367 28.8433C92.5542 29.1218 92.5542 29.261 92.6934 29.4003C93.1109 29.5395 93.5284 29.6787 94.0852 29.6787C104.106 31.3497 112.735 35.9449 120.39 42.6287C124.565 46.1098 128.88 49.591 133.055 52.9329C138.344 57.1103 144.19 60.0345 150.731 61.7054C156.437 63.2371 162.283 63.3764 167.989 61.7054C173 60.3129 178.01 58.7813 183.021 57.1103C186.918 55.7178 190.536 54.0469 194.294 52.3759C194.573 52.2367 195.268 52.2367 194.851 51.4012C194.433 51.4012 194.016 51.4012 193.598 51.4012C185.665 51.8189 177.871 50.8442 170.216 48.6163C161.865 46.1098 153.793 42.9072 146.138 38.5906C142.241 36.3626 138.483 34.2739 134.586 32.3245C130.272 30.0965 125.679 28.147 121.086 26.8938C115.936 25.5014 110.647 24.6659 105.219 24.9444C103.41 25.0836 101.462 25.2229 99.7915 25.7799C97.0079 26.4761 94.7811 27.7293 92.1367 28.8433ZM254.559 6.70312C253.863 6.56387 253.863 6.42465 253.724 6.42465C253.445 6.42465 253.028 6.56387 252.749 6.70312C246.208 9.3488 239.249 10.1843 232.29 10.0451C219.346 9.62732 206.96 6.70314 195.129 1.55103C188.866 -1.2339 182.464 -3.8796 176.201 -6.38603C171.747 -8.19623 167.015 -9.72792 162.283 -10.8419C159.082 -11.5381 155.881 -11.9559 152.54 -11.9559C144.746 -11.6774 137.092 -10.2849 129.715 -7.63925C124.705 -5.82904 120.112 -3.04413 115.936 0.437024C115.38 0.994007 114.823 1.55102 114.405 2.24725C114.127 2.66499 114.127 3.08273 114.127 3.63971C114.127 5.03218 113.57 6.28539 113.709 7.67785C114.823 7.8171 115.101 7.12085 115.658 6.70311C117.05 5.58914 118.302 4.33593 119.694 3.3612C127.349 -1.93016 136.117 -4.15808 145.303 -4.01883C149.2 -4.01883 153.236 -3.32259 156.994 -2.48711C166.876 -0.398414 176.062 3.36123 184.969 7.81711C188.449 9.62731 191.928 11.4375 195.547 13.1085C206.82 18.2606 218.79 20.4885 231.177 19.5138C234.795 19.2353 238.275 18.6783 241.754 17.4251C243.285 16.8681 244.816 16.3111 246.069 15.1972C249.131 12.4122 251.775 9.62729 254.559 6.70312ZM191.789 57.2496C191.511 57.2496 191.232 57.1103 191.093 57.1103C187.753 58.3635 184.273 59.4775 180.933 60.87C173.139 64.3511 166.319 69.2247 160.613 75.7693C155.742 81.3391 150.592 86.7698 145.581 92.2004C141.684 96.3777 136.952 99.5804 131.942 102.365C126.792 105.15 121.225 106.821 115.519 107.935C114.962 108.074 113.988 107.796 113.988 108.91C119.137 111.416 124.705 113.366 130.272 114.619C131.385 114.898 132.499 114.898 133.751 114.48C142.798 111.973 150.87 107.935 158.108 101.948C162.701 98.188 166.737 93.7321 169.938 88.7192C172.861 84.1241 175.644 79.3897 178.428 74.7946C182.046 68.6678 185.943 62.8194 191.093 57.8065C191.371 57.9458 191.65 57.528 191.789 57.2496ZM193.737 93.0359C193.877 93.1751 193.877 93.3143 194.016 93.3143C194.573 93.0358 195.268 92.8966 195.825 92.4789C201.671 88.7192 208.073 86.2128 214.893 85.5165C216.145 85.3773 216.98 84.6811 217.815 83.8456C222.13 79.3897 225.749 74.3768 228.115 68.6677C229.507 65.0473 230.898 61.2877 232.012 57.528C233.264 53.3506 234.378 49.034 235.63 44.8566C237.718 37.7551 239.806 30.5143 243.007 23.8304C243.146 23.5519 243.007 23.2735 243.146 22.5772C242.311 23.1342 241.754 23.552 241.337 23.9697C236.187 28.7041 230.759 33.0207 225.053 37.0588C222.965 38.5906 221.156 40.4007 219.764 42.4894C217.815 45.4136 215.867 48.3378 214.475 51.4012C212.527 55.7178 210.857 60.1737 209.186 64.6296C207.795 68.25 206.542 71.8704 205.15 75.3516C203.341 80.0859 200.696 84.2633 197.634 88.3015C196.521 89.8332 195.129 91.3649 193.737 93.0359ZM107.168 20.3493C108.003 20.3493 108.838 20.3493 109.534 20.21C113.292 19.9315 116.911 19.9315 120.668 20.3493C129.993 21.4632 138.901 23.6912 147.53 27.4508C151.288 29.1218 154.907 30.7927 158.664 32.4637C166.18 35.6664 173.835 38.5905 181.768 40.1222C191.371 42.0717 200.975 42.3502 210.578 40.9577C213.64 40.54 216.424 39.7045 218.79 37.6158C219.486 37.0588 220.321 36.5018 221.017 35.9448C221.295 35.6664 221.852 35.5271 221.573 34.6916C220.877 34.8309 220.042 34.8309 219.346 34.9702C214.754 35.6664 210.021 35.8056 205.429 35.2486C200.001 34.6916 194.712 33.4384 189.562 31.489C185.665 30.0965 181.768 28.5648 177.871 27.0331C169.799 23.6912 161.726 20.4885 153.376 17.7036C148.226 16.0326 143.076 14.7794 137.787 14.0832C131.107 13.2477 124.287 13.1084 117.606 14.5009C114.684 15.0579 112.039 16.1719 109.395 17.5643C108.56 18.3998 107.586 18.9568 107.168 20.3493ZM134.865 66.579C134.865 66.4398 134.865 66.1613 134.865 66.0221C134.447 65.8828 134.03 65.6043 133.612 65.4651C129.158 63.7941 125.261 61.4269 121.921 58.085C119.555 55.7178 117.05 53.3507 114.823 50.9835C110.926 46.8061 106.333 43.7426 101.183 41.5147C91.3016 37.0588 80.8632 34.8309 70.1464 34.6916C67.9195 34.6916 65.6926 34.9701 63.6049 35.3879C62.4915 35.5271 61.3781 36.0841 60.543 36.7803C58.1769 38.869 56.5068 41.5147 55.5325 44.5781C55.5325 44.7174 55.6717 44.9959 55.8109 45.2744C56.7851 44.9959 57.7594 44.7174 58.8728 44.5781C61.9348 43.8819 64.9967 43.6034 68.1979 43.8819C76.5486 44.7174 83.9251 47.6415 90.3273 53.0722C92.5542 55.0216 94.7811 57.1103 97.0079 59.199C99.374 61.4269 101.879 63.3764 104.802 64.9081C106.194 65.6043 107.586 66.0221 109.117 66.1613C116.632 66.7183 124.148 67.2753 131.664 66.9968C132.499 66.7183 133.612 66.579 134.865 66.579ZM281.977 -21.5639C279.333 -18.0827 277.106 -15.0193 274.74 -12.2343C272.93 -10.0064 271.678 -7.49998 270.982 -4.85431C269.729 -0.537672 268.894 3.77896 269.033 8.23484C269.173 12.5515 269.451 16.8681 269.729 21.0455C270.008 24.1089 270.425 27.0331 270.704 30.0965C271.399 40.6792 270.286 50.9835 266.807 61.0092C264.997 66.1613 262.91 71.1742 260.126 75.9086C259.848 76.4655 259.708 77.0225 259.43 77.858C264.023 76.8833 267.502 74.6553 270.286 71.0349C277.802 60.7307 281.838 49.4518 282.395 36.7803C282.673 31.2105 282.116 25.6406 281.56 20.0708C281.003 15.7541 280.446 11.2983 280.168 6.84238C279.611 -2.06939 279.75 -11.1204 282.116 -19.7537C281.977 -20.1714 281.977 -20.4499 281.977 -21.5639ZM136.813 115.733C137.37 115.872 137.787 116.151 138.205 116.151C143.633 116.847 149.061 116.708 154.489 115.454C155.881 115.176 157.133 114.619 158.386 114.062C160.474 112.948 162.701 111.695 164.649 110.302C175.227 103.062 183.995 94.2891 189.84 82.8709C191.789 79.1112 193.598 75.3516 195.268 71.5919C198.609 64.2119 202.506 57.2496 207.516 50.9835C208.073 50.2872 208.351 49.591 208.908 48.8948C206.542 49.591 204.593 50.8442 202.506 51.819C198.052 53.9076 194.433 57.2496 190.954 60.7307C186.5 65.1866 183.021 70.4779 179.959 75.9085C177.593 80.0859 175.087 84.1241 172.582 88.1622C168.964 93.8713 164.649 99.0234 159.36 103.34C153.515 108.214 146.973 111.973 139.736 114.619C138.762 114.758 137.648 114.898 136.813 115.733ZM106.333 105.011C108.56 106.96 110.647 107.378 113.153 107.1C124.565 105.568 134.586 100.973 142.937 93.0358C146.834 89.4154 150.314 85.3773 153.932 81.3391C158.943 75.7693 163.814 69.921 169.938 65.4651C170.216 65.3258 170.216 64.9081 170.495 64.7688C170.077 64.2119 169.52 64.4903 169.242 64.4903C162.84 66.1613 156.298 67.4145 149.757 68.25C148.643 68.3892 147.53 68.807 146.417 69.2247C142.38 71.1742 138.623 73.6806 135.143 76.744C130.689 80.6429 127.071 85.3773 123.73 90.2509C122.199 92.4788 120.529 94.846 118.859 97.074C116.354 100.277 113.153 102.505 109.395 103.897C108.56 104.176 107.725 104.454 106.333 105.011ZM224.357 84.1241C225.192 84.1241 225.749 84.2633 226.305 84.2633C228.254 84.1241 230.202 83.7064 232.151 83.7064C233.96 83.5671 235.352 82.7316 236.744 81.6177C238.692 79.9467 240.363 77.9972 241.754 75.9086C247.043 68.25 250.244 59.756 251.636 50.4265C252.61 43.4642 253.167 36.5019 253.445 29.5396C253.724 22.5772 255.116 15.8934 257.899 9.62731C258.177 9.07031 258.177 8.65259 258.456 7.67787C257.76 7.95635 257.482 7.95635 257.203 8.23484C253.863 11.2983 250.94 14.7794 248.992 18.9568C247.182 22.7165 245.651 26.6154 244.816 30.7928C243.842 34.9702 243.007 39.1475 242.033 43.3249C240.641 49.1733 239.249 55.0216 237.44 60.87C234.935 69.0855 231.177 76.6048 225.053 82.8709C224.914 83.0101 224.774 83.5671 224.357 84.1241ZM104.106 23.2735C105.637 23.4127 106.472 23.4127 107.307 23.4127C111.9 23.4127 116.354 24.1089 120.668 25.3621C125.679 26.7546 130.55 28.704 135.282 31.2105C139.597 33.4384 143.911 35.8056 148.087 38.1728C156.577 42.9072 165.623 46.2491 174.948 48.477C182.603 50.2872 190.397 50.705 198.191 49.4518C200.001 49.1733 201.81 48.7555 203.48 47.7808C205.429 46.5276 207.516 45.4136 209.465 44.1604C209.882 43.8819 210.578 43.7426 210.3 42.9072C210.161 42.7679 210.021 42.7679 210.021 42.7679C209.743 42.7679 209.326 42.7679 209.047 42.7679C193.877 44.4389 179.124 42.2109 164.927 36.6411C160.891 34.9701 156.855 33.1599 152.68 31.489C149.061 29.9573 145.442 28.2863 141.824 26.8938C132.499 23.5519 122.756 21.4632 112.874 21.6025C110.647 21.6025 108.421 22.0202 106.333 22.2987C105.637 22.2987 105.22 22.7165 104.106 23.2735ZM237.857 82.7316C239.667 82.5924 240.641 82.3139 241.615 82.3139C243.842 82.3139 245.512 81.0607 246.904 79.3897C248.992 77.0225 250.801 74.5161 252.471 71.7312C259.987 58.5028 263.745 44.2996 263.188 28.9825C263.049 25.9191 262.91 22.9949 262.77 19.9315C262.492 14.5009 262.631 9.07034 264.162 3.63973C264.301 3.22199 264.162 2.665 264.301 1.55103C263.605 2.38651 263.327 2.66501 263.049 3.08275C258.873 9.48808 256.368 16.5896 255.533 24.2482C255.255 27.1723 255.116 30.0965 254.837 32.8815C254.28 38.8691 253.863 44.9959 253.028 50.9835C251.358 62.9587 246.626 73.4021 237.857 82.7316ZM287.127 -27.9692C286.013 -27.1337 285.596 -26.2982 285.317 -25.4627C282.951 -18.9182 281.42 -12.0951 281.281 -4.99356C281.003 2.24725 281.56 9.34881 282.395 16.5896C282.951 21.4632 283.508 26.3369 283.786 31.2105C284.343 45.8313 280.585 59.3383 271.817 71.1742C271.539 71.4527 271.121 71.8704 271.817 72.4274C273.348 72.0097 274.461 70.7564 275.296 69.5032C285.735 55.3001 290.606 39.426 289.771 21.7417C289.493 16.4504 288.658 11.2983 287.823 6.14615C286.988 1.82951 286.292 -2.48712 285.596 -6.943C284.761 -12.9306 285.039 -19.0574 286.431 -24.9058C286.709 -25.7412 286.848 -26.716 287.127 -27.9692ZM217.12 42.7679C216.006 43.4642 215.589 43.7427 215.171 44.0212C214.614 44.5781 213.918 45.1351 213.501 45.6921C206.542 53.7684 200.696 62.5409 196.521 72.2881C194.573 76.6048 192.485 80.9214 190.258 85.0988C187.196 90.9472 183.299 96.0993 178.567 100.555C175.366 103.619 171.886 106.403 168.546 109.188C167.989 109.606 167.293 110.024 166.876 111.138C170.216 109.885 172.721 108.353 175.227 106.682C181.629 102.365 187.474 97.3525 192.763 91.7826C197.495 86.909 201.392 81.3391 203.898 75.0731C205.429 71.3134 206.82 67.4145 208.212 63.6549C210.578 56.9711 212.944 50.2872 216.841 44.2996C216.841 44.2996 216.841 43.8819 217.12 42.7679ZM269.033 -4.15807C268.894 -4.15807 268.755 -4.29733 268.616 -4.29733C268.338 -3.74035 267.92 -3.18333 267.781 -2.4871C265.276 3.91823 264.023 10.4628 264.301 17.2859C264.441 21.1847 264.719 24.9444 264.858 28.8433C265.276 39.2868 263.605 49.4518 260.126 59.3383C257.482 66.4398 254.28 73.2629 249.409 79.1112C248.992 79.5289 248.296 79.9467 248.713 81.0607C250.105 80.7822 251.358 80.5037 252.749 80.2252C253.863 79.9467 254.976 79.6682 256.09 79.2505C256.646 79.1112 257.064 78.5542 257.342 78.1365C258.456 76.4656 259.43 74.7946 260.404 73.1236C267.92 58.9205 270.843 43.8819 269.312 27.8686C269.033 24.9444 268.616 22.1595 268.338 19.2353C267.642 11.8552 267.363 4.33594 269.312 -2.90487C269.033 -3.46185 269.033 -3.87958 269.033 -4.15807ZM98.6781 100.973C100.07 101.808 101.183 102.365 102.158 103.062C103.271 103.758 104.524 103.897 105.776 103.619C110.508 102.505 114.684 100.137 117.606 96.2385C119.694 93.5928 121.503 90.8079 123.452 88.023C128.184 81.1999 133.612 75.0731 140.849 70.7564C141.267 70.4779 141.963 70.3387 141.824 69.364C141.128 69.364 140.571 69.364 139.875 69.364C137.509 69.5032 135.282 69.7817 132.916 69.7817C130.828 69.7817 129.158 70.4779 127.488 71.7312C124.287 74.2376 121.643 77.301 119.137 80.5037C116.771 83.5671 114.544 86.6305 112.318 89.6939C108.977 94.289 104.941 98.0487 99.5132 100.137C99.374 100.137 99.2348 100.416 98.6781 100.973ZM121.503 70.4779C121.086 70.0602 120.947 69.921 120.947 69.921C120.668 69.7817 120.251 69.7817 119.972 69.7817C114.823 69.5032 110.091 71.0349 105.915 73.9591C102.575 76.3263 99.2348 78.6935 96.0337 81.0607C91.7191 84.2633 86.8478 86.0735 81.559 86.352C80.1672 86.4913 78.7754 86.352 77.3836 86.4913C76.9661 86.4913 76.4094 86.352 76.4094 87.3268C78.4971 88.58 80.724 89.8332 82.6725 91.3649C84.621 92.7574 86.7087 92.8966 88.9355 92.4788C94.2244 91.5041 98.6781 88.8584 102.714 85.3773C105.08 83.4278 107.446 81.1999 109.534 78.972C112.318 76.1871 115.658 73.9591 119.137 72.0097C119.833 71.4527 120.529 71.0349 121.503 70.4779ZM87.9613 94.1498C90.3273 96.0993 92.6934 97.2132 94.9202 98.7449C96.0337 99.5804 97.2863 99.5804 98.5389 99.1627C101.183 98.1879 103.549 96.7955 105.776 94.9853C108.421 92.7573 110.508 89.9724 112.596 87.1875C115.658 83.1494 118.859 79.1112 122.06 75.0731C123.174 73.6806 124.565 72.4274 126.236 70.7564C125.261 70.8957 124.844 70.8957 124.426 71.0349C121.921 72.2881 119.416 73.4021 117.05 74.7946C112.735 77.301 109.256 81.0607 105.637 84.5418C100.905 88.9977 95.6162 92.4789 89.0747 93.7321C88.7964 93.7321 88.6572 93.8713 87.9613 94.1498ZM110.23 69.5032C107.307 68.6677 104.384 68.3892 102.018 68.807C98.8173 69.364 95.7553 70.3387 92.8326 71.8704C90.3273 73.2629 87.8221 74.6553 85.3169 76.1871C80.4456 79.2505 75.1568 81.1999 69.3113 81.3391C68.7546 81.3391 68.1978 81.4784 67.502 81.4784C69.868 83.7063 71.1206 84.4025 73.3474 84.681C82.1158 85.795 90.1881 84.4025 97.1471 78.415C100.905 75.2123 104.941 72.5666 109.256 70.3387C109.534 70.1994 109.812 69.9209 110.23 69.5032ZM101.462 65.0474C101.044 64.6296 100.905 64.2119 100.627 64.0726C98.8173 62.5409 96.8687 61.0092 95.0594 59.3382C92.9717 57.528 91.0232 55.4393 88.9356 53.7684C82.5333 48.477 75.1568 45.6921 66.9452 45.1351C63.4657 44.8566 59.9863 45.4136 56.646 46.3883C54.8366 46.9453 53.584 47.92 53.1665 49.8695C53.0273 50.2872 52.8881 50.7049 52.749 51.4012C53.7232 51.4012 54.5583 51.2619 55.2542 51.2619C58.1769 50.9834 61.0997 50.5657 63.8833 50.5657C73.6258 50.5657 82.2549 53.7684 89.6314 60.3129C90.7449 61.2877 91.9975 62.2624 93.1109 63.2371C95.477 65.0473 98.2605 65.1866 101.462 65.0474ZM91.7191 64.2119C88.1005 60.87 85.1777 58.2243 81.559 56.2748C72.6516 51.5404 63.1874 51.1227 53.4449 52.7936C50.6613 53.3506 49.687 55.3001 48.2952 57.8065C49.5478 57.528 50.2437 57.3888 51.0788 57.2495C53.3057 56.9711 55.3933 56.5533 57.6202 56.4141C65.5534 56.2748 73.0691 58.085 79.7497 62.4016C80.5848 62.8194 81.4199 63.2371 82.2549 63.6549C82.8116 63.7941 83.3684 63.7941 83.9251 63.7941C86.2911 63.9333 88.6572 63.9334 91.7191 64.2119ZM77.9404 63.3764C77.2445 62.8194 76.827 62.2624 76.4094 62.1232C66.3885 57.2495 56.2284 56.414 45.79 60.3129C43.2848 61.2877 41.1971 62.8194 38.831 64.4903C39.8053 65.0473 40.6404 64.9081 41.3362 64.7688C44.1198 64.6296 46.9034 64.6296 49.5478 65.4651C51.3572 66.0221 53.1665 66.0221 54.9758 65.6043C61.5172 64.3511 68.1979 63.6549 75.0176 63.5156C75.8527 63.5156 76.6878 63.3764 77.9404 63.3764ZM82.9508 66.7183C81.8374 67.8322 80.8631 68.807 79.8889 69.7817C78.7755 70.7564 77.5228 71.7312 76.2702 72.5666C75.1568 73.2629 73.9042 73.9591 72.6516 74.5161C71.399 75.0731 70.1464 75.6301 68.7546 76.0478C67.3628 76.4655 65.8318 76.744 64.3008 77.1617C63.0482 77.4402 61.6564 77.4402 60.1254 77.9972C61.9348 79.6682 63.7441 80.0859 65.6926 80.0859C72.5124 80.5037 78.7755 78.8327 84.621 75.0731C88.3788 72.7059 92.1366 70.3387 96.312 68.807C96.5904 68.6677 96.7296 68.3892 97.1471 67.9715C92.1367 67.136 87.5437 66.8575 82.9508 66.7183ZM47.4601 66.579C47.0426 66.4398 46.6251 66.3005 46.2075 66.1613C36.0474 65.3258 27.2791 68.25 19.9027 75.4908C15.0314 80.3644 11.5519 86.2128 8.62912 92.4788C8.48996 92.8966 8.07242 93.4536 8.76831 94.0106C18.9284 81.1999 30.8978 71.0349 47.4601 66.579ZM63.0482 67.9715C60.4038 67.5537 57.8986 67.9715 49.8262 69.6425C42.728 71.1742 35.9082 73.6806 30.0627 77.858C24.9131 81.4784 19.9027 85.0988 16.284 90.2509C16.9799 89.9724 17.6758 89.4154 18.3717 88.9977C21.5728 86.7697 24.7739 84.2633 28.1142 82.1746C33.8206 78.6935 39.9444 75.7693 46.7642 74.9338C52.053 74.2376 57.0635 72.1489 61.6564 69.2247C61.9348 68.9462 62.3523 68.5285 63.0482 67.9715ZM52.4706 75.3516C54.8366 76.4655 54.8366 76.4655 56.646 76.4655C60.9605 76.3263 65.1359 75.63 69.3113 74.2376C72.6516 72.9844 75.8527 71.3134 78.6363 68.9462C79.193 68.5285 79.6105 67.8323 80.3064 66.8575C79.193 66.7183 78.6363 66.579 77.9404 66.579C75.1568 66.579 72.3732 66.7183 69.5896 66.7183C67.7803 66.7183 66.2493 67.2753 64.8575 68.5285C61.7956 71.1742 58.3161 72.8451 54.5583 74.2376C53.8624 74.5161 52.8881 74.5161 52.4706 75.3516Z" fill="#FDE2B9"/>
</g>
<defs>
<clipPath id="clip0_33_306">
<rect width="546" height="606" fill="white" transform="translate(546 447) rotate(-180)"/>
</clipPath>
</defs>
</svg>
