<svg width="232" height="232" viewBox="0 0 232 232" fill="none" xmlns="http://www.w3.org/2000/svg">
<g filter="url(#filter0_f_26_163)">
<circle cx="116" cy="116" r="64" fill="#FFF9E4"/>
</g>
<circle cx="124" cy="144" r="42" fill="white"/>
<path d="M96.2007 175.785C96.2007 162.909 96.2007 150.209 96.2183 137.491C96.2183 136.86 96.0247 136.423 95.5492 135.985C90.8479 131.693 86.1641 127.366 81.4628 123.057C79.8957 121.62 79.3322 119.868 79.8076 117.836C80.2831 115.892 81.6037 114.648 83.5405 114.175C85.3013 113.737 86.9037 114.14 88.2595 115.366C91.2705 118.082 94.2991 120.814 97.31 123.53C97.5566 123.757 97.8207 123.968 98.2257 124.3C98.5602 120.727 100.057 118.029 102.909 116.137C105.005 114.753 107.329 114.315 109.777 114.578C113.245 114.946 118.035 117.679 118.721 124.195C119.038 123.95 119.32 123.792 119.549 123.582C122.648 120.832 125.677 118.047 128.776 115.314C131.681 112.756 136.241 114.123 137.157 117.836C137.668 119.903 137.034 121.655 135.449 123.109C130.818 127.348 126.205 131.623 121.556 135.862C120.993 136.37 120.746 136.896 120.746 137.666C120.764 149.648 120.764 161.63 120.764 173.595C120.764 174.261 120.764 174.926 120.764 175.767C121.803 175.767 122.859 175.767 123.933 175.767C125.694 175.767 126.222 176.293 126.222 178.062C126.222 179.814 126.258 181.565 126.205 183.3C126.17 184.176 126.487 184.368 127.314 184.351C133.107 184.316 138.918 184.333 144.711 184.333C146.419 184.333 146.982 184.894 146.982 186.575C146.982 189.045 146.982 191.533 146.982 194.003C146.982 195.282 146.419 195.947 145.38 195.965C144.288 196 143.637 195.352 143.602 194.056C143.549 192.286 143.549 190.499 143.584 188.73C143.602 187.959 143.373 187.732 142.598 187.732C136.77 187.767 130.941 187.749 125.113 187.749C123.388 187.749 122.824 187.171 122.806 185.437C122.806 183.633 122.789 181.828 122.824 180.024C122.842 179.393 122.683 179.148 121.997 179.166C112.699 179.183 103.42 179.183 94.123 179.166C93.4715 179.166 93.2602 179.358 93.2778 180.006C93.313 181.811 93.2778 183.615 93.2954 185.419C93.313 186.768 92.908 187.802 90.9183 187.767C85.4422 187.697 79.9661 187.767 74.49 187.732C73.6272 187.732 73.3807 187.994 73.4159 188.818C73.4687 190.534 73.4511 192.251 73.4159 193.968C73.3807 195.317 72.7292 196 71.6199 195.965C70.7571 195.947 70.0528 195.369 70.0528 194.529C70.0176 191.638 70.0176 188.765 70.0528 185.875C70.0704 184.894 70.8451 184.351 72.0249 184.333C77.4482 184.333 82.8714 184.333 88.2947 184.333C89.9675 184.333 89.8794 184.684 89.8794 182.739C89.8794 181.057 89.8618 179.358 89.897 177.677C89.9147 176.345 90.5309 175.767 91.8515 175.767C93.2602 175.767 94.7217 175.785 96.2007 175.785ZM108.491 134.863C108.016 134.863 107.294 134.741 106.73 134.636C106.255 134.548 105.78 134.408 105.339 134.215C104.336 133.812 103.35 133.374 102.452 132.779C101.536 132.183 100.832 131.29 100.004 130.537C97.1692 127.962 94.3343 125.404 91.4818 122.829C89.6681 121.182 87.8369 119.553 86.0057 117.906C85.4598 117.416 84.7731 117.223 84.1392 117.574C83.699 117.819 83.294 118.309 83.1356 118.782C82.889 119.501 83.3116 120.096 83.8575 120.622C88.7525 125.106 93.6123 129.608 98.525 134.075C99.2997 134.793 99.6343 135.564 99.6343 136.598C99.5991 142.799 99.6167 149.018 99.6167 155.219C99.6167 161.543 99.6167 167.867 99.6167 174.191C99.6167 175.172 100.145 175.802 100.955 175.785C101.73 175.785 102.276 175.189 102.328 174.278C102.346 174.05 102.328 173.805 102.328 173.577C102.328 168.83 102.328 164.083 102.328 159.336C102.328 157.724 102.857 157.198 104.494 157.198C107.135 157.198 109.759 157.198 112.4 157.198C114.108 157.198 114.584 157.689 114.601 159.388C114.601 164.17 114.601 168.953 114.601 173.718C114.601 175.084 115.041 175.767 115.957 175.785C116.873 175.802 117.313 175.154 117.313 173.77C117.313 161.385 117.313 149 117.295 136.615C117.295 135.564 117.63 134.811 118.404 134.093C123.264 129.661 128.089 125.211 132.914 120.744C133.283 120.394 133.635 119.956 133.776 119.483C134.005 118.712 133.706 118.029 132.966 117.644C132.156 117.223 131.452 117.433 130.801 118.029C128.265 120.324 125.729 122.601 123.194 124.913C120.852 127.033 118.457 129.1 116.221 131.307C114.724 132.779 113.122 133.953 111.062 134.461C111.097 134.443 109.759 134.863 108.491 134.863ZM108.456 131.395C112.277 131.413 115.253 128.452 115.253 124.668C115.253 120.919 112.294 117.959 108.526 117.941C104.723 117.924 101.73 120.884 101.73 124.686C101.73 128.435 104.688 131.377 108.456 131.395ZM111.308 175.715C111.273 174.909 111.203 174.173 111.203 173.455C111.185 169.443 111.185 165.414 111.22 161.403C111.22 160.702 110.991 160.492 110.322 160.509C109.125 160.544 107.928 160.562 106.73 160.509C105.991 160.474 105.78 160.737 105.797 161.455C105.832 165.537 105.815 169.601 105.815 173.683C105.815 174.348 105.744 174.996 105.709 175.715C107.558 175.715 109.389 175.715 111.308 175.715Z" fill="#D79E49"/>
<defs>
<filter id="filter0_f_26_163" x="0" y="0" width="232" height="232" filterUnits="userSpaceOnUse" color-interpolation-filters="sRGB">
<feFlood flood-opacity="0" result="BackgroundImageFix"/>
<feBlend mode="normal" in="SourceGraphic" in2="BackgroundImageFix" result="shape"/>
<feGaussianBlur stdDeviation="26" result="effect1_foregroundBlur_26_163"/>
</filter>
</defs>
</svg>
