<svg width="232" height="232" viewBox="0 0 232 232" fill="none" xmlns="http://www.w3.org/2000/svg">
<g filter="url(#filter0_f_26_129)">
<circle cx="116" cy="116" r="64" fill="#FFF9E4"/>
</g>
<circle cx="132" cy="92" r="42" fill="white"/>
<g clip-path="url(#clip0_26_129)">
<path d="M117.191 86.0728C126.287 86.114 134.263 89.3323 141.287 94.8817C150.237 101.958 156.349 110.973 159.001 122.113C160.804 129.746 160.431 137.255 156.681 144.352C154.878 147.756 152.247 150.458 149.098 152.686C148.684 152.975 148.29 153.532 148.166 154.027C144.933 166.735 137.413 175.544 124.505 178.989C112.343 182.249 99.6635 177.401 92.0391 167.127C89.0763 163.146 87.1288 158.731 86.0514 153.903C85.9478 153.47 85.5749 152.996 85.202 152.727C79.5044 148.767 76.0858 143.382 74.822 136.595C73.5374 129.725 74.3454 123.041 76.8938 116.584C81.5348 104.805 89.3457 95.7687 100.72 89.9718C105.941 87.3105 111.452 86.0728 117.191 86.0728ZM89.3249 139.298C89.3249 141.711 89.3042 144.104 89.3249 146.518C89.4078 153.223 91.2725 159.37 95.3333 164.796C104.222 176.637 120.154 179.526 132.109 171.253C140.769 165.27 144.706 156.688 144.871 146.312C144.933 142.124 144.726 137.915 144.933 133.727C145.058 131.231 144.25 129.333 142.509 127.704C142.385 127.58 142.261 127.456 142.157 127.332C137.786 122.835 133 118.853 127.779 115.429C124.65 113.366 121.294 111.674 118.02 109.859C117.647 109.653 116.984 109.632 116.57 109.818C110.189 112.479 104.118 115.738 98.5861 119.885C95.6855 122.051 92.9507 124.423 90.796 127.374C89.8015 128.756 89.2628 130.241 89.3042 131.974C89.3871 134.408 89.3249 136.863 89.3249 139.298ZM122.723 107.425C123.179 107.734 123.428 107.899 123.676 108.064C127.385 110.519 131.176 112.85 134.74 115.47C139.132 118.688 143.235 122.278 146.798 126.445C148.269 128.157 149.015 130.035 148.974 132.366C148.849 137.008 148.932 141.649 148.932 146.291C148.932 146.642 148.974 146.972 148.994 147.322C149.119 147.384 149.264 147.426 149.388 147.488C150.548 145.961 151.874 144.537 152.807 142.887C156.329 136.781 156.722 130.179 155.148 123.516C152.206 111.014 145.037 101.401 133.994 94.8404C124.671 89.3116 114.788 88.5071 104.657 92.633C98.4204 95.1498 93.22 99.152 88.9313 104.268C81.742 112.85 77.3289 122.443 78.5099 133.934C79.0071 138.782 80.7682 143.114 84.2489 146.642C84.4975 146.889 84.7876 147.116 85.2434 147.488C85.2641 146.91 85.3055 146.559 85.3055 146.208C85.3055 141.505 85.3677 136.781 85.2848 132.077C85.2434 129.416 86.0307 127.085 87.5639 124.96C89.5321 122.216 91.9562 119.947 94.6082 117.863C103.041 111.22 112.53 106.579 122.703 103.216C123.904 102.824 125.127 102.432 126.349 102.102C127.592 101.751 128.607 102.308 128.98 103.443C129.312 104.474 128.732 105.506 127.551 105.939C127.198 106.063 126.825 106.146 126.453 106.249C125.272 106.62 124.111 106.991 122.723 107.425Z" fill="#D79E49"/>
<path d="M85.8028 92.241C85.8028 93.1281 85.3677 93.7264 84.5597 94.0771C84.3318 94.1596 84.1039 94.2215 83.8552 94.2628C81.1618 94.7372 81.0997 94.8198 80.5817 97.5223C80.3331 98.8426 79.6908 99.4408 78.572 99.4408C77.4325 99.4408 76.7695 98.8219 76.5209 97.5429C76.5209 97.5016 76.5209 97.481 76.5002 97.4397C76.0029 94.8404 75.8993 94.7372 73.2681 94.2628C72.025 94.0358 71.4034 93.4788 71.3205 92.4886C71.2169 91.3127 71.7971 90.3637 72.978 90.2812C75.2778 90.1162 76.4173 89.0022 76.5623 86.6916C76.6245 85.5983 77.5154 85 78.572 85.0206C79.5665 85.0413 80.2917 85.6601 80.5403 86.671C80.561 86.7329 80.5403 86.8154 80.561 86.8773C81.079 89.6417 81.079 89.6417 83.876 90.2193C85.2019 90.4669 85.8028 91.1064 85.8028 92.241Z" fill="#D79E49"/>
<path d="M149.015 179.526C147.938 179.546 147.212 178.989 147.005 177.855C146.86 176.988 146.467 176.575 145.596 176.41C144.374 176.163 143.856 175.503 143.856 174.451C143.856 173.399 144.374 172.676 145.576 172.47C146.487 172.326 146.84 171.872 147.005 171.026C147.212 169.933 148.041 169.252 148.994 169.273C149.885 169.273 150.797 169.933 150.921 170.964C151.066 171.975 151.584 172.305 152.496 172.491C153.552 172.697 154.153 173.522 154.132 174.451C154.112 175.4 153.511 176.142 152.434 176.349C151.543 176.514 151.087 176.864 150.942 177.834C150.797 178.969 150.03 179.505 149.015 179.526Z" fill="#D79E49"/>
<path d="M73.931 109.343C73.931 110.725 72.8122 111.798 71.4034 111.777C69.9945 111.757 68.9586 110.684 68.9793 109.261C69 107.878 70.036 106.888 71.4241 106.888C72.8744 106.909 73.9518 107.961 73.931 109.343Z" fill="#D79E49"/>
<path d="M160.514 162.815C161.923 162.815 163.021 163.929 163 165.291C162.959 166.673 161.84 167.725 160.431 167.705C159.105 167.684 158.007 166.591 158.007 165.27C158.007 163.888 159.105 162.815 160.514 162.815Z" fill="#D79E49"/>
<path d="M117.108 166.467C111.307 166.467 106.48 163.249 104.449 158.029C104.304 157.658 104.159 157.245 104.097 156.853C103.952 155.739 104.491 154.852 105.444 154.605C106.563 154.295 107.412 154.79 107.972 155.843C108.676 157.163 109.277 158.607 110.292 159.68C115.016 164.651 123.738 162.754 126.142 156.358C126.39 155.698 126.971 154.955 127.592 154.687C128.11 154.46 129.022 154.749 129.56 155.1C130.348 155.616 130.306 156.544 130.016 157.349C128.732 161.144 126.308 163.929 122.557 165.394C120.859 166.054 118.994 166.302 117.191 166.735C117.15 166.653 117.129 166.549 117.108 166.467Z" fill="#D79E49"/>
<path d="M101.549 148.519C97.5087 148.519 94.028 145.239 93.9451 141.319C93.9244 139.958 94.6496 139.009 95.8305 138.926C97.0115 138.844 97.8609 139.689 97.9852 141.051C98.1717 143.052 99.6635 144.476 101.549 144.496C103.476 144.517 104.967 143.114 105.154 141.113C105.278 139.751 106.107 138.885 107.267 138.926C108.448 138.967 109.194 139.875 109.173 141.257C109.153 145.239 105.693 148.519 101.549 148.519Z" fill="#D79E49"/>
<path d="M132.606 148.519C128.442 148.498 125.002 145.136 125.044 141.113C125.044 139.875 125.79 139.009 126.908 138.947C128.069 138.885 128.96 139.751 129.084 141.092C129.27 143.135 130.783 144.558 132.73 144.517C134.657 144.476 136.025 143.093 136.252 140.907C136.377 139.793 137.123 139.009 138.138 138.947C139.112 138.885 140.148 139.586 140.21 140.577C140.272 141.402 140.168 142.289 139.94 143.093C138.987 146.353 136.025 148.54 132.606 148.519Z" fill="#D79E49"/>
<path d="M108.365 131.149C106.791 131.149 105.216 131.066 103.662 131.169C100.948 131.355 98.4204 132.242 96.0377 133.542C95.2297 133.975 94.401 134.14 93.5929 133.604C92.2877 132.758 92.4327 130.942 93.8623 130.117C96.2656 128.756 98.8554 127.848 101.611 127.353C103.973 126.94 106.335 126.796 108.697 127.394C109.898 127.704 110.582 128.632 110.416 129.725C110.271 130.695 109.422 131.396 108.365 131.149Z" fill="#D79E49"/>
<path d="M128.814 130.942C128.11 131.066 127.323 131.169 126.556 131.314C125.209 131.582 124.132 131.025 123.842 129.89C123.552 128.735 124.298 127.662 125.665 127.374C130.099 126.466 134.284 127.374 138.345 129.106C139.008 129.395 139.65 129.725 140.293 130.076C141.494 130.757 141.846 131.891 141.246 132.944C140.686 133.913 139.547 134.099 138.345 133.624C136.17 132.779 133.973 131.995 131.756 131.314C130.845 131.046 129.85 131.066 128.814 130.942Z" fill="#D79E49"/>
</g>
<defs>
<filter id="filter0_f_26_129" x="0" y="0" width="232" height="232" filterUnits="userSpaceOnUse" color-interpolation-filters="sRGB">
<feFlood flood-opacity="0" result="BackgroundImageFix"/>
<feBlend mode="normal" in="SourceGraphic" in2="BackgroundImageFix" result="shape"/>
<feGaussianBlur stdDeviation="26" result="effect1_foregroundBlur_26_129"/>
</filter>
<clipPath id="clip0_26_129">
<rect width="94" height="95" fill="white" transform="translate(69 85)"/>
</clipPath>
</defs>
</svg>
