<svg width="232" height="232" viewBox="0 0 232 232" fill="none" xmlns="http://www.w3.org/2000/svg">
<g filter="url(#filter0_f_26_112)">
<circle cx="116" cy="116" r="64" fill="#FFF9E4"/>
</g>
<circle cx="153" cy="124" r="42" fill="white"/>
<g clip-path="url(#clip0_26_112)">
<path d="M102.085 137.024C104.368 135.658 106.457 134.415 108.619 133.122C108.279 131.658 107.745 129.976 107.502 128.219C106.142 118.317 111.413 107.634 123.291 105.927C129.121 105.098 133.955 107.39 137.939 111.634C138.231 111.951 138.547 112.268 138.887 112.634C144.644 106.049 151.567 103.756 159.583 107.415C168.279 111.366 170.854 118.976 170.441 128.122C171.656 128.122 172.87 127.951 174.012 128.146C179.745 129.171 183.291 133.902 182.951 139.78C182.733 143.439 181.057 146.366 178.7 148.976C175.372 152.707 171.316 155.512 166.943 157.854C165.972 158.366 164.976 158.341 164.053 157.732C161.065 155.732 158.125 153.683 155.162 151.634C154.846 151.415 154.555 151.122 154.215 150.878C152.125 152.317 150.158 153.805 148.093 155.122C145.737 156.634 143.283 157.951 140.927 159.439C139.47 160.341 138.158 160.293 136.749 159.39C132.765 156.829 128.781 154.293 124.798 151.756C124.287 151.439 123.826 151.049 123.389 150.732C123.194 150.854 123.097 150.878 123.073 150.927C120.619 157.805 115.372 162.195 109.664 166.171C107.818 167.463 105.85 168.61 103.834 169.658C103.105 170.024 101.891 170.219 101.21 169.878C94.5303 166.39 88.3603 162.195 83.9635 155.829C80.7085 151.122 79.9554 146.049 82.2145 140.707C85.2753 133.39 95.1376 130.317 101.551 136.561C101.818 136.805 102.036 137 102.085 137.024ZM164.806 130.268C164.927 130.098 165.024 130 165.049 129.902C165.146 129.683 165.219 129.439 165.267 129.219C166.093 126.195 165.85 123.171 164.951 120.219C162.814 113.146 155.478 109 148.919 111.146C145.397 112.293 142.992 114.78 141.097 117.878C139.858 119.878 138.012 119.829 136.652 117.902C135.607 116.415 134.514 114.927 133.202 113.707C130.482 111.171 127.178 110.146 123.486 110.756C114.838 112.195 111.146 120.317 112.215 127.78C112.822 132 115.008 135.537 117.68 138.732C123.413 145.585 130.603 150.561 138.328 154.854C138.668 155.049 139.372 154.951 139.737 154.732C143.283 152.488 146.806 150.195 150.328 147.878C150.571 147.707 150.789 147.463 150.984 147.244C146.441 140.634 148.36 134.341 151.202 131.317C152.879 129.537 154.943 128.512 157.324 128.146C160.142 127.732 162.595 128.61 164.806 130.268ZM85.6882 146.805C85.6639 149.244 86.8299 152.049 89.0162 154.732C92.5384 159.024 97.0081 162.146 101.769 164.878C102.085 165.049 102.644 165.049 102.959 164.854C107.332 162.341 111.437 159.488 114.838 155.707C116.733 153.561 118.287 151.219 118.846 148.317C119.016 147.439 118.798 146.902 118.215 146.268C116.15 144 114.109 141.683 112.166 139.317C111.024 137.927 110.927 137.732 109.275 138.341C108.304 138.707 107.381 139.244 106.579 139.902C105.826 140.537 105.194 141.366 104.611 142.195C103.178 144.268 101.526 144.219 100.02 142.171C99.2186 141.073 98.2469 140.049 97.2024 139.195C96.0121 138.244 94.5303 137.829 92.9757 138.073C88.506 138.756 85.7125 142.073 85.6882 146.805ZM153.024 139.024C152.927 141.537 154.02 143.415 155.405 145.146C158.053 148.439 161.453 150.829 165.073 152.927C165.34 153.098 165.874 153.098 166.166 152.927C170.004 150.707 173.575 148.171 176.271 144.561C177.753 142.585 178.579 140.415 178.142 137.878C177.729 135.415 176.125 133.585 173.696 132.976C171.656 132.463 169.615 133.317 168.158 135.341C167.939 135.634 167.818 136.049 167.551 136.219C166.895 136.634 166.215 137.098 165.486 137.219C164.441 137.39 163.858 136.561 163.324 135.756C161.599 133.195 159.413 132.293 156.935 133.098C154.53 133.902 153.024 136.219 153.024 139.024Z" fill="#D79E49"/>
<path d="M143.356 175.512C143.429 179.146 141.68 181.951 139.348 184.488C136.555 187.537 133.202 189.878 129.534 191.732C128.879 192.073 127.785 192.146 127.154 191.829C122.66 189.537 118.555 186.683 115.494 182.537C113.138 179.341 112.36 175.829 113.599 171.976C115.47 166.171 122.636 163.61 127.47 167.439C127.907 167.78 128.247 168 128.83 167.561C131.794 165.22 135.049 164.976 138.352 166.683C141.704 168.415 143.211 171.39 143.356 175.122C143.356 175.268 143.356 175.39 143.356 175.512ZM138.619 175.488C138.619 175.244 138.644 175 138.619 174.756C138.449 172.683 137.138 171.073 135.17 170.537C133.47 170.073 131.842 170.78 130.603 172.537C130.506 172.659 130.433 172.805 130.336 172.951C129.121 174.707 127.348 174.707 126.109 172.951C125.964 172.756 125.842 172.537 125.696 172.341C124.603 170.951 123.267 170.073 121.397 170.537C119.502 170.976 118.215 172.463 117.874 174.439C117.462 176.732 118.36 178.585 119.696 180.268C121.858 183.024 124.652 185 127.64 186.756C127.931 186.927 128.514 186.927 128.83 186.756C131.721 185.049 134.466 183.098 136.603 180.439C137.745 178.976 138.692 177.439 138.619 175.488Z" fill="#D79E49"/>
<path d="M171.534 175.244C171.534 176.561 170.733 177.439 169.3 177.659C165.437 178.268 165.826 178.049 165.146 181.854C164.903 183.244 164.077 184.024 162.814 184.049C161.478 184.073 160.652 183.293 160.409 181.829C160.385 181.659 160.385 181.512 160.336 181.341C159.753 178.122 159.753 178.122 156.449 177.683C154.895 177.463 154.045 176.659 154.02 175.317C153.996 173.951 154.725 173.195 156.328 172.878C159.972 172.146 159.704 172.707 160.409 168.561C160.628 167.268 161.599 166.366 162.789 166.39C163.931 166.415 164.903 167.268 165.097 168.488C165.802 172.78 165.486 172.122 169.47 172.927C170.83 173.195 171.534 174 171.534 175.244Z" fill="#D79E49"/>
<path d="M93.8016 100C95.4534 99.9756 96.1822 100.634 96.5222 101.756C96.668 102.219 96.7409 102.707 96.838 103.171C96.9838 103.976 97.4453 104.463 98.2712 104.61C98.7571 104.707 99.2186 104.78 99.6801 104.902C100.725 105.244 101.405 105.902 101.429 107.098C101.478 108.244 100.992 109.244 99.8745 109.39C97.7125 109.683 96.6437 110.732 96.4008 112.927C96.2793 113.951 95.3077 114.512 94.2388 114.512C93.17 114.488 92.1984 113.976 92.0769 112.927C91.8097 110.756 90.7652 109.683 88.6032 109.415C87.5101 109.268 86.9514 108.268 87.0243 107.122C87.0729 105.976 87.7287 105.268 88.7975 104.927C88.9919 104.878 89.1862 104.829 89.3805 104.805C90.9595 104.683 91.6639 103.805 91.8583 102.244C92.0526 100.707 92.9271 100 93.8016 100Z" fill="#D79E49"/>
<path d="M148.312 193.658C148.312 192.366 149.283 191.317 150.547 191.268C151.785 191.219 153 192.39 153 193.634C153 194.927 151.883 196.024 150.571 196C149.283 195.976 148.312 194.976 148.312 193.658Z" fill="#D79E49"/>
<path d="M98.9757 123.561C99 124.561 98.3441 125.268 97.3725 125.293C96.3522 125.317 95.5506 124.585 95.5506 123.61C95.5506 122.683 96.3036 121.951 97.251 121.927C98.2712 121.902 98.9514 122.585 98.9757 123.561Z" fill="#D79E49"/>
</g>
<defs>
<filter id="filter0_f_26_112" x="0" y="0" width="232" height="232" filterUnits="userSpaceOnUse" color-interpolation-filters="sRGB">
<feFlood flood-opacity="0" result="BackgroundImageFix"/>
<feBlend mode="normal" in="SourceGraphic" in2="BackgroundImageFix" result="shape"/>
<feGaussianBlur stdDeviation="26" result="effect1_foregroundBlur_26_112"/>
</filter>
<clipPath id="clip0_26_112">
<rect width="102" height="96" fill="white" transform="translate(81 100)"/>
</clipPath>
</defs>
</svg>
