<svg width="308" height="646" viewBox="0 0 308 646" fill="none" xmlns="http://www.w3.org/2000/svg">
<g opacity="0.2">
<path fill-rule="evenodd" clip-rule="evenodd" d="M273.471 373.175C272.686 370.039 271.901 366.119 270.332 363.767L269.547 362.199C269.547 362.199 269.547 362.199 269.547 361.415C267.977 358.279 266.408 354.359 263.269 352.791C258.56 349.655 256.206 348.087 251.497 352.791C245.219 359.063 246.789 384.151 248.358 395.126C250.713 416.294 247.573 431.189 243.65 449.221C242.865 452.357 242.08 454.709 240.511 457.845C235.802 474.308 226.385 490.772 215.398 504.1C212.259 508.019 196.564 526.051 191.071 526.051C190.286 516.643 207.551 491.556 212.259 485.284C217.753 477.444 216.968 476.66 219.322 472.74L225.6 460.197C237.372 428.837 213.829 428.837 207.551 434.325C201.273 440.597 200.488 460.197 187.147 475.876C182.438 482.148 177.73 487.636 173.021 493.124L140.061 522.915C125.936 533.891 106.317 555.058 95.3302 570.738C92.1912 575.442 91.4064 577.794 89.0521 580.146C87.4826 581.714 84.3436 587.201 83.5588 590.337C75.7112 607.585 77.2807 600.529 70.2179 623.265C69.4331 626.4 67.0789 631.104 67.0789 635.024C75.7112 635.808 80.4198 634.24 89.8369 633.456C93.7607 633.456 111.81 627.968 118.088 626.4C126.721 624.049 135.353 620.129 143.201 616.993C158.111 610.721 184.008 595.825 194.995 585.633C209.12 573.09 224.815 558.194 235.017 542.515C244.434 528.403 254.636 511.939 260.13 496.26C260.914 493.124 262.484 489.988 263.269 487.636L267.192 474.308C270.331 467.252 274.255 446.869 274.255 439.813C277.394 417.862 279.749 395.91 273.471 373.175Z" fill="#E6A443"/>
<path fill-rule="evenodd" clip-rule="evenodd" d="M-71.0388 265.769C-60.8369 273.609 -54.5588 274.393 -40.4332 287.721C-38.0789 290.073 -34.1551 293.209 -31.8008 295.561C-27.877 299.481 -9.82755 319.864 -8.25803 325.352C-7.47327 328.488 -12.1818 333.192 -14.5361 335.544C-37.2941 364.551 -38.8636 377.095 -47.496 408.454C-49.8503 417.862 -49.8503 430.405 -49.8503 441.381C-49.8503 464.9 -47.496 468.82 -42.7874 487.636C-41.2179 493.908 -29.4465 518.995 -26.3075 523.699C-12.9666 545.65 13.7152 591.121 19.9933 616.993C22.3476 626.4 25.4866 629.536 26.2714 645.216C30.1952 639.728 29.4104 620.913 29.4104 614.641C28.6256 598.177 26.2714 586.417 22.3476 571.522C19.9933 561.33 16.8543 553.49 15.2848 546.434C13.7152 540.947 3.51334 518.995 0.374313 512.723C-1.19521 508.803 -2.76472 506.451 -4.33424 501.748C-5.119 500.18 -5.90376 497.044 -5.90376 495.476C-12.1818 475.092 -9.82754 482.932 -12.9666 460.981C-16.8904 433.541 -11.3971 399.83 -1.97997 375.527C2.72859 363.767 5.86765 360.631 9.00668 353.575C15.2848 340.248 34.9037 317.512 45.8904 308.104C58.4465 297.913 57.6617 297.129 74.1417 287.721C81.2045 283.801 89.0521 279.097 95.3302 276.745C93.7607 274.393 97.6845 275.177 91.4064 275.177L68.6484 279.881C55.3075 283.801 48.2446 287.721 36.4733 293.209C33.3342 294.777 30.9799 297.129 27.8409 298.697C4.2981 312.808 15.2848 314.376 1.15909 302.616C-1.97995 299.481 -4.33424 297.913 -7.47328 295.561C-26.3075 280.665 -37.2941 275.961 -59.2674 268.121C-61.6217 267.337 -68.6845 264.201 -71.0388 265.769Z" fill="#E6A443"/>
<path fill-rule="evenodd" clip-rule="evenodd" d="M43.5361 333.976C40.397 334.76 40.397 335.544 38.8275 337.896C37.258 339.464 36.4732 340.248 34.9037 342.6C27.0561 353.575 24.7018 356.711 27.0561 365.335C38.0428 399.83 38.0428 429.621 29.4104 464.117C28.6256 467.252 27.0561 472.74 25.4866 476.66L20.7781 488.42C15.2847 502.532 10.5762 504.099 14.5 511.155C16.0695 513.507 16.0695 514.291 16.8543 516.643L24.7019 532.323C27.8409 532.323 25.4866 532.323 27.8409 530.755L37.258 518.995C42.7513 511.155 55.3075 490.772 58.4465 481.364L66.2941 455.493C67.8636 451.573 67.8636 445.301 68.6484 440.597C70.2179 431.189 69.4332 418.646 69.4332 408.454C69.4332 398.262 66.2941 388.854 63.9398 380.231C59.2313 361.415 55.3075 353.575 46.6751 338.68C45.8904 336.328 45.8903 335.544 43.5361 333.976Z" fill="#E6A443"/>
<path fill-rule="evenodd" clip-rule="evenodd" d="M78.0655 212.459C91.4064 212.459 100.039 209.323 109.456 203.051C117.303 197.563 126.721 183.451 129.86 174.044C136.138 156.796 141.631 132.493 138.492 113.677C129.86 112.893 109.456 122.301 100.824 126.221C85.9131 134.061 82.774 136.413 71.0026 146.604C61.5855 154.444 56.0922 169.34 55.3075 181.883C55.3075 188.939 60.016 209.323 64.7246 210.891C67.8636 212.459 74.9265 212.459 78.0655 212.459Z" fill="#6C9945"/>
<path fill-rule="evenodd" clip-rule="evenodd" d="M89.0521 393.558C102.393 404.534 127.505 410.022 143.2 400.614C149.479 397.478 153.402 395.126 158.111 391.206C168.313 381.799 182.438 363.767 188.717 350.439C190.286 348.087 191.071 344.167 191.856 341.816C192.64 339.464 194.995 334.76 194.995 332.408C191.856 330.056 179.299 330.056 175.376 330.056C168.313 330.056 161.25 330.056 154.187 330.056C138.492 330.84 118.088 336.328 106.317 346.519C93.7606 357.495 87.4826 373.959 89.0521 393.558Z" fill="#6C9945"/>
<path fill-rule="evenodd" clip-rule="evenodd" d="M151.833 169.34C151.833 177.18 151.048 177.18 157.326 180.316C171.452 188.155 191.071 192.075 205.196 184.235C221.676 175.612 232.663 164.636 242.865 148.172C244.434 145.82 246.004 143.468 247.573 141.117C249.143 138.765 249.928 134.845 251.497 132.493C253.852 128.573 258.56 119.949 259.345 115.245C253.067 111.325 230.309 112.893 221.676 112.893C187.147 114.461 151.833 129.357 151.833 169.34Z" fill="#6C9945"/>
<path fill-rule="evenodd" clip-rule="evenodd" d="M70.2179 115.245C92.9759 115.245 109.456 104.269 118.873 83.8859C127.505 65.8544 132.214 41.551 131.429 16.4636C125.151 15.6796 99.254 25.8714 92.9759 29.0073C71.0027 40.767 48.2447 55.6626 48.2447 84.6699C48.2447 90.9417 49.8142 101.917 52.1685 106.621C54.5227 111.325 52.9532 112.893 57.6618 113.677C61.5856 115.245 65.5094 115.245 70.2179 115.245Z" fill="#6C9945"/>
<path fill-rule="evenodd" clip-rule="evenodd" d="M108.671 264.985C108.671 271.257 108.671 271.257 113.38 273.609C115.734 274.393 114.949 274.393 117.303 275.177C127.505 282.233 145.555 283.017 157.326 279.881C158.896 279.097 167.528 275.177 169.098 273.609C188.717 261.066 208.336 231.274 214.614 209.323L213.044 208.539C206.766 206.187 188.717 206.187 181.654 206.187C141.631 206.187 108.671 221.867 108.671 264.985Z" fill="#6C9945"/>
<path fill-rule="evenodd" clip-rule="evenodd" d="M9.79143 65.8544C6.6524 67.4223 1.94385 76.0461 -0.410433 79.182C-9.82755 90.9418 -11.3971 97.2136 -16.8904 109.757C-21.5989 120.733 -25.5227 137.981 -22.3837 150.524C-20.0294 159.932 -17.6751 166.988 -10.6123 174.044C-6.6885 178.748 5.08289 188.939 10.5762 188.155C12.9305 188.155 23.1323 181.1 25.4866 178.748C52.1684 153.66 43.5361 121.517 28.6257 92.5097C24.7019 87.0219 13.7152 68.2063 9.79143 65.8544Z" fill="#6C9945"/>
<path fill-rule="evenodd" clip-rule="evenodd" d="M307.215 246.17C287.596 243.818 263.269 241.466 244.434 247.738C235.017 250.874 234.233 250.09 223.246 257.146C220.107 259.498 214.614 264.201 212.259 266.553C205.981 274.393 202.057 283.801 201.273 296.345C200.488 306.536 199.703 307.32 206.766 311.24C247.574 333.192 276.61 305.752 295.444 273.609L307.215 250.09L308 248.522L307.215 246.17Z" fill="#6C9945"/>
<path fill-rule="evenodd" clip-rule="evenodd" d="M9.00666 213.243C5.86763 214.027 5.08286 213.243 1.94382 214.811C-36.5094 231.274 -23.9532 290.073 22.3476 284.585C28.6257 283.801 40.397 277.529 45.1056 271.257C51.3837 262.633 52.9532 254.794 52.1684 241.466C49.8141 225.002 29.4104 207.755 9.00666 213.243Z" fill="#E6A443"/>
</g>
</svg>
