<svg width="232" height="232" viewBox="0 0 232 232" fill="none" xmlns="http://www.w3.org/2000/svg">
<g filter="url(#filter0_f_26_146)">
<circle cx="116" cy="116" r="64" fill="#FFF9E4"/>
</g>
<circle cx="94" cy="151" r="42" fill="white"/>
<g clip-path="url(#clip0_26_146)">
<path d="M124.032 116C146.232 116.043 164.021 133.897 163.979 156.118C163.936 178.146 145.996 196.021 123.968 196C101.768 195.957 83.8502 177.846 84.0001 155.54C84.1499 133.811 102.132 115.957 124.032 116ZM159.826 156.054C159.847 136.294 143.898 120.196 124.268 120.174C104.252 120.132 88.2174 136.059 88.1746 155.989C88.1531 175.706 104.166 191.804 123.818 191.826C143.77 191.847 159.804 175.92 159.826 156.054Z" fill="#D79E49"/>
<path d="M124.589 174.849C115.148 174.764 107.805 171.146 101.362 165.366C100.441 164.552 100.398 163.225 101.147 162.39C101.94 161.512 103.203 161.448 104.209 162.347C107.056 164.873 110.139 167.014 113.671 168.491C122.855 172.323 131.482 170.996 139.617 165.558C141.008 164.638 142.293 163.525 143.577 162.476C144.797 161.491 145.932 161.427 146.788 162.412C147.602 163.332 147.452 164.638 146.339 165.601C141.201 170.183 135.378 173.394 128.528 174.507C127.072 174.742 125.531 174.764 124.589 174.849Z" fill="#D79E49"/>
<path d="M110.524 144.279C112.215 144.301 114.227 145.157 115.94 146.741C116.903 147.64 117.032 148.925 116.283 149.803C115.469 150.744 114.27 150.787 113.157 149.867C110.845 147.961 108.811 147.961 106.542 149.845C105.386 150.787 104.273 150.787 103.417 149.824C102.582 148.882 102.667 147.705 103.759 146.72C105.493 145.136 107.505 144.258 110.524 144.279Z" fill="#D79E49"/>
<path d="M145.14 148.09C145.14 150.017 143.385 151.001 141.993 150.188C141.758 150.038 141.544 149.845 141.329 149.674C139.274 148.004 137.069 148.047 135.014 149.674C134.479 150.102 133.666 150.509 133.045 150.423C132.445 150.338 131.739 149.695 131.439 149.117C131.011 148.325 131.354 147.469 132.017 146.784C134.372 144.386 138.311 143.53 141.394 144.9C142.443 145.371 143.427 146.056 144.327 146.784C144.755 147.169 144.969 147.833 145.14 148.09Z" fill="#D79E49"/>
</g>
<defs>
<filter id="filter0_f_26_146" x="0" y="0" width="232" height="232" filterUnits="userSpaceOnUse" color-interpolation-filters="sRGB">
<feFlood flood-opacity="0" result="BackgroundImageFix"/>
<feBlend mode="normal" in="SourceGraphic" in2="BackgroundImageFix" result="shape"/>
<feGaussianBlur stdDeviation="26" result="effect1_foregroundBlur_26_146"/>
</filter>
<clipPath id="clip0_26_146">
<rect width="80" height="80" fill="white" transform="translate(84 116)"/>
</clipPath>
</defs>
</svg>
