<svg width="232" height="232" viewBox="0 0 232 232" fill="none" xmlns="http://www.w3.org/2000/svg">
<g filter="url(#filter0_f_26_78)">
<circle cx="116" cy="116" r="64" fill="#FFF9E4"/>
</g>
<circle cx="82" cy="84" r="42" fill="white"/>
<g clip-path="url(#clip0_26_78)">
<path d="M104.109 135.715C103.796 135.504 103.525 135.294 103.233 135.147C95.9926 131.127 88.2519 128.496 80.1356 126.98C74.9404 125.991 69.6826 125.612 64.4039 125.549C63.3607 125.528 62.3175 125.675 61.2742 125.675C59.9598 125.675 59.0209 124.812 59 123.697C58.9792 122.581 59.9389 121.718 61.2325 121.676C68.8689 121.466 76.4218 121.95 83.8704 123.739C84.8927 123.992 85.2892 123.697 85.6856 122.729C89.0447 114.836 94.9702 110.058 103.358 108.69C113.873 106.964 124.076 113.089 127.936 123.255C128.332 124.307 128.75 124.518 129.814 124.265C134.863 123.002 139.996 122.055 145.212 121.887C148.362 121.782 151.534 121.74 154.684 121.697C155.978 121.676 156.937 122.56 156.979 123.655C157.021 124.791 156.019 125.675 154.663 125.675C152.514 125.696 150.365 125.633 148.216 125.696C138.994 125.907 130.085 127.717 121.489 131.063C114.291 133.863 107.677 137.651 101.793 142.702C101.396 143.039 101.042 143.397 100.604 143.818C100.917 144.092 101.146 144.302 101.396 144.491C103.316 146.049 105.277 147.564 107.176 149.143C107.76 149.648 108.136 149.732 108.741 149.164C116.878 141.629 126.559 137.251 137.262 134.957C141.999 133.947 146.818 133.652 151.638 133.547C152.744 133.526 153.85 133.631 154.976 133.694C156.145 133.757 157.083 134.768 156.979 135.82C156.875 136.893 155.811 137.714 154.663 137.651C139.683 136.936 125.954 140.556 113.915 149.858C112.976 150.574 112.1 151.395 111.265 152.216C111.078 152.384 110.973 152.91 111.098 153.079C112.809 155.583 114.562 158.067 116.314 160.529C116.335 160.55 116.377 160.55 116.523 160.571C116.69 160.424 116.94 160.235 117.128 160.003C122.928 153.226 130.356 149.206 138.827 146.996C143.501 145.775 148.258 145.333 153.078 145.481C153.85 145.502 154.601 145.586 155.352 145.712C156.311 145.86 157.042 146.786 156.979 147.733C156.917 148.701 156.124 149.48 155.101 149.501C152.952 149.522 150.782 149.374 148.633 149.522C138.285 150.195 129.021 153.521 121.51 161.034C118.86 163.686 116.878 166.801 115.522 170.316C115.042 171.558 114.228 172.147 113.31 172C112.016 171.79 111.307 170.59 111.787 169.201C112.225 167.959 112.788 166.738 113.393 165.56C113.727 164.928 113.706 164.423 113.393 163.813C109.763 156.509 104.276 150.974 97.4948 146.68C90.5052 142.26 82.8897 139.566 74.7526 138.346C70.2877 137.672 65.781 137.314 61.2534 137.672C60.0224 137.777 59.1044 136.999 59.0209 135.841C58.9374 134.62 59.7094 133.8 60.9613 133.736C70.4754 133.252 79.7392 134.494 88.6483 137.946C91.1729 138.935 93.5932 140.156 96.0552 141.313C96.5351 141.545 96.9315 141.755 97.4739 141.313C99.5187 139.587 101.626 137.904 103.692 136.199C103.879 136.052 103.942 135.925 104.109 135.715ZM124.598 125.549C124.431 125.044 124.347 124.707 124.222 124.37C121.092 116.246 112.642 111.279 104.109 112.605C97.2862 113.657 92.4874 117.446 89.5455 123.676C88.9613 124.939 89.003 125.023 90.3175 125.402C96.2638 127.212 101.918 129.716 107.259 132.895C107.823 133.231 108.24 133.189 108.782 132.895C110.723 131.8 112.642 130.642 114.666 129.737C117.608 128.411 120.633 127.275 123.638 126.054C123.972 125.949 124.285 125.738 124.598 125.549Z" fill="#D79E49"/>
<path d="M64.8629 145.481C75.5038 145.649 85.2892 148.427 93.8018 155.12C98.4754 158.782 102.022 163.35 104.13 168.969C104.63 170.295 104.255 171.369 103.107 171.832C102.064 172.253 101.042 171.79 100.562 170.527C97.62 162.887 92.0701 157.772 85.0179 154.131C80.1148 151.605 74.8778 150.09 69.3905 149.711C66.6155 149.522 63.8406 149.585 61.0656 149.522C59.8555 149.501 59.1461 148.827 59.1044 147.67C59.0626 146.575 59.7929 145.775 60.9404 145.67C61.8376 145.586 62.7348 145.523 63.6319 145.481C64.0284 145.46 64.4456 145.481 64.8629 145.481Z" fill="#D79E49"/>
<path d="M81.7839 117.509C81.5753 117.446 81.1789 117.383 80.8659 117.193C78.7586 115.973 76.6513 114.752 74.544 113.51C73.7094 113.005 73.3338 112.268 73.5216 111.3C73.6885 110.437 74.2727 109.932 75.0864 109.827C75.5246 109.764 76.0671 109.89 76.4635 110.122C78.6125 111.342 80.7407 112.584 82.8897 113.847C83.7452 114.352 84.0581 115.131 83.8078 116.078C83.5365 116.983 82.8897 117.425 81.7839 117.509Z" fill="#D79E49"/>
<path d="M129.417 115.425C129.793 114.899 130.085 114.184 130.586 113.868C132.714 112.542 134.884 111.3 137.054 110.058C138.055 109.49 139.161 109.806 139.703 110.669C140.288 111.616 140.058 112.795 139.036 113.405C136.866 114.731 134.675 116.015 132.463 117.235C131.128 117.993 129.668 117.067 129.417 115.425Z" fill="#D79E49"/>
<path d="M86.4576 99.0087C86.395 97.8301 86.7705 97.1987 87.5842 96.904C88.4814 96.5883 89.3369 96.7146 89.9002 97.5775C90.5679 98.6299 91.1938 99.7243 91.8197 100.819C92.4456 101.913 93.0924 102.987 93.6766 104.102C94.3026 105.26 94.0522 106.417 93.1342 106.965C92.1118 107.575 91.006 107.259 90.3175 106.081C89.1073 104.039 87.9598 101.955 86.7914 99.8927C86.5828 99.5559 86.4993 99.135 86.4576 99.0087Z" fill="#D79E49"/>
<path d="M121.405 107.364C119.882 107.175 118.943 105.765 119.653 104.439C120.863 102.124 122.198 99.8506 123.554 97.6196C124.097 96.7146 125.265 96.5251 126.142 97.0092C126.955 97.4722 127.373 98.5457 126.872 99.4928C125.599 101.871 124.243 104.186 122.845 106.48C122.553 106.922 121.885 107.091 121.405 107.364Z" fill="#D79E49"/>
<path d="M108.636 97.6827C108.636 98.9876 108.657 100.271 108.636 101.576C108.616 102.713 107.802 103.555 106.759 103.576C105.736 103.597 104.86 102.734 104.839 101.619C104.818 99.0297 104.818 96.4199 104.839 93.8311C104.86 92.7156 105.632 92 106.696 91.9789C107.802 91.9789 108.595 92.7366 108.616 93.8732C108.657 95.1571 108.636 96.4199 108.636 97.6827Z" fill="#D79E49"/>
</g>
<defs>
<filter id="filter0_f_26_78" x="0" y="0" width="232" height="232" filterUnits="userSpaceOnUse" color-interpolation-filters="sRGB">
<feFlood flood-opacity="0" result="BackgroundImageFix"/>
<feBlend mode="normal" in="SourceGraphic" in2="BackgroundImageFix" result="shape"/>
<feGaussianBlur stdDeviation="26" result="effect1_foregroundBlur_26_78"/>
</filter>
<clipPath id="clip0_26_78">
<rect width="98" height="80" fill="white" transform="translate(59 92)"/>
</clipPath>
</defs>
</svg>
